<svg width="48" height="48" viewBox="0 0 48 48" fill="none" xmlns="http://www.w3.org/2000/svg">
<g clip-path="url(#clip0_1618_7920)">
<g clip-path="url(#clip1_1618_7920)">
<path d="M10.3507 13.4812C10.7328 13.4812 11.0425 13.1715 11.0425 12.7894C11.0425 12.4074 10.7328 12.0977 10.3507 12.0977C9.96866 12.0977 9.65894 12.4074 9.65894 12.7894C9.65894 13.1715 9.96866 13.4812 10.3507 13.4812Z" fill="#4D6BFF"/>
<path d="M13.0166 13.4927H16.6404C17.0287 13.4927 17.3435 13.178 17.3435 12.7896C17.3435 12.4011 17.0287 12.0864 16.6404 12.0864H13.0166C12.6283 12.0864 12.3135 12.4011 12.3135 12.7896C12.3135 13.178 12.6283 13.4927 13.0166 13.4927Z" fill="#4D6BFF"/>
<path d="M10.3507 16.0652C10.7328 16.0652 11.0425 15.7555 11.0425 15.3734C11.0425 14.9914 10.7328 14.6816 10.3507 14.6816C9.96866 14.6816 9.65894 14.9914 9.65894 15.3734C9.65894 15.7555 9.96866 16.0652 10.3507 16.0652Z" fill="#4D6BFF"/>
<path d="M13.0166 16.0762H16.6404C17.0287 16.0762 17.3435 15.7615 17.3435 15.373C17.3435 14.9846 17.0287 14.6699 16.6404 14.6699H13.0166C12.6283 14.6699 12.3135 14.9846 12.3135 15.373C12.3135 15.7615 12.6283 16.0762 13.0166 16.0762Z" fill="#4D6BFF"/>
<path d="M28.9483 24.0665C29.0946 23.7135 28.927 23.3087 28.574 23.1623C28.221 23.016 27.8162 23.1836 27.6699 23.5366C27.5235 23.8896 27.6911 24.2944 28.0441 24.4407C28.3971 24.5871 28.8019 24.4195 28.9483 24.0665Z" fill="#4D6BFF"/>
<path d="M30.9631 24.5005H41.3432C41.7315 24.5005 42.0464 24.1858 42.0464 23.7974C42.0464 23.409 41.7315 23.0942 41.3432 23.0942H30.9631C30.5748 23.0942 30.26 23.409 30.26 23.7974C30.26 24.1858 30.5748 24.5005 30.9631 24.5005Z" fill="#4D6BFF"/>
<path d="M45.4711 18.2462H22.0603V11.1451C22.0603 9.5587 20.7696 8.26805 19.1831 8.26805H10.8666C10.335 8.26805 9.84103 8.00386 9.54516 7.56127L7.66838 4.75458C7.34203 4.26605 6.74494 4.05248 6.183 4.22283C5.62097 4.39327 5.24344 4.90214 5.24344 5.4892V6.2993H3.10219C2.16703 6.2993 1.40625 5.53852 1.40625 4.60336V4.06898C1.40625 3.13383 2.16703 2.37305 3.10219 2.37305H41.8247C42.7603 2.37305 43.5216 3.13383 43.5216 4.06898V4.60336C43.5216 5.53852 42.7603 6.2993 41.8247 6.2993H11.5714C11.1831 6.2993 10.8682 6.61402 10.8682 7.00242C10.8682 7.39083 11.1831 7.70555 11.5714 7.70555H41.8247C43.5357 7.70555 44.9278 6.31392 44.9278 4.60336V4.06898C44.9278 2.35842 43.5357 0.966797 41.8247 0.966797H3.10219C1.39162 0.966797 0 2.35842 0 4.06898V4.60336C0 6.31392 1.39162 7.70555 3.10219 7.70555H5.24344V26.7114C5.24344 28.2178 6.46941 29.4434 7.97625 29.4434H17.9382C18.3265 29.4434 18.6413 29.1286 18.6413 28.7402C18.6413 28.3518 18.3265 28.0371 17.9382 28.0371H7.97625C7.24481 28.0371 6.64969 27.4424 6.64969 26.7114V5.76098L8.37609 8.34295C8.93353 9.17667 9.86447 9.6743 10.8666 9.6743H19.1831C19.9942 9.6743 20.6541 10.3341 20.6541 11.1451V18.2467H16.663C16.0548 18.2467 15.5389 18.62 15.3487 19.1979C15.1585 19.7757 15.3518 20.3825 15.8411 20.7437L20.6544 24.2972V44.5031C20.6544 45.8975 21.7889 47.0321 23.1834 47.0321H45.4711C46.8655 47.0321 48 45.8975 48 44.5031V20.7752C48 19.3808 46.8655 18.2462 45.4711 18.2462ZM46.5938 44.5031C46.5938 45.1222 46.0901 45.6258 45.4711 45.6258H23.1834C22.5643 45.6258 22.0607 45.1222 22.0607 44.5031V23.942C22.0571 23.7497 21.9769 23.5229 21.7748 23.3763L16.7318 19.653H23.2594C23.2625 19.653 23.2654 19.6526 23.2685 19.6525H45.4711C46.0901 19.6525 46.5938 20.1561 46.5938 20.7752V44.5031Z" fill="#4D6BFF"/>
<path d="M28.3978 42.2993C28.7749 42.2382 29.031 41.8829 28.9699 41.5059C28.9088 41.1288 28.5535 40.8726 28.1764 40.9337C27.7993 40.9949 27.5432 41.3501 27.6043 41.7272C27.6655 42.1043 28.0207 42.3605 28.3978 42.2993Z" fill="#4D6BFF"/>
<path d="M41.3432 40.9116H30.9631C30.5748 40.9116 30.26 41.2263 30.26 41.6147C30.26 42.0032 30.5748 42.3179 30.9631 42.3179H41.3432C41.7315 42.3179 42.0464 42.0032 42.0464 41.6147C42.0464 41.2263 41.7315 40.9116 41.3432 40.9116Z" fill="#4D6BFF"/>
<path d="M28.4558 27.1427C28.8275 27.0548 29.0577 26.6822 28.9698 26.3105C28.8819 25.9387 28.5093 25.7086 28.1376 25.7965C27.7658 25.8843 27.5357 26.2569 27.6236 26.6287C27.7115 27.0004 28.0841 27.2305 28.4558 27.1427Z" fill="#4D6BFF"/>
<path d="M30.9631 27.186H41.3432C41.7315 27.186 42.0464 26.8713 42.0464 26.4829C42.0464 26.0945 41.7315 25.7798 41.3432 25.7798H30.9631C30.5748 25.7798 30.26 26.0945 30.26 26.4829C30.26 26.8713 30.5748 27.186 30.9631 27.186Z" fill="#4D6BFF"/>
<path d="M28.7801 29.6575C29.0503 29.3874 29.0503 28.9495 28.7801 28.6794C28.51 28.4093 28.0721 28.4093 27.802 28.6794C27.5318 28.9495 27.5318 29.3874 27.802 29.6575C28.0721 29.9277 28.51 29.9277 28.7801 29.6575Z" fill="#4D6BFF"/>
<path d="M30.9631 29.8716H41.3432C41.7315 29.8716 42.0464 29.5569 42.0464 29.1685C42.0464 28.7801 41.7315 28.4653 41.3432 28.4653H30.9631C30.5748 28.4653 30.26 28.7801 30.26 29.1685C30.26 29.5569 30.5748 29.8716 30.9631 29.8716Z" fill="#4D6BFF"/>
<path d="M19.4212 5.08545C19.8095 5.08545 20.1243 4.77073 20.1243 4.38232C20.1243 3.99392 19.8095 3.6792 19.4212 3.6792H15.7266C15.3382 3.6792 15.0234 3.99392 15.0234 4.38232C15.0234 4.77073 15.3382 5.08545 15.7266 5.08545H19.4212Z" fill="#4D6BFF"/>
<path d="M29.2008 5.08545C29.5891 5.08545 29.9039 4.77073 29.9039 4.38232C29.9039 3.99392 29.5891 3.6792 29.2008 3.6792H25.5062C25.1179 3.6792 24.8031 3.99392 24.8031 4.38232C24.8031 4.77073 25.1179 5.08545 25.5062 5.08545H29.2008Z" fill="#4D6BFF"/>
<path d="M38.9806 5.08545C39.3689 5.08545 39.6837 4.77073 39.6837 4.38232C39.6837 3.99392 39.3689 3.6792 38.9806 3.6792H35.286C34.8977 3.6792 34.5829 3.99392 34.5829 4.38232C34.5829 4.77073 34.8977 5.08545 35.286 5.08545H38.9806Z" fill="#4D6BFF"/>
<path d="M41.5611 32.5308H40.6265C40.2382 32.5308 39.9234 32.8455 39.9234 33.2339C39.9234 33.6223 40.2382 33.937 40.6265 33.937H41.5611C42.4121 33.937 43.1045 34.6294 43.1045 35.4805V35.9804C43.1045 36.8314 42.4121 37.5238 41.5611 37.5238H27.0152C26.1641 37.5238 25.4718 36.8314 25.4718 35.9804V35.4805C25.4718 34.6294 26.1641 33.937 27.0152 33.937H37.313C37.7013 33.937 38.0161 33.6223 38.0161 33.2339C38.0161 32.8455 37.7013 32.5308 37.313 32.5308H27.0152C25.3887 32.5308 24.0656 33.8539 24.0656 35.4805V35.9804C24.0656 37.6069 25.3887 38.93 27.0152 38.93H41.5611C43.1875 38.93 44.5107 37.6069 44.5107 35.9804V35.4805C44.5107 33.8539 43.1875 32.5308 41.5611 32.5308Z" fill="#4D6BFF"/>
<path d="M32.906 35.0273C32.5177 35.0273 32.2029 35.3421 32.2029 35.7305C32.2029 36.1189 32.5177 36.4336 32.906 36.4336H36.2817C36.67 36.4336 36.9848 36.1189 36.9848 35.7305C36.9848 35.3421 36.67 35.0273 36.2817 35.0273H32.906Z" fill="#4D6BFF"/>
<path d="M9.53676 23.2546C9.7566 23.4574 10.1661 23.5734 10.5311 23.2546L12.256 21.5297C12.5306 21.255 12.5306 20.8099 12.256 20.5353L10.5311 18.8104C10.2565 18.5359 9.81126 18.5359 9.53676 18.8104C9.26216 19.0851 9.26216 19.5302 9.53676 19.8048L10.7645 21.0325L9.53676 22.2603C9.26216 22.5348 9.26216 22.9799 9.53676 23.2546Z" fill="#4D6BFF"/>
</g>
</g>
<defs>
<clipPath id="clip0_1618_7920">
<rect y="-0.000488281" width="48" height="48" rx="8" fill="white"/>
</clipPath>
<clipPath id="clip1_1618_7920">
<rect width="48" height="48" fill="white" transform="translate(0 -0.000488281)"/>
</clipPath>
</defs>
</svg>
