<svg width="48" height="48" viewBox="0 0 48 48" fill="none" xmlns="http://www.w3.org/2000/svg">
<g clip-path="url(#clip0_6568_21905)">
<path d="M32.7803 1.71917C32.7107 1.64952 32.628 1.59428 32.537 1.55659C32.446 1.5189 32.3485 1.49951 32.25 1.49951H11.25C9.8581 1.5011 8.52367 2.05473 7.53944 3.03896C6.55522 4.02318 6.00159 5.35761 6 6.74951V41.2495C6.00159 42.6414 6.55522 43.9758 7.53944 44.9601C8.52367 45.9443 9.8581 46.4979 11.25 46.4995H36.75C38.1419 46.4979 39.4764 45.9443 40.4606 44.9601C41.4448 43.9759 41.9984 42.6414 42 41.2495V11.2495C42 11.151 41.9806 11.0535 41.9429 10.9625C41.9052 10.8715 41.85 10.7888 41.7803 10.7192L32.7803 1.71917ZM33 4.06011L39.4394 10.4995H36.75C35.7558 10.4984 34.8026 10.1029 34.0996 9.39993C33.3966 8.69691 33.0011 7.74373 33 6.74951V4.06011ZM11.25 2.99951H31.5V6.74951C31.5016 8.14142 32.0552 9.47587 33.0394 10.4601C34.0236 11.4443 35.3581 11.9979 36.75 11.9995H40.5V32.9995H7.5V6.74951C7.50112 5.75529 7.89656 4.80211 8.59958 4.09909C9.3026 3.39607 10.2558 3.00063 11.25 2.99951ZM36.75 44.9995H11.25C10.2558 44.9984 9.3026 44.6029 8.59958 43.8999C7.89656 43.1969 7.50112 42.2437 7.5 41.2495V34.4995H40.5V41.2495C40.4989 42.2437 40.1034 43.1969 39.4004 43.8999C38.6974 44.6029 37.7442 44.9984 36.75 44.9995Z" fill="#4D6BFF"/>
<path d="M26.0625 37.4995H27.5625C27.7614 37.4995 27.9522 37.4205 28.0928 37.2798C28.2335 37.1392 28.3125 36.9484 28.3125 36.7495C28.3125 36.5506 28.2335 36.3598 28.0928 36.2192C27.9522 36.0785 27.7614 35.9995 27.5625 35.9995H26.0625C25.4658 35.9995 24.8935 36.2366 24.4715 36.6585C24.0496 37.0805 23.8125 37.6528 23.8125 38.2495C23.8125 38.8462 24.0496 39.4185 24.4715 39.8405C24.8935 40.2625 25.4658 40.4995 26.0625 40.4995C26.2614 40.4995 26.4522 40.5785 26.5928 40.7192C26.7335 40.8598 26.8125 41.0506 26.8125 41.2495C26.8125 41.4484 26.7335 41.6392 26.5928 41.7798C26.4522 41.9205 26.2614 41.9995 26.0625 41.9995H24.5625C24.3636 41.9995 24.1728 42.0785 24.0322 42.2192C23.8915 42.3598 23.8125 42.5506 23.8125 42.7495C23.8125 42.9484 23.8915 43.1392 24.0322 43.2798C24.1728 43.4205 24.3636 43.4995 24.5625 43.4995H26.0625C26.6592 43.4995 27.2315 43.2625 27.6535 42.8405C28.0754 42.4185 28.3125 41.8462 28.3125 41.2495C28.3125 40.6528 28.0754 40.0805 27.6535 39.6585C27.2315 39.2366 26.6592 38.9995 26.0625 38.9995C25.8636 38.9995 25.6728 38.9205 25.5322 38.7798C25.3915 38.6392 25.3125 38.4484 25.3125 38.2495C25.3125 38.0506 25.3915 37.8598 25.5322 37.7192C25.6728 37.5785 25.8636 37.4995 26.0625 37.4995Z" fill="#4D6BFF"/>
<path d="M14.625 37.4995H16.125C16.3239 37.4995 16.5147 37.4205 16.6553 37.2798C16.796 37.1392 16.875 36.9484 16.875 36.7495C16.875 36.5506 16.796 36.3598 16.6553 36.2192C16.5147 36.0785 16.3239 35.9995 16.125 35.9995H14.625C14.0283 35.9995 13.456 36.2366 13.034 36.6585C12.6121 37.0805 12.375 37.6528 12.375 38.2495C12.375 38.8462 12.6121 39.4185 13.034 39.8405C13.456 40.2625 14.0283 40.4995 14.625 40.4995C14.8239 40.4995 15.0147 40.5785 15.1553 40.7192C15.296 40.8598 15.375 41.0506 15.375 41.2495C15.375 41.4484 15.296 41.6392 15.1553 41.7798C15.0147 41.9205 14.8239 41.9995 14.625 41.9995H13.125C12.9261 41.9995 12.7353 42.0785 12.5947 42.2192C12.454 42.3598 12.375 42.5506 12.375 42.7495C12.375 42.9484 12.454 43.1392 12.5947 43.2798C12.7353 43.4205 12.9261 43.4995 13.125 43.4995H14.625C15.2217 43.4995 15.794 43.2625 16.216 42.8405C16.6379 42.4185 16.875 41.8462 16.875 41.2495C16.875 40.6528 16.6379 40.0805 16.216 39.6585C15.794 39.2366 15.2217 38.9995 14.625 38.9995C14.4261 38.9995 14.2353 38.9205 14.0947 38.7798C13.954 38.6392 13.875 38.4484 13.875 38.2495C13.875 38.0506 13.954 37.8598 14.0947 37.7192C14.2353 37.5785 14.4261 37.4995 14.625 37.4995Z" fill="#4D6BFF"/>
<path d="M32.0625 37.4995H33.5625C33.7614 37.4995 33.9522 37.4205 34.0928 37.2798C34.2335 37.1392 34.3125 36.9484 34.3125 36.7495C34.3125 36.5506 34.2335 36.3598 34.0928 36.2192C33.9522 36.0785 33.7614 35.9995 33.5625 35.9995H32.0625C31.4658 35.9995 30.8935 36.2366 30.4715 36.6585C30.0496 37.0805 29.8125 37.6528 29.8125 38.2495C29.8125 38.8462 30.0496 39.4185 30.4715 39.8405C30.8935 40.2625 31.4658 40.4995 32.0625 40.4995C32.2614 40.4995 32.4522 40.5785 32.5928 40.7192C32.7335 40.8598 32.8125 41.0506 32.8125 41.2495C32.8125 41.4484 32.7335 41.6392 32.5928 41.7798C32.4522 41.9205 32.2614 41.9995 32.0625 41.9995H30.5625C30.3636 41.9995 30.1728 42.0785 30.0322 42.2192C29.8915 42.3598 29.8125 42.5506 29.8125 42.7495C29.8125 42.9484 29.8915 43.1392 30.0322 43.2798C30.1728 43.4205 30.3636 43.4995 30.5625 43.4995H32.0625C32.6592 43.4995 33.2315 43.2625 33.6535 42.8405C34.0754 42.4185 34.3125 41.8462 34.3125 41.2495C34.3125 40.6528 34.0754 40.0805 33.6535 39.6585C33.2315 39.2366 32.6592 38.9995 32.0625 38.9995C31.8636 38.9995 31.6728 38.9205 31.5322 38.7798C31.3915 38.6392 31.3125 38.4484 31.3125 38.2495C31.3125 38.0506 31.3915 37.8598 31.5322 37.7192C31.6728 37.5785 31.8636 37.4995 32.0625 37.4995Z" fill="#4D6BFF"/>
<path d="M20.8125 37.4995C20.9615 37.5002 21.1085 37.5341 21.2428 37.5987C21.4228 37.6835 21.629 37.6933 21.8162 37.626C22.0034 37.5588 22.1562 37.4199 22.241 37.2399C22.3258 37.06 22.3356 36.8537 22.2683 36.6665C22.201 36.4793 22.0621 36.3265 21.8822 36.2418C21.548 36.0826 21.1826 35.9998 20.8125 35.9995C19.1583 35.9995 17.8125 37.6818 17.8125 39.7495C17.8125 41.8173 19.1583 43.4995 20.8125 43.4995C21.1826 43.4992 21.548 43.4164 21.8822 43.2573C21.9713 43.2153 22.0512 43.1562 22.1175 43.0833C22.1837 43.0104 22.235 42.9252 22.2683 42.8325C22.3016 42.7398 22.3164 42.6415 22.3117 42.5431C22.307 42.4447 22.283 42.3482 22.241 42.2591C22.199 42.17 22.1399 42.0901 22.067 42.0238C21.9941 41.9576 21.9089 41.9063 21.8162 41.873C21.7235 41.8397 21.6252 41.8249 21.5268 41.8296C21.4284 41.8343 21.3319 41.8583 21.2428 41.9003C21.1085 41.9649 20.9615 41.9988 20.8125 41.9995C19.9994 41.9995 19.3125 40.9691 19.3125 39.7495C19.3125 38.5299 19.9994 37.4995 20.8125 37.4995Z" fill="#4D6BFF"/>
<path d="M24 19.4995C24.4142 19.4995 24.75 19.1637 24.75 18.7495C24.75 18.3353 24.4142 17.9995 24 17.9995C23.5858 17.9995 23.25 18.3353 23.25 18.7495C23.25 19.1637 23.5858 19.4995 24 19.4995Z" fill="#4D6BFF"/>
<path d="M24 22.4995C24.4142 22.4995 24.75 22.1637 24.75 21.7495C24.75 21.3353 24.4142 20.9995 24 20.9995C23.5858 20.9995 23.25 21.3353 23.25 21.7495C23.25 22.1637 23.5858 22.4995 24 22.4995Z" fill="#4D6BFF"/>
<path d="M14.25 20.9995C14.4488 20.9997 14.6395 21.0788 14.7801 21.2194C14.9207 21.36 14.9998 21.5507 15 21.7495V24.7495C15.0007 25.346 15.2379 25.918 15.6597 26.3398C16.0816 26.7616 16.6535 26.9988 17.25 26.9995C17.4489 26.9995 17.6397 26.9205 17.7803 26.7798C17.921 26.6392 18 26.4484 18 26.2495C18 26.0506 17.921 25.8598 17.7803 25.7192C17.6397 25.5785 17.4489 25.4995 17.25 25.4995C17.0512 25.4993 16.8605 25.4202 16.7199 25.2796C16.5793 25.139 16.5002 24.9484 16.5 24.7495V21.7495C16.5005 21.1957 16.2959 20.6614 15.9257 20.2495C16.2959 19.8377 16.5005 19.3033 16.5 18.7495V15.7495C16.5002 15.5507 16.5793 15.36 16.7199 15.2194C16.8605 15.0788 17.0512 14.9997 17.25 14.9995C17.4489 14.9995 17.6397 14.9205 17.7803 14.7798C17.921 14.6392 18 14.4484 18 14.2495C18 14.0506 17.921 13.8598 17.7803 13.7192C17.6397 13.5785 17.4489 13.4995 17.25 13.4995C16.6535 13.5002 16.0816 13.7374 15.6597 14.1593C15.2379 14.5811 15.0007 15.153 15 15.7495V18.7495C14.9998 18.9484 14.9207 19.139 14.7801 19.2796C14.6395 19.4202 14.4488 19.4993 14.25 19.4995C14.0511 19.4995 13.8603 19.5785 13.7197 19.7192C13.579 19.8598 13.5 20.0506 13.5 20.2495C13.5 20.4484 13.579 20.6392 13.7197 20.7798C13.8603 20.9205 14.0511 20.9995 14.25 20.9995Z" fill="#4D6BFF"/>
<path d="M31.5 24.7495C31.4998 24.9484 31.4207 25.139 31.2801 25.2796C31.1395 25.4202 30.9488 25.4993 30.75 25.4995C30.5511 25.4995 30.3603 25.5785 30.2197 25.7192C30.079 25.8598 30 26.0506 30 26.2495C30 26.4484 30.079 26.6392 30.2197 26.7798C30.3603 26.9205 30.5511 26.9995 30.75 26.9995C31.3465 26.9988 31.9184 26.7616 32.3403 26.3398C32.7621 25.918 32.9993 25.346 33 24.7495V21.7495C33.0002 21.5507 33.0793 21.36 33.2199 21.2194C33.3605 21.0788 33.5512 20.9997 33.75 20.9995C33.9489 20.9995 34.1397 20.9205 34.2803 20.7798C34.421 20.6392 34.5 20.4484 34.5 20.2495C34.5 20.0506 34.421 19.8598 34.2803 19.7192C34.1397 19.5785 33.9489 19.4995 33.75 19.4995C33.5512 19.4993 33.3605 19.4202 33.2199 19.2796C33.0793 19.139 33.0002 18.9484 33 18.7495V15.7495C32.9993 15.153 32.7621 14.5811 32.3403 14.1593C31.9184 13.7374 31.3465 13.5002 30.75 13.4995C30.5511 13.4995 30.3603 13.5785 30.2197 13.7192C30.079 13.8598 30 14.0506 30 14.2495C30 14.4484 30.079 14.6392 30.2197 14.7798C30.3603 14.9205 30.5511 14.9995 30.75 14.9995C30.9488 14.9997 31.1395 15.0788 31.2801 15.2194C31.4207 15.36 31.4998 15.5507 31.5 15.7495V18.7495C31.4995 19.3033 31.7041 19.8377 32.0743 20.2495C31.7041 20.6614 31.4995 21.1957 31.5 21.7495V24.7495Z" fill="#4D6BFF"/>
</g>
<defs>
<clipPath id="clip0_6568_21905">
<rect y="-0.000488281" width="48" height="48" rx="8" fill="white"/>
</clipPath>
</defs>
</svg>
