<svg width="48" height="48" viewBox="0 0 48 48" fill="none" xmlns="http://www.w3.org/2000/svg">
<g clip-path="url(#clip0_6568_21795)">
<path d="M45.5625 1.78076H2.4375C2.35131 1.78071 2.26595 1.79765 2.18631 1.83062C2.10666 1.86358 2.0343 1.91191 1.97335 1.97286C1.9124 2.03381 1.86407 2.10618 1.8311 2.18582C1.79814 2.26546 1.7812 2.35082 1.78125 2.43701V38.9283C1.78125 39.1023 1.85039 39.2692 1.97346 39.3923C2.09653 39.5154 2.26345 39.5845 2.4375 39.5845H14.0951V42.772C14.0966 43.685 14.4599 44.5602 15.1055 45.2058C15.751 45.8514 16.6261 46.2148 17.5391 46.2164H30.4609C31.3739 46.2148 32.249 45.8514 32.8945 45.2058C33.5401 44.5602 33.9034 43.685 33.9049 42.772V39.5845H45.5625C45.7365 39.5845 45.9035 39.5154 46.0265 39.3923C46.1496 39.2692 46.2188 39.1023 46.2188 38.9283V2.43701C46.2188 2.35082 46.2019 2.26546 46.1689 2.18582C46.1359 2.10618 46.0876 2.03381 46.0266 1.97286C45.9657 1.91191 45.8933 1.86358 45.8137 1.83062C45.7341 1.79765 45.6487 1.78071 45.5625 1.78076ZM3.09375 3.09326H44.9062V7.08364H3.09375V3.09326ZM15.4076 38.9391C15.4076 38.9354 15.4076 38.932 15.4076 38.9283C15.4076 38.9245 15.4076 38.9208 15.4076 38.9174V22.4478H32.5924V38.9174V38.9283C32.5924 38.9283 32.5924 38.9354 32.5924 38.9391V40.1039H15.4076V38.9391ZM15.468 21.1353C15.5798 20.6698 15.8448 20.2555 16.2204 19.9589C16.596 19.6622 17.0605 19.5004 17.5391 19.4995H30.4609C30.9395 19.5004 31.404 19.6622 31.7796 19.9589C32.1552 20.2555 32.4202 20.6698 32.532 21.1353H15.468ZM30.4609 44.9058H17.5391C16.974 44.9051 16.4322 44.6802 16.0326 44.2806C15.633 43.8809 15.4082 43.339 15.4076 42.7739V41.4164H32.5924V42.7739C32.5918 43.339 32.367 43.8809 31.9674 44.2806C31.5678 44.6802 31.026 44.9051 30.4609 44.9058ZM33.9049 38.272V21.6314C33.9034 20.7184 33.5401 19.8432 32.8945 19.1976C32.249 18.552 31.3739 18.1886 30.4609 18.187H17.5391C16.6261 18.1886 15.751 18.552 15.1055 19.1976C14.4599 19.8432 14.0966 20.7184 14.0951 21.6314V38.272H3.09375V8.39614H44.9062V38.272H33.9049Z" fill="#4D6BFF"/>
<path d="M31.1093 3.95459C30.885 3.95459 30.6657 4.0211 30.4792 4.1457C30.2927 4.27031 30.1474 4.44742 30.0616 4.65463C29.9757 4.86184 29.9533 5.08985 29.997 5.30982C30.0408 5.5298 30.1488 5.73186 30.3074 5.89045C30.466 6.04904 30.668 6.15704 30.888 6.2008C31.108 6.24456 31.336 6.2221 31.5432 6.13627C31.7504 6.05044 31.9275 5.90509 32.0521 5.71861C32.1767 5.53212 32.2433 5.31287 32.2433 5.08859C32.2433 4.78783 32.1238 4.4994 31.9111 4.28673C31.6984 4.07406 31.41 3.95459 31.1093 3.95459Z" fill="#4D6BFF"/>
<path d="M35.547 3.95459C35.3227 3.95452 35.1034 4.02096 34.9169 4.14552C34.7304 4.27008 34.5849 4.44716 34.4991 4.65437C34.4132 4.86157 34.3907 5.08959 34.4344 5.30959C34.4781 5.52959 34.5861 5.73169 34.7446 5.89032C34.9032 6.04895 35.1053 6.15699 35.3253 6.20077C35.5452 6.24456 35.7733 6.22212 35.9805 6.1363C36.1877 6.05049 36.3649 5.90514 36.4895 5.71865C36.6141 5.53215 36.6806 5.31289 36.6806 5.08859C36.6806 4.7879 36.5612 4.49952 36.3486 4.28686C36.136 4.07421 35.8477 3.95469 35.547 3.95459Z" fill="#4D6BFF"/>
<path d="M39.9844 3.95459C39.7601 3.95452 39.5408 4.02096 39.3543 4.14552C39.1677 4.27008 39.0223 4.44716 38.9364 4.65437C38.8505 4.86157 38.828 5.08959 38.8718 5.30959C38.9155 5.52959 39.0234 5.73169 39.182 5.89032C39.3406 6.04895 39.5427 6.15699 39.7626 6.20077C39.9826 6.24456 40.2107 6.22212 40.4179 6.1363C40.6251 6.05049 40.8022 5.90514 40.9269 5.71865C41.0515 5.53215 41.118 5.31289 41.118 5.08859C41.1181 4.93969 41.0888 4.79224 41.0318 4.65466C40.9749 4.51707 40.8914 4.39206 40.7861 4.28675C40.6808 4.18145 40.5558 4.09791 40.4183 4.04092C40.2807 3.98392 40.1333 3.95459 39.9844 3.95459Z" fill="#4D6BFF"/>
<path d="M24 41.9995C23.7701 41.9995 23.5453 42.0677 23.3541 42.1954C23.163 42.3232 23.014 42.5047 22.926 42.7171C22.838 42.9296 22.815 43.1633 22.8598 43.3888C22.9047 43.6143 23.0154 43.8214 23.178 43.984C23.3406 44.1466 23.5477 44.2573 23.7732 44.3022C23.9987 44.347 24.2324 44.324 24.4449 44.236C24.6573 44.148 24.8388 43.999 24.9666 43.8079C25.0943 43.6167 25.1625 43.3919 25.1625 43.162C25.1625 42.8537 25.04 42.558 24.822 42.34C24.604 42.122 24.3083 41.9995 24 41.9995Z" fill="#4D6BFF"/>
<path d="M29.718 25.9952C29.7128 25.974 29.7064 25.9531 29.6989 25.9326C29.6877 25.9088 29.6752 25.8856 29.6614 25.8632C29.6531 25.849 29.6468 25.8336 29.6374 25.8197C29.5892 25.7474 29.5271 25.6853 29.4548 25.6371C29.4407 25.6285 29.4261 25.6206 29.4113 25.6135C29.371 25.587 29.3263 25.5681 29.2793 25.5576C29.2594 25.5516 29.2418 25.5441 29.2196 25.54C29.1774 25.5313 29.1345 25.5269 29.0914 25.5269H25.9838C25.8097 25.5269 25.6428 25.596 25.5197 25.7191C25.3966 25.8421 25.3275 26.0091 25.3275 26.1831C25.3275 26.3572 25.3966 26.5241 25.5197 26.6471C25.6428 26.7702 25.8097 26.8394 25.9838 26.8394H27.5085L19.5638 34.7845V33.2594C19.5638 33.0853 19.4946 32.9184 19.3715 32.7953C19.2485 32.6722 19.0815 32.6031 18.9075 32.6031C18.7335 32.6031 18.5665 32.6722 18.4435 32.7953C18.3204 32.9184 18.2513 33.0853 18.2513 33.2594V36.3685C18.2514 36.4117 18.2556 36.4547 18.264 36.4971C18.2681 36.5174 18.2756 36.5346 18.2816 36.5556C18.2871 36.5772 18.2938 36.5985 18.3015 36.6194C18.312 36.6428 18.3239 36.6656 18.3371 36.6876C18.3454 36.7022 18.3518 36.718 18.3615 36.7322C18.4098 36.8044 18.4717 36.8665 18.5438 36.9149C18.5588 36.9246 18.5745 36.931 18.5899 36.9396C18.6114 36.9527 18.6337 36.9645 18.6566 36.9749C18.6776 36.9835 18.7001 36.9884 18.7219 36.9951C18.7436 37.0019 18.7594 37.0079 18.7789 37.012C18.8212 37.0203 18.8643 37.0246 18.9075 37.0247H22.0163C22.1903 37.0247 22.3572 36.9556 22.4803 36.8325C22.6034 36.7094 22.6725 36.5425 22.6725 36.3685C22.6725 36.1944 22.6034 36.0275 22.4803 35.9044C22.3572 35.7814 22.1903 35.7122 22.0163 35.7122H20.4915L28.4363 27.7675V29.2922C28.4363 29.4663 28.5054 29.6332 28.6285 29.7563C28.7515 29.8793 28.9185 29.9485 29.0925 29.9485C29.2666 29.9485 29.4335 29.8793 29.5565 29.7563C29.6796 29.6332 29.7488 29.4663 29.7488 29.2922V26.1831C29.7486 26.14 29.7444 26.0971 29.736 26.0549C29.7319 26.0342 29.724 26.0151 29.718 25.9952Z" fill="#4D6BFF"/>
</g>
<defs>
<clipPath id="clip0_6568_21795">
<rect y="-0.000488281" width="48" height="48" rx="8" fill="white"/>
</clipPath>
</defs>
</svg>
