<svg width="48" height="48" viewBox="0 0 48 48" fill="none" xmlns="http://www.w3.org/2000/svg">
<g clip-path="url(#clip0_1618_7911)">
<path d="M43.9709 24.5086H39.2218L42.5818 21.1486C43.1054 20.625 43.3963 19.9268 43.3963 19.185C43.3963 18.4432 43.1054 17.745 42.5818 17.2213L30.7854 5.41771C30.2618 4.89407 29.5636 4.60316 28.8218 4.60316C28.0799 4.60316 27.3818 4.89407 26.8581 5.41771L23.4981 8.77771V4.02862C23.4981 2.49407 22.2472 1.24316 20.7199 1.24316H4.02904C2.49449 1.24316 1.25085 2.49407 1.25085 4.02862V35.6213V35.6359C1.25085 41.7668 6.23995 46.7559 12.3709 46.7559H43.9709C45.5054 46.7559 46.749 45.505 46.749 43.9704V27.2868C46.7563 25.7523 45.5054 24.5086 43.9709 24.5086ZM27.8254 6.39226C28.0872 6.13044 28.4436 5.97771 28.8145 5.97771C29.1927 5.97771 29.5418 6.12316 29.8036 6.39226L41.5999 18.1886C41.8618 18.4504 42.0145 18.8068 42.0145 19.1777C42.0145 19.5559 41.869 19.905 41.5999 20.1668L37.2654 24.5013H33.709C33.8399 24.4213 33.9709 24.3268 34.0872 24.2177L37.6727 20.6323C38.4436 19.8613 38.4436 18.6032 37.6727 17.8323L30.1745 10.3195C29.4036 9.54862 28.1454 9.54862 27.3745 10.3195L23.789 13.905C23.0181 14.6759 23.0181 15.9341 23.789 16.705L31.2945 24.2177C31.4109 24.3341 31.5345 24.4213 31.6727 24.5013H28.6109L22.3054 18.1959C21.5345 17.425 20.2763 17.425 19.5054 18.1959L15.9199 21.7813C15.1709 22.5304 15.1563 23.7232 15.8545 24.5013H12.3854C11.309 24.5013 10.269 24.6613 9.27995 24.9523L27.8254 6.39226ZM32.269 23.2432L24.7563 15.7377C24.5236 15.505 24.5236 15.1195 24.7563 14.8868L28.3418 11.3013C28.4581 11.185 28.6109 11.1268 28.7709 11.1268C28.9236 11.1268 29.0763 11.185 29.1999 11.3013L36.7054 18.8068C36.9381 19.0395 36.9381 19.425 36.7054 19.6577L33.1199 23.2432C32.8799 23.4832 32.5018 23.4832 32.269 23.2432ZM17.7745 24.5086L16.8799 23.6141C16.6472 23.3813 16.6472 22.9959 16.8799 22.7632L20.4654 19.1777C20.5818 19.0613 20.7345 19.0032 20.8945 19.0032C21.0472 19.0032 21.1999 19.0613 21.3236 19.1777L26.6545 24.5086H17.7745ZM7.06176 23.9486C6.72722 23.9486 6.45813 23.6795 6.45813 23.345V18.2686C6.45813 17.9341 6.72722 17.665 7.06176 17.665H14.6109L8.33449 23.9413H7.06176V23.9486ZM18.2836 12.2032C18.2836 12.5377 18.0145 12.8068 17.6799 12.8068H7.06176C6.72722 12.8068 6.45813 12.5377 6.45813 12.2032V7.1268C6.45813 6.79226 6.72722 6.52316 7.06176 6.52316H17.6799C18.0145 6.52316 18.2836 6.79226 18.2836 7.1268V12.2032ZM2.6254 4.02862C2.6254 3.25771 3.25813 2.62498 4.02904 2.62498H20.7127C21.4836 2.62498 22.1163 3.25771 22.1163 4.02862V10.1595L19.5999 12.6759C19.6363 12.5232 19.6654 12.3704 19.6654 12.2032V7.1268C19.6654 6.03589 18.7781 5.14862 17.6872 5.14862H7.06176C5.97085 5.14862 5.08358 6.03589 5.08358 7.1268V12.2032C5.08358 13.2941 5.97085 14.1813 7.06176 14.1813H17.6799C17.8399 14.1813 17.9999 14.1523 18.1527 14.1159L15.9854 16.2832H7.06176C5.97085 16.2832 5.08358 17.1704 5.08358 18.2613V23.3377C5.08358 24.3923 5.91995 25.2504 6.95995 25.3086L4.50904 27.7668C4.02176 28.2541 3.59267 28.785 3.20722 29.3377C3.1854 29.3668 3.16358 29.3959 3.14176 29.425C3.04722 29.5632 2.96722 29.7159 2.87995 29.8541C2.79267 29.9923 2.7054 30.1304 2.6254 30.2759V4.02862ZM45.3745 43.9704C45.3745 44.7413 44.7418 45.3741 43.9709 45.3741H12.3709C6.99631 45.3741 2.6254 41.0032 2.6254 35.6286C2.6254 35.5268 2.63995 35.4323 2.63995 35.3377H2.64722C2.69813 33.6577 3.1854 31.9995 4.08722 30.5232C4.15267 30.4141 4.21813 30.2977 4.29085 30.1886C4.29813 30.1741 4.31267 30.1595 4.31995 30.145C6.07267 27.5777 9.0254 25.8832 12.3709 25.8832H43.9709C44.7418 25.8832 45.3745 26.5159 45.3745 27.2868V43.9704Z" fill="#4D6BFF"/>
<path d="M40.8727 28.3413H35.7963C34.7054 28.3413 33.8181 29.2286 33.8181 30.3195V40.9377C33.8181 42.0286 34.7054 42.9159 35.7963 42.9159H40.8727C41.9636 42.9159 42.8508 42.0286 42.8508 40.9377V30.3195C42.8508 29.2286 41.9636 28.3413 40.8727 28.3413ZM41.469 40.9377C41.469 41.2722 41.1999 41.5413 40.8654 41.5413H35.789C35.4545 41.5413 35.1854 41.2722 35.1854 40.9377V30.3195C35.1854 29.9849 35.4545 29.7159 35.789 29.7159H40.8654C41.1999 29.7159 41.469 29.9849 41.469 30.3195V40.9377Z" fill="#4D6BFF"/>
<path d="M29.7308 28.3413H24.6545C23.5635 28.3413 22.6763 29.2286 22.6763 30.3195V40.9377C22.6763 42.0286 23.5635 42.9159 24.6545 42.9159H29.7308C30.8217 42.9159 31.709 42.0286 31.709 40.9377V30.3195C31.709 29.2286 30.8217 28.3413 29.7308 28.3413ZM30.3345 40.9377C30.3345 41.2722 30.0654 41.5413 29.7308 41.5413H24.6545C24.3199 41.5413 24.0508 41.2722 24.0508 40.9377V30.3195C24.0508 29.9849 24.3199 29.7159 24.6545 29.7159H29.7308C30.0654 29.7159 30.3345 29.9849 30.3345 30.3195V40.9377Z" fill="#4D6BFF"/>
<path d="M18.5891 28.3413H13.5127C12.4218 28.3413 11.5345 29.2286 11.5345 30.3195V40.9377C11.5345 42.0286 12.4218 42.9159 13.5127 42.9159H18.5891C19.68 42.9159 20.5673 42.0286 20.5673 40.9377V30.3195C20.5745 29.2286 19.68 28.3413 18.5891 28.3413ZM19.1927 40.9377C19.1927 41.2722 18.9236 41.5413 18.5891 41.5413H13.5127C13.1782 41.5413 12.9091 41.2722 12.9091 40.9377V30.3195C12.9091 29.9849 13.1782 29.7159 13.5127 29.7159H18.5891C18.9236 29.7159 19.1927 29.9849 19.1927 30.3195V40.9377Z" fill="#4D6BFF"/>
<path d="M7.51263 32.9307C6.029 32.9307 4.81445 34.1452 4.81445 35.6288C4.81445 37.1125 6.02173 38.327 7.51263 38.327C9.00354 38.327 10.2108 37.1198 10.2108 35.6288C10.2108 34.1452 9.00354 32.9307 7.51263 32.9307ZM7.51263 36.9525C6.78536 36.9525 6.19627 36.3634 6.19627 35.6361C6.19627 34.9088 6.78536 34.3125 7.51263 34.3125C8.23991 34.3125 8.83627 34.9088 8.83627 35.6361C8.83627 36.3561 8.23991 36.9525 7.51263 36.9525Z" fill="#4D6BFF"/>
</g>
<defs>
<clipPath id="clip0_1618_7911">
<rect y="-0.000488281" width="48" height="48" rx="8" fill="white"/>
</clipPath>
</defs>
</svg>
