<svg width="48" height="48" viewBox="0 0 48 48" fill="none" xmlns="http://www.w3.org/2000/svg">
<g clip-path="url(#clip0_6568_21883)">
<path d="M39.6485 27.8001L32.9018 26.9525C32.7214 26.93 32.5555 26.8423 32.4354 26.7058C32.3153 26.5693 32.2493 26.3936 32.25 26.2118V24.5955C34.0009 23.0509 35.0713 20.8776 35.2284 18.548L35.3878 17.9959C36.0192 17.9671 36.6253 17.7396 37.1197 17.3458C37.6141 16.952 37.9714 16.4121 38.1406 15.8031C38.3098 15.1942 38.2823 14.5473 38.062 13.9549C37.8417 13.3625 37.4399 12.8549 36.9139 12.5045C37.2042 11.065 37.1555 9.57777 36.7715 8.16045C36.3367 6.54005 35.4429 5.07984 34.1976 3.95558C34.0127 3.79001 33.8495 3.65361 33.6987 3.53858C32.374 2.50962 30.8049 1.8422 29.1449 1.60163C27.4849 1.36106 25.7908 1.55559 24.2285 2.16617L21.6021 3.1962C18.8442 3.28404 17.4821 5.83058 17.3561 8.35104C17.2648 10.0479 17.5771 11.6845 17.9286 13.1009C17.6224 13.4746 17.4112 13.9169 17.3128 14.3899C17.2144 14.8629 17.2318 15.3528 17.3636 15.8176C17.4953 16.2824 17.7375 16.7085 18.0695 17.0596C18.4015 17.4106 18.8134 17.6762 19.2702 17.8337C19.6014 18.7675 20.0156 19.5488 20.6858 20.6918C21.1761 22.1989 22.0616 23.5469 23.25 24.5954V26.2118C23.2516 26.3812 23.195 26.5459 23.0895 26.6784C22.9841 26.8109 22.8363 26.9031 22.6709 26.9395C22.6428 26.9433 22.6187 26.9479 22.5991 26.9521H22.5945C22.4 26.9765 20.5264 27.2124 19.5617 27.3347C18.7131 25.6162 17.821 23.9584 16.9046 22.3996L15.7565 19.6651C15.6803 19.4837 15.5359 19.3395 15.3545 19.2636C15.173 19.1877 14.969 19.1861 14.7863 19.2591L14.2458 19.4754L13.0211 11.2333C13.0046 11.1221 12.9633 11.0161 12.9002 10.923C12.8372 10.8299 12.754 10.7522 12.6569 10.6956L6.0613 6.85133C5.96161 6.79331 5.84989 6.75907 5.73482 6.75126C5.61975 6.74345 5.50442 6.76228 5.39781 6.8063C5.29121 6.85032 5.19619 6.91833 5.12014 7.00504C5.0441 7.09176 4.98908 7.19485 4.95936 7.3063L3.0253 14.5648C2.99601 14.6747 2.9921 14.7898 3.01384 14.9014C3.03559 15.013 3.08243 15.1182 3.15083 15.209L8.18989 21.8998L7.67867 22.1045C7.58628 22.1415 7.50218 22.1965 7.43128 22.2664C7.36038 22.3362 7.30409 22.4195 7.26569 22.5113C7.2273 22.6032 7.20757 22.7017 7.20765 22.8013C7.20773 22.9008 7.22763 22.9993 7.26617 23.0911L8.40589 25.8055C9.27908 29.0712 10.2103 32.015 11.25 34.7993V43.4993C11.2509 44.2947 11.5672 45.0572 12.1297 45.6197C12.6921 46.1821 13.4546 46.4984 14.25 46.4993H25.5C25.6072 46.4993 25.7131 46.4763 25.8107 46.4319C25.9082 46.3875 25.9951 46.3227 26.0655 46.2418C26.1359 46.161 26.1882 46.066 26.2187 45.9632C26.2493 45.8605 26.2575 45.7524 26.2428 45.6462C26.1701 45.1742 26.0673 44.7073 25.9348 44.2485L27.7476 43.6723L36.1895 46.3583C36.4836 46.452 36.7903 46.4996 37.0989 46.4996H41.25C42.0454 46.4987 42.8079 46.1824 43.3703 45.6199C43.9327 45.0575 44.2491 44.295 44.25 43.4996V33.0068C44.2491 31.7273 43.781 30.4922 42.9337 29.5334C42.0864 28.5747 40.9182 27.9583 39.6485 27.8001ZM42.75 38.1706L34.9038 37.386L39.1173 35.2792L42.75 35.8847V38.1706ZM42.75 33.0068V34.364L39.1233 33.7595C38.9669 33.7335 38.8063 33.7576 38.6645 33.8285L34.288 36.0168L27.75 36.6706L23.3452 36.2299C23.2205 35.888 23.0938 35.5494 22.9702 35.2192C22.1546 33.0349 21.241 30.8669 20.2495 28.7599C20.9643 28.6695 21.8687 28.5555 22.3899 28.49C22.9768 29.4098 23.7854 30.1674 24.7414 30.6932C25.6975 31.219 26.7703 31.4962 27.8614 31.4992C28.9525 31.5021 30.0269 31.2309 30.9858 30.7103C31.9447 30.1898 32.7574 29.4366 33.3493 28.52L39.4638 29.2887C40.3705 29.4016 41.2048 29.8417 41.81 30.5263C42.4151 31.211 42.7494 32.0931 42.75 33.0068ZM24.75 26.2118V25.604C25.6213 26.0277 26.5774 26.2483 27.5463 26.2493H27.9537C28.9226 26.2483 29.8786 26.0277 30.75 25.604V26.2118C30.7501 26.591 30.8461 26.9639 31.029 27.296C31.2119 27.6281 31.4758 27.9086 31.7961 28.1113C31.3191 28.7101 30.7111 29.1916 30.019 29.5188C29.3268 29.8459 28.5689 30.0101 27.8034 29.9987C27.0379 29.9873 26.2852 29.8006 25.6031 29.4529C24.921 29.1052 24.3277 28.6058 23.8687 27.9931C24.1424 27.7836 24.3642 27.514 24.517 27.2052C24.6698 26.8963 24.7495 26.5564 24.75 26.2118ZM28.7689 12.7493H26.7311C26.5815 12.5193 26.3768 12.3302 26.1356 12.1992C25.8945 12.0682 25.6244 11.9995 25.35 11.9993H22.289C22.9225 10.6885 23.251 9.25127 23.25 7.79539V6.74933H24.0634C25.2915 6.74933 26.2759 7.64726 27.3182 8.59798C28.3428 9.53276 29.4022 10.4993 30.75 10.4993H33.75C33.75 10.9507 33.75 11.5281 33.75 12.0069C33.7005 12.0024 33.6505 11.9993 33.6 11.9993H30.15C29.8755 11.9995 29.6055 12.0682 29.3643 12.1992C29.1231 12.3302 28.9185 12.5193 28.7689 12.7493ZM21.75 13.6493C21.75 13.6095 21.7658 13.5714 21.7939 13.5433C21.822 13.5151 21.8602 13.4993 21.9 13.4993H25.35C25.3898 13.4993 25.4279 13.5151 25.4561 13.5433C25.4842 13.5714 25.5 13.6095 25.5 13.6493V14.8493C25.5 14.8891 25.4842 14.9273 25.4561 14.9554C25.4279 14.9835 25.3898 14.9993 25.35 14.9993H21.9C21.8602 14.9993 21.822 14.9835 21.7939 14.9554C21.7658 14.9273 21.75 14.8891 21.75 14.8493V13.6493ZM30 13.6493C30 13.6095 30.0158 13.5714 30.0439 13.5433C30.0721 13.5151 30.1102 13.4993 30.15 13.4993H33.6C33.6398 13.4993 33.6779 13.5151 33.7061 13.5433C33.7342 13.5714 33.75 13.6095 33.75 13.6493V14.8493C33.75 14.8891 33.7342 14.9273 33.7061 14.9554C33.6779 14.9835 33.6398 14.9993 33.6 14.9993H30.15C30.1102 14.9993 30.0721 14.9835 30.0439 14.9554C30.0158 14.9273 30 14.8891 30 14.8493V13.6493ZM35.25 16.4993V13.4993C35.6478 13.4993 36.0293 13.6574 36.3106 13.9387C36.592 14.22 36.75 14.6015 36.75 14.9993C36.75 15.3972 36.592 15.7787 36.3106 16.06C36.0293 16.3413 35.6478 16.4993 35.25 16.4993ZM18.854 8.42923C18.9402 6.70639 19.7503 4.69433 21.75 4.69433C21.8437 4.69435 21.9367 4.67677 22.0239 4.64248L24.7758 3.56276C26.0957 3.0465 27.527 2.88191 28.9297 3.08511C30.3323 3.28832 31.6581 3.85236 32.7772 4.72198L32.7855 4.72845C32.9057 4.81995 33.0403 4.93273 33.1968 5.0727C35.0699 6.75251 35.9275 9.41333 35.4794 12.009C35.4036 12.0032 35.3273 11.9996 35.2501 11.9996C35.2501 11.0621 35.2501 9.74961 35.2501 9.74961C35.2501 9.5507 35.1711 9.35993 35.0304 9.21928C34.8898 9.07863 34.699 8.99961 34.5001 8.99961H30.75C29.9837 8.99961 29.18 8.26639 28.3292 7.49023C27.1781 6.43995 25.8733 5.24933 24.0634 5.24933H22.5C22.3011 5.24933 22.1103 5.32834 21.9697 5.469C21.829 5.60965 21.75 5.80041 21.75 5.99933V7.79539C21.7511 9.27645 21.3486 10.7298 20.5858 11.9993H20.25C19.9091 11.9992 19.5707 12.0574 19.2495 12.1715C18.9862 11.0075 18.7845 9.72214 18.854 8.42923ZM20.25 13.4993V16.4993C19.8522 16.4993 19.4706 16.3413 19.1893 16.06C18.908 15.7787 18.75 15.3972 18.75 14.9993C18.75 14.6015 18.908 14.22 19.1893 13.9387C19.4706 13.6574 19.8522 13.4993 20.25 13.4993ZM21.75 17.9378V16.4917C21.7995 16.4962 25.35 16.4993 25.35 16.4993C25.7874 16.4988 26.2068 16.3248 26.5161 16.0155C26.8255 15.7062 26.9995 15.2868 27 14.8493V14.2493H28.5V14.8493C28.5005 15.2868 28.6745 15.7062 28.9838 16.0155C29.2932 16.3248 29.7125 16.4988 30.15 16.4993C30.15 16.4993 33.7005 16.4962 33.75 16.4917C33.75 16.4917 33.7462 18.2104 33.7388 18.3457C33.7388 18.3487 33.7388 18.3518 33.7383 18.3551C33.6824 19.3664 33.4185 20.3554 32.9632 21.2602C32.5078 22.1649 31.8708 22.966 31.0918 23.6135C30.2104 24.3468 29.1003 24.7486 27.9537 24.7493H27.5463C26.3997 24.7485 25.2895 24.3466 24.4082 23.6132C23.5751 22.9208 22.905 22.0532 22.4456 21.0722C21.9861 20.0913 21.7486 19.0211 21.75 17.9378ZM21.5652 35.7452C21.6048 35.8507 21.6446 35.9569 21.6846 36.0639L21.212 36.017L16.8354 33.8288C16.6936 33.758 16.5331 33.7338 16.3767 33.7598L15.9068 33.8381C15.4929 32.8228 15.0885 31.7605 14.7018 30.6711L13.2882 31.1731C13.643 32.1723 14.0125 33.1499 14.3907 34.0908L12.692 34.3739C11.7192 31.7792 10.8425 29.0421 10.0188 26.0261L15.9079 23.669C16.7859 25.1921 17.6397 26.8058 18.4505 28.4749C19.5959 30.8321 20.6437 33.278 21.5652 35.7452ZM15.2437 22.3185L9.52789 24.6036L8.94373 23.2137L14.6586 20.9262L15.2437 22.3185ZM4.56861 14.5982L5.84267 9.81551L7.98102 14.9081C7.89793 15.0136 7.82935 15.1298 7.77711 15.2536C7.70045 15.4353 7.66102 15.6305 7.66115 15.8277C7.66128 16.0249 7.70097 16.22 7.77786 16.4016C7.93545 16.7678 8.22979 17.058 8.59818 17.2103C8.96657 17.3627 9.37989 17.3652 9.75008 17.2173C9.93656 17.1437 10.1064 17.0335 10.2495 16.8931C10.3926 16.7528 10.506 16.5851 10.5831 16.4C10.6598 16.2184 10.6993 16.0232 10.6992 15.8261C10.699 15.6289 10.6593 15.4338 10.5824 15.2523C10.4779 15.0074 10.3108 14.7942 10.0979 14.6343C9.88506 14.4743 9.63387 14.3731 9.36955 14.3408L7.2432 9.27655L11.5903 11.8106L12.8145 20.0488L9.6328 21.3223L4.56861 14.5982ZM23.5753 44.9993L24.5047 44.7033C24.5316 44.8022 24.5579 44.9011 24.5825 44.9993H23.5753ZM24.7847 43.04L18.8576 44.9281C18.7086 44.9745 18.5535 44.9985 18.3975 44.9993H14.25C13.8523 44.9989 13.471 44.8407 13.1898 44.5595C12.9086 44.2783 12.7505 43.897 12.75 43.4993V41.7571L15.8258 40.5268L20.8162 41.4665L25.273 42.8846L24.7847 43.04ZM42.75 43.4993C42.7495 43.897 42.5913 44.2783 42.3101 44.5595C42.0289 44.8407 41.6477 44.9989 41.25 44.9993H37.0993C36.945 44.9994 36.7916 44.9756 36.6445 44.9287L21.2274 40.0233C21.1983 40.014 21.1687 40.0066 21.1387 40.001L15.8887 39.0123C15.7486 38.9859 15.6039 39 15.4715 39.053L12.75 40.1416V35.8847L16.3827 35.2792L20.6645 37.4201C20.7462 37.4609 20.8345 37.4865 20.9254 37.4956L42.75 39.6781V43.4993Z" fill="#4D6BFF"/>
<path d="M26.9761 20.9826C27.1699 20.9732 28.33 20.9732 28.524 20.9826C28.7465 20.9939 28.975 20.9994 29.2017 20.9994C29.719 21.0033 30.2359 20.9703 30.7485 20.9008L30.8631 20.8833L30.6381 19.4004L30.5237 19.4177C29.8861 19.4979 29.2424 19.5203 28.6007 19.4846C28.3816 19.4734 27.12 19.4734 26.901 19.4846C26.2593 19.5202 25.6156 19.4978 24.978 19.4177L24.8635 19.4004L24.6385 20.8833L24.7531 20.9008C25.49 20.9962 26.2341 21.0236 26.9761 20.9826Z" fill="#4D6BFF"/>
<path d="M12.3247 28.2864C12.4756 28.7667 12.6336 29.2539 12.7946 29.7346L14.217 29.2584C14.059 28.7866 13.9038 28.3083 13.7558 27.8369L12.3247 28.2864Z" fill="#4D6BFF"/>
</g>
<defs>
<clipPath id="clip0_6568_21883">
<rect y="-0.000488281" width="48" height="48" rx="8" fill="white"/>
</clipPath>
</defs>
</svg>
