<svg width="48" height="48" viewBox="0 0 48 48" fill="none" xmlns="http://www.w3.org/2000/svg">
<g clip-path="url(#clip0_6568_21773)">
<path d="M42.125 6.99951H5.875C5.37772 6.99951 4.90081 7.19706 4.54917 7.54869C4.19754 7.90032 4 8.37723 4 8.87451V35.1245C4 35.6218 4.19754 36.0987 4.54917 36.4503C4.90081 36.802 5.37772 36.9995 5.875 36.9995H23.375V40.7495H13.6875C13.5217 40.7495 13.3628 40.8154 13.2456 40.9326C13.1283 41.0498 13.0625 41.2088 13.0625 41.3745C13.0625 41.5403 13.1283 41.6992 13.2456 41.8165C13.3628 41.9337 13.5217 41.9995 13.6875 41.9995H34.3125C34.4783 41.9995 34.6372 41.9337 34.7544 41.8165C34.8717 41.6992 34.9375 41.5403 34.9375 41.3745C34.9375 41.2088 34.8717 41.0498 34.7544 40.9326C34.6372 40.8154 34.4783 40.7495 34.3125 40.7495H24.625V36.9995H42.125C42.6223 36.9995 43.0992 36.802 43.4508 36.4503C43.8025 36.0987 44 35.6218 44 35.1245V8.87451C44 8.37723 43.8025 7.90032 43.4508 7.54869C43.0992 7.19706 42.6223 6.99951 42.125 6.99951ZM5.25 35.1245V8.87451C5.25 8.70875 5.31585 8.54978 5.43306 8.43257C5.55027 8.31536 5.70924 8.24951 5.875 8.24951H18.375V35.7495H5.875C5.70924 35.7495 5.55027 35.6837 5.43306 35.5665C5.31585 35.4492 5.25 35.2903 5.25 35.1245ZM42.75 35.1245C42.75 35.2903 42.6842 35.4492 42.5669 35.5665C42.4497 35.6837 42.2908 35.7495 42.125 35.7495H19.625V8.24951H42.125C42.2908 8.24951 42.4497 8.31536 42.5669 8.43257C42.6842 8.54978 42.75 8.70875 42.75 8.87451V35.1245Z" fill="#4D6BFF"/>
<path d="M8.375 24.4995C8.00416 24.4995 7.64165 24.6095 7.33331 24.8155C7.02496 25.0215 6.78464 25.3144 6.64273 25.657C6.50081 25.9996 6.46368 26.3766 6.53603 26.7403C6.60838 27.104 6.78695 27.4381 7.04918 27.7003C7.3114 27.9626 7.64549 28.1411 8.00921 28.2135C8.37292 28.2858 8.74992 28.2487 9.09253 28.1068C9.43514 27.9649 9.72798 27.7245 9.93401 27.4162C10.14 27.1079 10.25 26.7454 10.25 26.3745C10.25 25.8772 10.0525 25.4003 9.70083 25.0487C9.3492 24.6971 8.87228 24.4995 8.375 24.4995ZM8.375 26.9995C8.25139 26.9995 8.13055 26.9629 8.02777 26.8942C7.92499 26.8255 7.84488 26.7279 7.79758 26.6137C7.75027 26.4995 7.73789 26.3738 7.76201 26.2526C7.78613 26.1313 7.84565 26.02 7.93306 25.9326C8.02047 25.8452 8.13183 25.7856 8.25307 25.7615C8.37431 25.7374 8.49997 25.7498 8.61418 25.7971C8.72838 25.8444 8.82599 25.9245 8.89467 26.0273C8.96335 26.1301 9 26.2509 9 26.3745C9 26.5403 8.93415 26.6992 8.81694 26.8165C8.69973 26.9337 8.54076 26.9995 8.375 26.9995Z" fill="#4D6BFF"/>
<path d="M16.5 25.7495H12.125C11.9592 25.7495 11.8003 25.8154 11.6831 25.9326C11.5658 26.0498 11.5 26.2088 11.5 26.3745C11.5 26.5403 11.5658 26.6992 11.6831 26.8165C11.8003 26.9337 11.9592 26.9995 12.125 26.9995H16.5C16.6658 26.9995 16.8247 26.9337 16.9419 26.8165C17.0592 26.6992 17.125 26.5403 17.125 26.3745C17.125 26.2088 17.0592 26.0498 16.9419 25.9326C16.8247 25.8154 16.6658 25.7495 16.5 25.7495Z" fill="#4D6BFF"/>
<path d="M8.375 29.4995C8.00416 29.4995 7.64165 29.6095 7.33331 29.8155C7.02496 30.0215 6.78464 30.3144 6.64273 30.657C6.50081 30.9996 6.46368 31.3766 6.53603 31.7403C6.60838 32.104 6.78695 32.4381 7.04918 32.7003C7.3114 32.9626 7.64549 33.1411 8.00921 33.2135C8.37292 33.2858 8.74992 33.2487 9.09253 33.1068C9.43514 32.9649 9.72798 32.7245 9.93401 32.4162C10.14 32.1079 10.25 31.7454 10.25 31.3745C10.25 30.8772 10.0525 30.4003 9.70083 30.0487C9.3492 29.6971 8.87228 29.4995 8.375 29.4995ZM8.375 31.9995C8.25139 31.9995 8.13055 31.9629 8.02777 31.8942C7.92499 31.8255 7.84488 31.7279 7.79758 31.6137C7.75027 31.4995 7.73789 31.3738 7.76201 31.2526C7.78613 31.1313 7.84565 31.02 7.93306 30.9326C8.02047 30.8452 8.13183 30.7856 8.25307 30.7615C8.37431 30.7374 8.49997 30.7498 8.61418 30.7971C8.72838 30.8444 8.82599 30.9245 8.89467 31.0273C8.96335 31.1301 9 31.2509 9 31.3745C9 31.5403 8.93415 31.6992 8.81694 31.8165C8.69973 31.9337 8.54076 31.9995 8.375 31.9995Z" fill="#4D6BFF"/>
<path d="M16.5 30.7495H12.125C11.9592 30.7495 11.8003 30.8154 11.6831 30.9326C11.5658 31.0498 11.5 31.2088 11.5 31.3745C11.5 31.5403 11.5658 31.6992 11.6831 31.8165C11.8003 31.9337 11.9592 31.9995 12.125 31.9995H16.5C16.6658 31.9995 16.8247 31.9337 16.9419 31.8165C17.0592 31.6992 17.125 31.5403 17.125 31.3745C17.125 31.2088 17.0592 31.0498 16.9419 30.9326C16.8247 30.8154 16.6658 30.7495 16.5 30.7495Z" fill="#4D6BFF"/>
<path d="M8.375 19.4995C8.00416 19.4995 7.64165 19.6095 7.33331 19.8155C7.02496 20.0215 6.78464 20.3144 6.64273 20.657C6.50081 20.9996 6.46368 21.3766 6.53603 21.7403C6.60838 22.104 6.78695 22.4381 7.04918 22.7003C7.3114 22.9626 7.64549 23.1411 8.00921 23.2135C8.37292 23.2858 8.74992 23.2487 9.09253 23.1068C9.43514 22.9649 9.72798 22.7245 9.93401 22.4162C10.14 22.1079 10.25 21.7454 10.25 21.3745C10.25 20.8772 10.0525 20.4003 9.70083 20.0487C9.3492 19.6971 8.87228 19.4995 8.375 19.4995ZM8.375 21.9995C8.25139 21.9995 8.13055 21.9629 8.02777 21.8942C7.92499 21.8255 7.84488 21.7279 7.79758 21.6137C7.75027 21.4995 7.73789 21.3738 7.76201 21.2526C7.78613 21.1313 7.84565 21.02 7.93306 20.9326C8.02047 20.8452 8.13183 20.7856 8.25307 20.7615C8.37431 20.7374 8.49997 20.7498 8.61418 20.7971C8.72838 20.8444 8.82599 20.9245 8.89467 21.0273C8.96335 21.1301 9 21.2509 9 21.3745C9 21.5403 8.93415 21.6992 8.81694 21.8165C8.69973 21.9337 8.54076 21.9995 8.375 21.9995Z" fill="#4D6BFF"/>
<path d="M16.5 20.7495H12.125C11.9592 20.7495 11.8003 20.8154 11.6831 20.9326C11.5658 21.0498 11.5 21.2088 11.5 21.3745C11.5 21.5403 11.5658 21.6992 11.6831 21.8165C11.8003 21.9337 11.9592 21.9995 12.125 21.9995H16.5C16.6658 21.9995 16.8247 21.9337 16.9419 21.8165C17.0592 21.6992 17.125 21.5403 17.125 21.3745C17.125 21.2088 17.0592 21.0498 16.9419 20.9326C16.8247 20.8154 16.6658 20.7495 16.5 20.7495Z" fill="#4D6BFF"/>
<path d="M7.125 17.6245H16.5C16.6658 17.6245 16.8247 17.5587 16.9419 17.4415C17.0592 17.3242 17.125 17.1653 17.125 16.9995C17.125 16.8338 17.0592 16.6748 16.9419 16.5576C16.8247 16.4404 16.6658 16.3745 16.5 16.3745H7.125C6.95924 16.3745 6.80027 16.4404 6.68306 16.5576C6.56585 16.6748 6.5 16.8338 6.5 16.9995C6.5 17.1653 6.56585 17.3242 6.68306 17.4415C6.80027 17.5587 6.95924 17.6245 7.125 17.6245Z" fill="#4D6BFF"/>
<path d="M9 14.4995C9.49445 14.4995 9.9778 14.3529 10.3889 14.0782C10.8 13.8035 11.1205 13.413 11.3097 12.9562C11.4989 12.4994 11.5484 11.9967 11.452 11.5118C11.3555 11.0268 11.1174 10.5814 10.7678 10.2317C10.4181 9.88211 9.97268 9.64401 9.48773 9.54755C9.00277 9.45109 8.50011 9.50059 8.04329 9.68981C7.58648 9.87903 7.19603 10.1995 6.92133 10.6106C6.64662 11.0217 6.5 11.5051 6.5 11.9995C6.5 12.6626 6.76339 13.2984 7.23223 13.7673C7.70107 14.2361 8.33696 14.4995 9 14.4995ZM9 10.7495C9.24723 10.7495 9.4889 10.8228 9.69446 10.9602C9.90002 11.0975 10.0602 11.2928 10.1548 11.5212C10.2495 11.7496 10.2742 12.0009 10.226 12.2434C10.1778 12.4859 10.0587 12.7086 9.88388 12.8834C9.70907 13.0582 9.48634 13.1773 9.24386 13.2255C9.00139 13.2737 8.75005 13.249 8.52165 13.1544C8.29324 13.0598 8.09801 12.8995 7.96066 12.694C7.82331 12.4884 7.75 12.2467 7.75 11.9995C7.75 11.668 7.8817 11.3501 8.11612 11.1156C8.35054 10.8812 8.66848 10.7495 9 10.7495Z" fill="#4D6BFF"/>
</g>
<defs>
<clipPath id="clip0_6568_21773">
<rect y="-0.000488281" width="48" height="48" rx="8" fill="white"/>
</clipPath>
</defs>
</svg>
