<svg width="48" height="48" viewBox="0 0 48 48" fill="none" xmlns="http://www.w3.org/2000/svg">
<g clip-path="url(#clip0_1618_7876)">
<path d="M46.9164 40.0502C46.8436 39.7811 46.5964 39.5993 46.32 39.5993H44.9527V13.3666C44.9527 11.7957 43.68 10.5229 42.1091 10.5229C41.7673 10.5229 41.4909 10.7993 41.4909 11.1411C41.4909 11.4829 41.7673 11.7593 42.1091 11.7593C42.9964 11.7593 43.7164 12.4793 43.7164 13.3666V39.5993H4.28362V13.3666C4.28362 12.4793 5.00362 11.7593 5.8909 11.7593C6.23271 11.7593 6.50908 11.4829 6.50908 11.1411C6.50908 10.7993 6.23271 10.5229 5.8909 10.5229C4.31999 10.5229 3.04726 11.7957 3.04726 13.3666V39.5993H1.67999C1.40362 39.5993 1.15635 39.7811 1.08362 40.0502C0.683623 41.4684 0.945441 42.9375 1.8109 44.0866C2.67635 45.2357 3.99999 45.8902 5.43271 45.8902H42.5673C44 45.8902 45.3236 45.2357 46.1891 44.0866C47.0545 42.9375 47.3164 41.4684 46.9164 40.0502ZM45.2 43.3375C44.5673 44.1739 43.6073 44.6539 42.5673 44.6539H5.43271C4.39271 44.6539 3.43271 44.1739 2.79999 43.3375C2.2618 42.6248 2.04362 41.7302 2.17453 40.8357H3.65817H44.3273H45.8109C45.9564 41.7302 45.7382 42.6248 45.2 43.3375Z" fill="#4D6BFF"/>
<path d="M28 42.123H20C19.6582 42.123 19.3818 42.3994 19.3818 42.7412C19.3818 43.083 19.6582 43.3594 20 43.3594H28C28.3418 43.3594 28.6182 43.083 28.6182 42.7412C28.6182 42.3994 28.3418 42.123 28 42.123Z" fill="#4D6BFF"/>
<path d="M11.3745 36.3993H36.6254C38.48 36.3993 39.9854 34.8939 39.9854 33.0393V5.4684C39.9854 3.61385 38.48 2.1084 36.6254 2.1084H11.3745C9.51998 2.1084 8.01453 3.61385 8.01453 5.4684V33.0393C8.01453 34.8939 9.51998 36.3993 11.3745 36.3993ZM36.6254 35.1629H11.3745C10.2036 35.1629 9.25089 34.2102 9.25089 33.0393V8.79204H38.7491V33.0393C38.7491 34.2102 37.7963 35.1629 36.6254 35.1629ZM11.3745 3.34476H36.6254C37.7963 3.34476 38.7491 4.29749 38.7491 5.4684V7.55567H9.25089V5.4684C9.25089 4.29749 10.2036 3.34476 11.3745 3.34476Z" fill="#4D6BFF"/>
<path d="M11.7454 6.07181H22.4073C22.7491 6.07181 23.0254 5.79545 23.0254 5.45363C23.0254 5.11181 22.7491 4.83545 22.4073 4.83545H11.7454C11.4036 4.83545 11.1273 5.11181 11.1273 5.45363C11.1273 5.79545 11.4036 6.07181 11.7454 6.07181Z" fill="#4D6BFF"/>
<path d="M36.0872 25.563H32.08C31.7382 25.563 31.4618 25.8394 31.4618 26.1812C31.4618 26.523 31.7382 26.7993 32.08 26.7993H36.0872C36.4291 26.7993 36.7054 26.523 36.7054 26.1812C36.7054 25.8394 36.4291 25.563 36.0872 25.563Z" fill="#4D6BFF"/>
<path d="M29.1782 26.1812C29.1782 25.8394 28.9018 25.563 28.56 25.563H20C19.6582 25.563 19.3818 25.8394 19.3818 26.1812C19.3818 26.523 19.6582 26.7993 20 26.7993H28.56C28.9018 26.7993 29.1782 26.523 29.1782 26.1812Z" fill="#4D6BFF"/>
<path d="M11.92 26.7993H17.0836C17.4254 26.7993 17.7018 26.523 17.7018 26.1812C17.7018 25.8394 17.4254 25.563 17.0836 25.563H11.92C11.5782 25.563 11.3018 25.8394 11.3018 26.1812C11.2945 26.523 11.5709 26.7993 11.92 26.7993Z" fill="#4D6BFF"/>
<path d="M36.0873 28.3921H29.4545C29.1127 28.3921 28.8364 28.6685 28.8364 29.0103C28.8364 29.3521 29.1127 29.6285 29.4545 29.6285H36.0873C36.4291 29.6285 36.7055 29.3521 36.7055 29.0103C36.7055 28.6685 36.4291 28.3921 36.0873 28.3921Z" fill="#4D6BFF"/>
<path d="M17.6727 28.3921C17.3309 28.3921 17.0545 28.6685 17.0545 29.0103C17.0545 29.3521 17.3309 29.6285 17.6727 29.6285H27.0836C27.4254 29.6285 27.7018 29.3521 27.7018 29.0103C27.7018 28.6685 27.4254 28.3921 27.0836 28.3921H17.6727Z" fill="#4D6BFF"/>
<path d="M11.92 29.6358H14.6254C14.9673 29.6358 15.2436 29.3594 15.2436 29.0176C15.2436 28.6758 14.9673 28.3994 14.6254 28.3994H11.92C11.5782 28.3994 11.3018 28.6758 11.3018 29.0176C11.2945 29.3521 11.5709 29.6358 11.92 29.6358Z" fill="#4D6BFF"/>
<path d="M36.0873 31.2285H32.7709C32.4291 31.2285 32.1527 31.5049 32.1527 31.8467C32.1527 32.1885 32.4291 32.4649 32.7709 32.4649H36.0873C36.4291 32.4649 36.7054 32.1885 36.7054 31.8467C36.7054 31.5049 36.4291 31.2285 36.0873 31.2285Z" fill="#4D6BFF"/>
<path d="M30.6691 31.2285H21.7454C21.4036 31.2285 21.1273 31.5049 21.1273 31.8467C21.1273 32.1885 21.4036 32.4649 21.7454 32.4649H30.6691C31.0109 32.4649 31.2873 32.1885 31.2873 31.8467C31.2873 31.5049 31.0109 31.2285 30.6691 31.2285Z" fill="#4D6BFF"/>
<path d="M19.0836 31.2285H11.92C11.5782 31.2285 11.3018 31.5049 11.3018 31.8467C11.3018 32.1885 11.5782 32.4649 11.92 32.4649H19.0836C19.4255 32.4649 19.7018 32.1885 19.7018 31.8467C19.7018 31.5049 19.4255 31.2285 19.0836 31.2285Z" fill="#4D6BFF"/>
<path d="M20.4727 20.1159C20.5963 20.2395 20.7491 20.2977 20.9091 20.2977C21.0691 20.2977 21.2291 20.2395 21.3454 20.1159C21.5854 19.8759 21.5854 19.4832 21.3454 19.2432L19.4182 17.3159L21.3454 15.3813C21.5854 15.1413 21.5854 14.7486 21.3454 14.5086C21.1054 14.2686 20.7127 14.2686 20.4727 14.5086L18.1091 16.8722C17.8691 17.1122 17.8691 17.505 18.1091 17.745L20.4727 20.1159Z" fill="#4D6BFF"/>
<path d="M26.6473 20.1159C26.7709 20.2395 26.9236 20.2977 27.0836 20.2977C27.2436 20.2977 27.4036 20.2395 27.52 20.1159L29.8836 17.7522C30.1236 17.5122 30.1236 17.1195 29.8836 16.8795L27.52 14.5086C27.28 14.2686 26.8873 14.2686 26.6473 14.5086C26.4073 14.7486 26.4073 15.1413 26.6473 15.3813L28.5745 17.3159L26.6473 19.2432C26.4073 19.4832 26.4073 19.8759 26.6473 20.1159Z" fill="#4D6BFF"/>
<path d="M21.9564 23.4901C22.0218 23.512 22.0873 23.5192 22.1527 23.5192C22.4145 23.5192 22.6545 23.352 22.7418 23.0974L26.4436 11.912C26.5527 11.5847 26.3782 11.2356 26.0509 11.1265C25.7236 11.0174 25.3745 11.1992 25.2654 11.5192L21.5636 22.7047C21.4545 23.032 21.6291 23.381 21.9564 23.4901Z" fill="#4D6BFF"/>
</g>
<defs>
<clipPath id="clip0_1618_7876">
<rect y="-0.000488281" width="48" height="48" rx="8" fill="white"/>
</clipPath>
</defs>
</svg>
