<svg width="48" height="48" viewBox="0 0 48 48" fill="none" xmlns="http://www.w3.org/2000/svg">
<g clip-path="url(#clip0_6568_21839)">
<g clip-path="url(#clip1_6568_21839)">
<path d="M5.04031 32.9805H4.94946C4.56115 32.9805 4.24634 33.2953 4.24634 33.6836C4.24634 34.0719 4.56115 34.3867 4.94946 34.3867H5.04031C5.42862 34.3867 5.74343 34.0719 5.74343 33.6836C5.74343 33.2953 5.42862 32.9805 5.04031 32.9805Z" fill="#4D6BFF"/>
<path d="M9.58001 32.9805H9.48926C9.10095 32.9805 8.78613 33.2953 8.78613 33.6836C8.78613 34.0719 9.10095 34.3867 9.48926 34.3867H9.58001C9.96832 34.3867 10.2831 34.0719 10.2831 33.6836C10.2831 33.2953 9.96832 32.9805 9.58001 32.9805Z" fill="#4D6BFF"/>
<path d="M7.26482 32.9805H7.17407C6.78576 32.9805 6.47095 33.2953 6.47095 33.6836C6.47095 34.0719 6.78576 34.3867 7.17407 34.3867H7.26482C7.65313 34.3867 7.96795 34.0719 7.96795 33.6836C7.96795 33.2953 7.65313 32.9805 7.26482 32.9805Z" fill="#4D6BFF"/>
<path d="M8.3542 14.7495H6.17517C5.78686 14.7495 5.47205 15.0643 5.47205 15.4526C5.47205 15.8409 5.78686 16.1558 6.17517 16.1558H8.3542C8.74251 16.1558 9.05733 15.8409 9.05733 15.4526C9.05733 15.0643 8.74251 14.7495 8.3542 14.7495Z" fill="#4D6BFF"/>
<path d="M21.7754 4.83789H21.6847C21.2964 4.83789 20.9816 5.1527 20.9816 5.54102C20.9816 5.92933 21.2964 6.24414 21.6847 6.24414H21.7754C22.1638 6.24414 22.4786 5.92933 22.4786 5.54102C22.4786 5.1527 22.1638 4.83789 21.7754 4.83789Z" fill="#4D6BFF"/>
<path d="M26.2245 6.24414H26.3153C26.7036 6.24414 27.0185 5.92933 27.0185 5.54102C27.0185 5.1527 26.7036 4.83789 26.3153 4.83789H26.2245C25.8362 4.83789 25.5214 5.1527 25.5214 5.54102C25.5214 5.92933 25.8361 6.24414 26.2245 6.24414Z" fill="#4D6BFF"/>
<path d="M24.7031 5.54102C24.7031 5.1527 24.3883 4.83789 24 4.83789H23.9092C23.5209 4.83789 23.2061 5.1527 23.2061 5.54102C23.2061 5.92933 23.5209 6.24414 23.9092 6.24414H24C24.3883 6.24414 24.7031 5.92933 24.7031 5.54102Z" fill="#4D6BFF"/>
<path d="M9.08063 12.4746H5.44885C5.06054 12.4746 4.74573 12.7894 4.74573 13.1777C4.74573 13.566 5.06054 13.8809 5.44885 13.8809H9.08063C9.46895 13.8809 9.78376 13.566 9.78376 13.1777C9.78376 12.7894 9.46895 12.4746 9.08063 12.4746Z" fill="#4D6BFF"/>
<path d="M43.0506 32.9805H42.9597C42.5714 32.9805 42.2566 33.2953 42.2566 33.6836C42.2566 34.0719 42.5714 34.3867 42.9597 34.3867H43.0506C43.4389 34.3867 43.7537 34.0719 43.7537 33.6836C43.7537 33.2953 43.4389 32.9805 43.0506 32.9805Z" fill="#4D6BFF"/>
<path d="M19.0429 31.6574C19.2793 31.3493 19.2212 30.9079 18.9131 30.6715C16.8227 29.0672 15.6236 26.6353 15.6236 23.9995C15.6236 19.3693 19.3812 15.6023 24 15.6023C25.1471 15.6023 26.2584 15.8303 27.3029 16.2801C27.6593 16.4335 28.0732 16.2692 28.2268 15.9124C28.3805 15.5558 28.2157 15.1422 27.8591 14.9885C26.8528 14.5553 25.7941 14.2984 24.7031 14.2213V11.0361C27.4216 10.6887 29.5304 8.35779 29.5304 5.54098C29.5304 2.48539 27.0495 -0.000488281 24 -0.000488281C20.9505 -0.000488281 18.4696 2.48539 18.4697 5.54107C18.4697 8.35789 20.5785 10.6888 23.297 11.0362V14.2217C20.2255 14.4413 17.5418 16.0879 15.9042 18.5023L12.366 16.4548C12.6422 15.7962 12.7952 15.0734 12.7952 14.3153C12.7952 11.2597 10.3143 8.77386 7.26478 8.77386C4.21528 8.77386 1.73438 11.2597 1.73438 14.3153C1.73438 17.3709 4.21528 19.8568 7.26478 19.8568C9.05587 19.8568 10.6499 18.9986 11.6613 17.6718L15.2002 19.7196C14.5709 21.0136 14.2174 22.4659 14.2174 23.9995C14.2174 25.5142 14.5573 26.971 15.193 28.2835L11.6613 30.3274C10.6499 29.0005 9.05587 28.1423 7.26478 28.1423C4.21528 28.1423 1.73438 30.6282 1.73438 33.6838C1.73438 36.7394 4.21519 39.2253 7.26469 39.2253C10.3142 39.2253 12.7951 36.7394 12.7951 33.6838C12.7951 32.9257 12.6421 32.2029 12.3659 31.5442L15.8962 29.5013C16.4795 30.3604 17.2044 31.1329 18.057 31.7871C18.1847 31.8852 18.3352 31.9325 18.4846 31.9325C18.6956 31.9324 18.9044 31.8378 19.0429 31.6574ZM19.8758 5.54098C19.8758 3.26079 21.726 1.40576 24 1.40576C26.274 1.40576 28.1242 3.26089 28.1242 5.54098C28.1242 7.82107 26.274 9.6762 24 9.6762C21.726 9.6762 19.8758 7.82117 19.8758 5.54098ZM7.26478 18.4504C4.99069 18.4504 3.14062 16.5954 3.14062 14.3152C3.14062 12.035 4.99059 10.18 7.26469 10.18C9.53878 10.18 11.3888 12.035 11.3888 14.3152C11.3888 16.5954 9.53887 18.4504 7.26478 18.4504ZM7.26478 37.819C4.99069 37.819 3.14062 35.964 3.14062 33.6838C3.14062 31.4036 4.99059 29.5486 7.26469 29.5486C9.53878 29.5486 11.3888 31.4036 11.3888 33.6838C11.3888 35.964 9.53887 37.819 7.26478 37.819Z" fill="#4D6BFF"/>
<path d="M21.481 41.3208C21.481 41.7091 21.7958 42.0239 22.1841 42.0239H25.8159C26.2042 42.0239 26.519 41.7091 26.519 41.3208C26.519 40.9325 26.2042 40.6177 25.8159 40.6177H22.1841C21.7958 40.6177 21.481 40.9325 21.481 41.3208Z" fill="#4D6BFF"/>
<path d="M40.7353 32.9805H40.6444C40.2561 32.9805 39.9413 33.2953 39.9413 33.6836C39.9413 34.0719 40.2561 34.3867 40.6444 34.3867H40.7353C41.1236 34.3867 41.4384 34.0719 41.4384 33.6836C41.4384 33.2953 41.1236 32.9805 40.7353 32.9805Z" fill="#4D6BFF"/>
<path d="M40.7352 28.1425C38.9441 28.1425 37.3501 29.0007 36.3387 30.3275L32.7999 28.2796C33.4291 26.9856 33.7826 25.5333 33.7826 23.9997C33.7826 22.4948 33.4401 21.0358 32.8019 19.7186L36.3387 17.6719C37.3501 18.9987 38.9442 19.8569 40.7352 19.8569C43.7847 19.8569 46.2656 17.371 46.2656 14.3154C46.2656 11.2598 43.7847 8.77393 40.7352 8.77393C37.6857 8.77393 35.2048 11.2598 35.2048 14.3154C35.2048 15.0735 35.3578 15.7963 35.634 16.455L32.0995 18.5002C31.5925 17.7513 30.979 17.0679 30.2687 16.4731C29.9709 16.224 29.5276 16.2632 29.2782 16.5609C29.0289 16.8586 29.0682 17.3021 29.366 17.5514C31.2791 19.1532 32.3764 21.5035 32.3764 23.9996C32.3764 28.6295 28.6192 32.3964 24.0008 32.3968C24.0005 32.3968 24.0003 32.3968 24 32.3968C23.9997 32.3968 23.9995 32.3968 23.9994 32.3968C22.9278 32.3967 21.8846 32.1968 20.8988 31.8027C20.538 31.6584 20.1291 31.8339 19.9849 32.1945C19.8407 32.5551 20.0162 32.9642 20.3768 33.1084C21.3125 33.4826 22.292 33.7069 23.2969 33.7782V36.963C20.5784 37.3104 18.4696 39.6413 18.4696 42.4581C18.4696 45.5137 20.9505 47.9996 24 47.9996C27.0495 47.9996 29.5304 45.5137 29.5303 42.4581C29.5303 39.6413 27.4215 37.3104 24.703 36.963V33.7775C27.7744 33.5578 30.4582 31.9111 32.0958 29.4968L35.634 31.5443C35.3578 32.203 35.2048 32.9258 35.2048 33.6839C35.2048 36.7395 37.6857 39.2253 40.7352 39.2253C43.7847 39.2253 46.2656 36.7395 46.2656 33.6839C46.2656 30.6283 43.7847 28.1424 40.7352 28.1425ZM40.7353 10.1801C43.0094 10.1801 44.8595 12.0351 44.8595 14.3153C44.8595 16.5955 43.0094 18.4505 40.7353 18.4505C38.4612 18.4505 36.6112 16.5955 36.6112 14.3153C36.6112 12.0351 38.4612 10.1801 40.7353 10.1801ZM28.1242 42.4581C28.1242 44.7383 26.274 46.5933 24 46.5933C21.726 46.5933 19.8759 44.7382 19.8759 42.4581C19.8759 40.178 21.726 38.3229 24 38.3229C26.274 38.3229 28.1242 40.1779 28.1242 42.4581ZM40.7352 37.8191C38.4611 37.8191 36.6111 35.9641 36.6111 33.6839C36.6111 31.4037 38.4611 29.5486 40.7352 29.5486C43.0093 29.5486 44.8594 31.4037 44.8594 33.6839C44.8594 35.9641 43.0093 37.8191 40.7352 37.8191Z" fill="#4D6BFF"/>
<path d="M25.0896 42.8921H22.9105C22.5222 42.8921 22.2074 43.2069 22.2074 43.5952C22.2074 43.9835 22.5222 44.2983 22.9105 44.2983H25.0896C25.4779 44.2983 25.7927 43.9835 25.7927 43.5952C25.7927 43.2069 25.4779 42.8921 25.0896 42.8921Z" fill="#4D6BFF"/>
<path d="M38.5107 32.9805H38.4199C38.0316 32.9805 37.7168 33.2953 37.7168 33.6836C37.7168 34.0719 38.0316 34.3867 38.4199 34.3867H38.5107C38.899 34.3867 39.2138 34.0719 39.2138 33.6836C39.2138 33.2953 38.899 32.9805 38.5107 32.9805Z" fill="#4D6BFF"/>
<path d="M29.2428 23.9995C29.2428 23.6112 28.928 23.2964 28.5397 23.2964H19.4602C19.0719 23.2964 18.7571 23.6112 18.7571 23.9995C18.7571 24.3878 19.0719 24.7026 19.4602 24.7026H28.5397C28.928 24.7026 29.2428 24.3878 29.2428 23.9995Z" fill="#4D6BFF"/>
<path d="M21.2762 26.0264C20.8879 26.0264 20.5731 26.3412 20.5731 26.7295C20.5731 27.1178 20.8879 27.4326 21.2762 27.4326H26.7239C27.1122 27.4326 27.427 27.1178 27.427 26.7295C27.427 26.3412 27.1122 26.0264 26.7239 26.0264H21.2762Z" fill="#4D6BFF"/>
<path d="M38.9194 13.8809H42.5512C42.9395 13.8809 43.2543 13.566 43.2543 13.1777C43.2543 12.7894 42.9395 12.4746 42.5512 12.4746H38.9194C38.5311 12.4746 38.2163 12.7894 38.2163 13.1777C38.2163 13.566 38.5311 13.8809 38.9194 13.8809Z" fill="#4D6BFF"/>
<path d="M28.5397 20.5664H19.4602C19.0719 20.5664 18.7571 20.8812 18.7571 21.2695C18.7571 21.6578 19.0719 21.9727 19.4602 21.9727H28.5397C28.928 21.9727 29.2428 21.6578 29.2428 21.2695C29.2428 20.8812 28.928 20.5664 28.5397 20.5664Z" fill="#4D6BFF"/>
<path d="M41.8248 14.7495H39.6456C39.2573 14.7495 38.9425 15.0643 38.9425 15.4526C38.9425 15.8409 39.2573 16.1558 39.6456 16.1558H41.8248C42.2131 16.1558 42.5279 15.8409 42.5279 15.4526C42.5279 15.0643 42.2131 14.7495 41.8248 14.7495Z" fill="#4D6BFF"/>
</g>
</g>
<defs>
<clipPath id="clip0_6568_21839">
<rect y="-0.000488281" width="48" height="48" rx="8" fill="white"/>
</clipPath>
<clipPath id="clip1_6568_21839">
<rect width="48" height="48" fill="white" transform="translate(0 -0.000488281)"/>
</clipPath>
</defs>
</svg>
