<svg width="48" height="48" viewBox="0 0 48 48" fill="none" xmlns="http://www.w3.org/2000/svg">
<g clip-path="url(#clip0_6568_21828)">
<g clip-path="url(#clip1_6568_21828)">
<path d="M36.579 5.50815C36.4622 5.40782 36.319 5.34312 36.1664 5.32175C36.0139 5.30038 35.8584 5.32323 35.7185 5.38759C35.5786 5.45195 35.46 5.55511 35.377 5.68483C35.2939 5.81455 35.2499 5.96538 35.25 6.1194V7.90516C33.0017 8.09611 30.9069 9.12343 29.3794 10.7841C27.8518 12.4448 27.0028 14.618 27 16.8744V18.9684C26.9991 19.168 27.0724 19.3609 27.2058 19.5095C27.3391 19.6581 27.5229 19.7518 27.7215 19.7725C27.92 19.7932 28.1192 19.7393 28.2803 19.6213C28.4413 19.5033 28.5528 19.3297 28.593 19.1342C28.93 17.5634 29.7556 16.1396 30.9514 15.0667C32.1473 13.9939 33.652 13.3271 35.25 13.1619V14.8794C35.2499 15.0334 35.2939 15.1843 35.377 15.314C35.46 15.4437 35.5786 15.5469 35.7185 15.6112C35.8584 15.6756 36.0139 15.6984 36.1664 15.6771C36.319 15.6557 36.4622 15.591 36.579 15.4907L41.6888 11.1107C41.777 11.0351 41.8478 10.9414 41.8964 10.8358C41.9449 10.7303 41.9701 10.6156 41.9701 10.4994C41.9701 10.3833 41.9449 10.2685 41.8964 10.163C41.8478 10.0575 41.777 9.9637 41.6888 9.88815L36.579 5.50815ZM36.75 13.3689V12.3744C36.75 12.1755 36.671 11.9847 36.5303 11.8441C36.3897 11.7034 36.1989 11.6244 36 11.6244C34.5633 11.6291 33.1481 11.9735 31.8699 12.6295C30.5918 13.2855 29.4869 14.2346 28.6455 15.3992C28.9887 13.7009 29.9083 12.1734 31.2486 11.0755C32.5888 9.97753 34.2674 9.37658 36 9.3744C36.1989 9.3744 36.3897 9.29539 36.5303 9.15473C36.671 9.01408 36.75 8.82332 36.75 8.6244V7.6299L40.098 10.4994L36.75 13.3689Z" fill="#4D6BFF"/>
<path d="M42 0.749512H6C5.00544 0.749512 4.05161 1.1446 3.34835 1.84786C2.64509 2.55112 2.25 3.50495 2.25 4.49951V20.9995C2.25 21.9941 2.64509 22.9479 3.34835 23.6512C4.05161 24.3544 5.00544 24.7495 6 24.7495H12.75V26.3875C12.5098 26.2987 12.2561 26.252 12 26.2495C11.0058 26.2507 10.0527 26.6462 9.34966 27.3492C8.64666 28.0522 8.25119 29.0053 8.25 29.9995V38.2495C8.25304 39.4653 8.52334 40.6655 9.04177 41.7653C9.56019 42.865 10.3141 43.8373 11.25 44.6133V46.4995C11.25 46.6984 11.329 46.8892 11.4697 47.0298C11.6103 47.1705 11.8011 47.2495 12 47.2495H28.5C28.6989 47.2495 28.8897 47.1705 29.0303 47.0298C29.171 46.8892 29.25 46.6984 29.25 46.4995V44.6133C30.1859 43.8373 30.9398 42.865 31.4582 41.7653C31.9767 40.6655 32.247 39.4653 32.25 38.2495V25.4995C32.2468 25.246 32.211 24.9939 32.1435 24.7495H35.0003L40.8 29.0995C40.9114 29.1831 41.0439 29.234 41.1826 29.2465C41.3214 29.259 41.4608 29.2326 41.5854 29.1703C41.71 29.108 41.8148 29.0123 41.888 28.8938C41.9612 28.7753 42 28.6388 42 28.4995V24.7495C42.9942 24.7483 43.9473 24.3529 44.6503 23.6498C45.3533 22.9468 45.7488 21.9937 45.75 20.9995V4.49951C45.75 4.00705 45.653 3.51942 45.4645 3.06445C45.2761 2.60948 44.9999 2.19608 44.6516 1.84786C44.3034 1.49964 43.89 1.22342 43.4351 1.03496C42.9801 0.846508 42.4925 0.749512 42 0.749512ZM30.75 38.2495C30.7475 39.297 30.5024 40.3296 30.034 41.2665C29.5656 42.2034 28.8865 43.019 28.05 43.6495C27.9569 43.7194 27.8813 43.81 27.8292 43.9141C27.7771 44.0182 27.75 44.1331 27.75 44.2495V45.7495H12.75V44.2495C12.75 44.1331 12.7229 44.0182 12.6708 43.9141C12.6187 43.81 12.5431 43.7194 12.45 43.6495C11.6135 43.019 10.9344 42.2034 10.466 41.2665C9.99756 40.3296 9.75249 39.297 9.75 38.2495V29.9995C9.75 29.4028 9.98705 28.8305 10.409 28.4085C10.831 27.9866 11.4033 27.7495 12 27.7495C12.1989 27.7495 12.3897 27.8285 12.5303 27.9692C12.671 28.1098 12.75 28.3006 12.75 28.4995V35.2495C12.75 35.4484 12.829 35.6392 12.9697 35.7798C13.1103 35.9205 13.3011 35.9995 13.5 35.9995C13.6989 35.9995 13.8897 35.9205 14.0303 35.7798C14.171 35.6392 14.25 35.4484 14.25 35.2495V15.7495C14.25 15.3517 14.408 14.9702 14.6893 14.6889C14.9706 14.4075 15.3522 14.2495 15.75 14.2495C16.1478 14.2495 16.5294 14.4075 16.8107 14.6889C17.092 14.9702 17.25 15.3517 17.25 15.7495V29.9995C17.25 30.1984 17.329 30.3892 17.4697 30.5298C17.6103 30.6705 17.8011 30.7495 18 30.7495C18.1989 30.7495 18.3897 30.6705 18.5303 30.5298C18.671 30.3892 18.75 30.1984 18.75 29.9995V23.2495C18.75 22.8517 18.908 22.4702 19.1893 22.1889C19.4706 21.9075 19.8522 21.7495 20.25 21.7495C20.6478 21.7495 21.0294 21.9075 21.3107 22.1889C21.592 22.4702 21.75 22.8517 21.75 23.2495V29.9995C21.75 30.1984 21.829 30.3892 21.9697 30.5298C22.1103 30.6705 22.3011 30.7495 22.5 30.7495C22.6989 30.7495 22.8897 30.6705 23.0303 30.5298C23.171 30.3892 23.25 30.1984 23.25 29.9995V23.9995C23.25 23.6017 23.408 23.2202 23.6893 22.9389C23.9706 22.6575 24.3522 22.4995 24.75 22.4995C25.1478 22.4995 25.5294 22.6575 25.8107 22.9389C26.092 23.2202 26.25 23.6017 26.25 23.9995V29.9995C26.25 30.1984 26.329 30.3892 26.4697 30.5298C26.6103 30.6705 26.8011 30.7495 27 30.7495C27.1989 30.7495 27.3897 30.6705 27.5303 30.5298C27.671 30.3892 27.75 30.1984 27.75 29.9995V25.4995C27.75 25.1017 27.908 24.7202 28.1893 24.4389C28.4706 24.1575 28.8522 23.9995 29.25 23.9995C29.6478 23.9995 30.0294 24.1575 30.3107 24.4389C30.592 24.7202 30.75 25.1017 30.75 25.4995V38.2495ZM15.75 12.7495C14.9544 12.7495 14.1913 13.0656 13.6287 13.6282C13.0661 14.1908 12.75 14.9539 12.75 15.7495V17.5758C10.404 15.7863 7.5 13.0008 7.5 10.1778C7.49598 9.28363 7.76612 8.40974 8.27404 7.67386C8.78196 6.93799 9.50323 6.37548 10.3407 6.06214C11.1781 5.74881 12.0915 5.6997 12.9577 5.92143C13.8239 6.14317 14.6014 6.62509 15.1852 7.30226C15.2578 7.37931 15.3453 7.44071 15.4424 7.48268C15.5395 7.52464 15.6442 7.54629 15.75 7.54629C15.8558 7.54629 15.9605 7.52464 16.0576 7.48268C16.1547 7.44071 16.2422 7.37931 16.3148 7.30226C16.8986 6.62509 17.6761 6.14317 18.5423 5.92143C19.4085 5.6997 20.3219 5.74881 21.1593 6.06214C21.9968 6.37548 22.718 6.93799 23.226 7.67386C23.7339 8.40974 24.004 9.28363 24 10.1778C24 13.0023 21.096 15.7863 18.75 17.5758V15.7495C18.75 14.9539 18.4339 14.1908 17.8713 13.6282C17.3087 13.0656 16.5456 12.7495 15.75 12.7495ZM44.25 20.9995C44.25 21.5962 44.0129 22.1685 43.591 22.5905C43.169 23.0125 42.5967 23.2495 42 23.2495H41.25C41.0511 23.2495 40.8603 23.3285 40.7197 23.4692C40.579 23.6098 40.5 23.8006 40.5 23.9995V26.9995L35.7 23.3995C35.5702 23.3021 35.4123 23.2495 35.25 23.2495H31.2135C30.7193 22.81 30.0925 22.5482 29.4325 22.5056C28.7725 22.4631 28.1172 22.6423 27.5708 23.0148C27.4147 22.554 27.1477 22.1387 26.7934 21.8054C26.439 21.4721 26.0082 21.231 25.5387 21.1034C25.0693 20.9758 24.5757 20.9656 24.1013 21.0737C23.627 21.1818 23.1866 21.4049 22.8187 21.7233C22.6229 21.3848 22.3617 21.0885 22.0504 20.8518C21.7391 20.6151 21.3839 20.4425 21.0053 20.3442C20.6268 20.2459 20.2325 20.2238 19.8453 20.2791C19.4582 20.3344 19.0858 20.4661 18.75 20.6665V19.4365C21.906 17.206 25.5 13.8603 25.5 10.1778C25.5038 9.04672 25.1807 7.93867 24.5697 6.98688C23.9587 6.03508 23.0857 5.28006 22.0558 4.81263C21.0259 4.34519 19.8828 4.18525 18.7642 4.35204C17.6455 4.51882 16.5988 5.00523 15.75 5.75276C14.9012 5.00523 13.8545 4.51882 12.7358 4.35204C11.6172 4.18525 10.4741 4.34519 9.44419 4.81263C8.41425 5.28006 7.54128 6.03508 6.93027 6.98688C6.31925 7.93867 5.99621 9.04672 6 10.1778C6 13.8603 9.594 17.206 12.75 19.4365V23.2495H6C5.40326 23.2495 4.83097 23.0125 4.40901 22.5905C3.98705 22.1685 3.75 21.5962 3.75 20.9995V4.49951C3.75 3.90277 3.98705 3.33048 4.40901 2.90852C4.83097 2.48656 5.40326 2.24951 6 2.24951H42C42.5967 2.24951 43.169 2.48656 43.591 2.90852C44.0129 3.33048 44.25 3.90277 44.25 4.49951V20.9995Z" fill="#4D6BFF"/>
</g>
</g>
<defs>
<clipPath id="clip0_6568_21828">
<rect y="-0.000488281" width="48" height="48" rx="8" fill="white"/>
</clipPath>
<clipPath id="clip1_6568_21828">
<rect width="48" height="48" fill="white" transform="translate(0 -0.000488281)"/>
</clipPath>
</defs>
</svg>
