<svg width="48" height="48" viewBox="0 0 48 48" fill="none" xmlns="http://www.w3.org/2000/svg">
<path d="M42.75 1.49951H29.25C28.2558 1.5007 27.3027 1.89617 26.5997 2.59918C25.8967 3.30218 25.5012 4.25532 25.5 5.24951V17.2495H22.5V16.4995H21V17.2495H18.75C17.7558 17.2507 16.8027 17.6462 16.0997 18.3492C15.3967 19.0522 15.0012 20.0053 15 20.9995H14.3355V22.4995H15V25.4995H4.5V46.4995H43.5V25.4995H36V22.4995H42.75C43.7442 22.4983 44.6973 22.1029 45.4003 21.3998C46.1033 20.6968 46.4988 19.7437 46.5 18.7495V5.24951C46.4988 4.25532 46.1033 3.30218 45.4003 2.59918C44.6973 1.89617 43.7442 1.5007 42.75 1.49951ZM18.75 18.7495H32.25C32.8467 18.7495 33.419 18.9866 33.841 19.4085C34.2629 19.8305 34.5 20.4028 34.5 20.9995V26.689L30.75 22.939L23.25 30.439L19.5 26.689L16.5 29.689V20.9995C16.5 20.4028 16.7371 19.8305 17.159 19.4085C17.581 18.9866 18.1533 18.7495 18.75 18.7495ZM26.25 32.9995H25.8105L24.3105 31.4995L30.75 25.06L34.5 28.81V34.4995C34.5 35.0962 34.2629 35.6685 33.841 36.0905C33.419 36.5125 32.8467 36.7495 32.25 36.7495H30C29.9988 35.7553 29.6033 34.8022 28.9003 34.0992C28.1973 33.3962 27.2442 33.0007 26.25 32.9995ZM21 38.9995C20.8011 38.9995 20.6103 38.9205 20.4697 38.7798C20.329 38.6392 20.25 38.4484 20.25 38.2495C20.25 38.0506 20.329 37.8598 20.4697 37.7192C20.6103 37.5785 20.8011 37.4995 21 37.4995H22.5V36.7495C22.5 36.1528 22.7371 35.5805 23.159 35.1585C23.581 34.7366 24.1533 34.4995 24.75 34.4995H26.25C26.8467 34.4995 27.419 34.7366 27.841 35.1585C28.2629 35.5805 28.5 36.1528 28.5 36.7495V41.2495C28.5 41.4484 28.421 41.6392 28.2803 41.7798C28.1397 41.9205 27.9489 41.9995 27.75 41.9995H23.25C23.0511 41.9995 22.8603 41.9205 22.7197 41.7798C22.579 41.6392 22.5 41.4484 22.5 41.2495V38.9995H21ZM19.335 36.7495H18.75C18.1533 36.7495 17.581 36.5125 17.159 36.0905C16.7371 35.6685 16.5 35.0962 16.5 34.4995V31.81L19.5 28.81L23.82 33.1308C23.1398 33.3041 22.5219 33.6649 22.0367 34.172C21.5514 34.6792 21.2182 35.3124 21.075 35.9995H21C20.6854 36.0005 20.3744 36.0678 20.0876 36.197C19.8007 36.3263 19.5442 36.5145 19.335 36.7495ZM6 26.9995H15V29.9995H6V26.9995ZM42 44.9995H6V31.4995H15V34.4995C15.0012 35.4937 15.3967 36.4468 16.0997 37.1498C16.8027 37.8528 17.7558 38.2483 18.75 38.2495C18.75 38.8462 18.9871 39.4185 19.409 39.8405C19.831 40.2625 20.4033 40.4995 21 40.4995V41.2495C21 41.8462 21.2371 42.4185 21.659 42.8405C22.081 43.2625 22.6533 43.4995 23.25 43.4995H27.75C28.3467 43.4995 28.919 43.2625 29.341 42.8405C29.7629 42.4185 30 41.8462 30 41.2495V38.2495H32.25C33.2442 38.2483 34.1973 37.8528 34.9003 37.1498C35.6033 36.4468 35.9988 35.4937 36 34.4995V31.4995H42V44.9995ZM42 26.9995V29.9995H36V26.9995H42ZM45 18.7495C45 19.3462 44.7629 19.9185 44.341 20.3405C43.919 20.7625 43.3467 20.9995 42.75 20.9995H36C35.9995 20.4828 35.8912 19.9719 35.682 19.4995H38.25V17.9995H36.75V5.99951H40.5V7.49951H42V4.49951H30V7.49951H31.5V5.99951H35.25V17.9995H34.4768C33.8352 17.5151 33.0539 17.2519 32.25 17.2495H27V5.24951C27 4.65277 27.2371 4.08048 27.659 3.65852C28.081 3.23656 28.6533 2.99951 29.25 2.99951H42.75C43.3467 2.99951 43.919 3.23656 44.341 3.65852C44.7629 4.08048 45 4.65277 45 5.24951V18.7495Z" fill="#4D6BFF"/>
<path d="M6.9675 27.967C6.83058 28.1108 6.75291 28.3009 6.75 28.4995C6.75148 28.6983 6.82935 28.889 6.9675 29.032C7.11131 29.1689 7.30145 29.2466 7.5 29.2495C7.5503 29.2482 7.60044 29.2432 7.65 29.2345C7.697 29.2263 7.7425 29.2111 7.785 29.1895C7.8311 29.1746 7.87424 29.1517 7.9125 29.122C7.9575 29.092 7.995 29.062 8.0325 29.032C8.17065 28.889 8.24852 28.6983 8.25 28.4995C8.25087 28.3505 8.20735 28.2047 8.125 28.0805C8.04265 27.9564 7.92519 27.8596 7.78761 27.8025C7.65003 27.7453 7.49855 27.7305 7.35249 27.7598C7.20643 27.7891 7.0724 27.8612 6.9675 27.967Z" fill="#4D6BFF"/>
<path d="M9.465 27.8096C9.37415 27.8477 9.29045 27.9009 9.2175 27.9671C9.08058 28.1109 9.00291 28.3011 9 28.4996C9.00148 28.6985 9.07935 28.8891 9.2175 29.0321C9.29045 29.0983 9.37415 29.1516 9.465 29.1896C9.55399 29.2317 9.65161 29.2522 9.75 29.2496C9.94855 29.2467 10.1387 29.169 10.2825 29.0321C10.4206 28.8891 10.4985 28.6985 10.5 28.4996C10.4971 28.3011 10.4194 28.1109 10.2825 27.9671C10.177 27.863 10.0431 27.7926 9.89761 27.7645C9.75212 27.7365 9.60158 27.7522 9.465 27.8096Z" fill="#4D6BFF"/>
<path d="M12.5325 27.967C12.4276 27.8612 12.2936 27.7891 12.1475 27.7598C12.0015 27.7305 11.85 27.7453 11.7124 27.8025C11.5748 27.8596 11.4574 27.9564 11.375 28.0805C11.2927 28.2047 11.2491 28.3505 11.25 28.4995C11.2515 28.6983 11.3294 28.889 11.4675 29.032C11.6097 29.1714 11.8009 29.2495 12 29.2495C12.1991 29.2495 12.3903 29.1714 12.5325 29.032C12.5648 28.9963 12.5948 28.9588 12.6225 28.9195C12.6509 28.8777 12.6736 28.8323 12.69 28.7845C12.7117 28.742 12.7268 28.6965 12.735 28.6495C12.7437 28.5999 12.7487 28.5498 12.75 28.4995C12.7471 28.3009 12.6694 28.1108 12.5325 27.967Z" fill="#4D6BFF"/>
<path d="M20.25 24.7495C20.695 24.7495 21.13 24.6176 21.5 24.3703C21.87 24.1231 22.1584 23.7717 22.3287 23.3606C22.499 22.9494 22.5436 22.497 22.4568 22.0606C22.37 21.6241 22.1557 21.2232 21.841 20.9085C21.5263 20.5939 21.1254 20.3796 20.689 20.2927C20.2525 20.2059 19.8001 20.2505 19.389 20.4208C18.9778 20.5911 18.6264 20.8795 18.3792 21.2495C18.132 21.6195 18 22.0545 18 22.4995C18 23.0963 18.2371 23.6685 18.659 24.0905C19.081 24.5125 19.6533 24.7495 20.25 24.7495ZM20.25 21.7495C20.3983 21.7495 20.5433 21.7935 20.6667 21.8759C20.79 21.9583 20.8861 22.0755 20.9429 22.2125C20.9997 22.3495 21.0145 22.5003 20.9856 22.6458C20.9567 22.7913 20.8852 22.925 20.7803 23.0298C20.6754 23.1347 20.5418 23.2062 20.3963 23.2351C20.2508 23.264 20.1 23.2492 19.963 23.1924C19.8259 23.1357 19.7088 23.0395 19.6264 22.9162C19.544 22.7929 19.5 22.6478 19.5 22.4995C19.5 22.3006 19.579 22.1098 19.7197 21.9692C19.8603 21.8285 20.0511 21.7495 20.25 21.7495Z" fill="#4D6BFF"/>
<path d="M18.75 1.49951H16.4745V2.99951H18.7845L18.75 1.49951Z" fill="#4D6BFF"/>
<path d="M20.316 3.63413C20.7307 4.03397 20.9756 4.57807 21 5.15363L22.5 5.09063C22.46 4.13092 22.0517 3.22354 21.36 2.55713L20.316 3.63413Z" fill="#4D6BFF"/>
<path d="M12.0593 20.9995H9.78375V22.4995H12.0593V20.9995Z" fill="#4D6BFF"/>
<path d="M3 5.24072L1.5 5.24972V7.51622H3V5.24072Z" fill="#4D6BFF"/>
<path d="M14.1982 1.49951H11.9227V2.99951H14.1982V1.49951Z" fill="#4D6BFF"/>
<path d="M9.64726 1.49951H7.37177V2.99951H9.64726V1.49951Z" fill="#4D6BFF"/>
<path d="M22.5 7.39746H21V9.67296H22.5V7.39746Z" fill="#4D6BFF"/>
<path d="M22.5 11.9487H21V14.2242H22.5V11.9487Z" fill="#4D6BFF"/>
<path d="M5.05797 1.50488C4.09928 1.55179 3.1956 1.96656 2.53497 2.66288L3.62097 3.69713C4.01673 3.2787 4.55853 3.02889 5.13372 2.99963L5.05797 1.50488Z" fill="#4D6BFF"/>
<path d="M5.23273 20.9995L5.24998 22.4995H7.50823V20.9995L5.29648 21.001L5.23273 20.9995Z" fill="#4D6BFF"/>
<path d="M1.50452 18.9301C1.549 19.8891 1.96131 20.7941 2.65577 21.4569L3.69377 20.3739C3.276 19.9771 3.02749 19.4344 3.00002 18.8589L1.50452 18.9301Z" fill="#4D6BFF"/>
<path d="M3 14.3433H1.5V16.6188H3V14.3433Z" fill="#4D6BFF"/>
<path d="M3 9.79248H1.5V12.0687H3V9.79248Z" fill="#4D6BFF"/>
</svg>
