<svg width="48" height="48" viewBox="0 0 48 48" fill="none" xmlns="http://www.w3.org/2000/svg">
<g clip-path="url(#clip0_6568_21894)">
<path d="M7.57092 5.31592C6.42183 5.31592 5.47638 6.2541 5.47638 7.41046C5.47638 8.56683 6.41456 9.50501 7.57092 9.50501C8.72729 9.50501 9.66547 8.56683 9.66547 7.41046C9.66547 6.2541 8.72002 5.31592 7.57092 5.31592ZM7.57092 8.22501C7.12002 8.22501 6.74911 7.86137 6.74911 7.40319C6.74911 6.94501 7.11274 6.58137 7.57092 6.58137C8.02911 6.58137 8.39274 6.94501 8.39274 7.40319C8.39274 7.86137 8.02183 8.22501 7.57092 8.22501Z" fill="#4D6BFF"/>
<path d="M12.9091 5.31592C11.76 5.31592 10.8146 6.2541 10.8146 7.41046C10.8146 8.56683 11.7528 9.50501 12.9091 9.50501C14.0655 9.50501 15.0037 8.56683 15.0037 7.41046C15.0037 6.2541 14.0655 5.31592 12.9091 5.31592ZM12.9091 8.22501C12.4582 8.22501 12.0873 7.86137 12.0873 7.40319C12.0873 6.94501 12.4509 6.58137 12.9091 6.58137C13.3673 6.58137 13.7309 6.94501 13.7309 7.40319C13.7309 7.86137 13.36 8.22501 12.9091 8.22501Z" fill="#4D6BFF"/>
<path d="M18.2545 5.31592C17.1054 5.31592 16.16 6.2541 16.16 7.41046C16.16 8.56683 17.0982 9.50501 18.2545 9.50501C19.4109 9.50501 20.3491 8.56683 20.3491 7.41046C20.3491 6.2541 19.4036 5.31592 18.2545 5.31592ZM18.2545 8.22501C17.8036 8.22501 17.4327 7.86137 17.4327 7.40319C17.4327 6.94501 17.7963 6.58137 18.2545 6.58137C18.7127 6.58137 19.0763 6.94501 19.0763 7.40319C19.0763 7.86137 18.7054 8.22501 18.2545 8.22501Z" fill="#4D6BFF"/>
<path d="M30.0945 20.8579C28.1309 20.8579 26.2836 21.6215 24.8945 23.0106C23.5055 24.3997 22.7418 26.247 22.7418 28.2106C22.7418 28.5597 23.0255 28.8506 23.3818 28.8506C23.7382 28.8506 24.0218 28.567 24.0218 28.2106C24.0218 26.5888 24.6545 25.0615 25.8036 23.9125C26.9527 22.7634 28.48 22.1306 30.1018 22.1306C30.4509 22.1306 30.7418 21.847 30.7418 21.4906C30.7273 21.1415 30.4436 20.8579 30.0945 20.8579Z" fill="#4D6BFF"/>
<path d="M46.24 39.8835L40.8873 34.5308C40.64 34.2835 40.2327 34.2835 39.9855 34.5308L39.5564 34.9599L38.5673 33.9708C41.2873 29.978 40.88 24.4871 37.3455 20.9453C33.3455 16.9453 26.8364 16.9453 22.8364 20.9453C22.2909 21.4908 21.8327 22.0799 21.4327 22.7053H8.06547C6.17456 22.7053 4.64001 24.2399 4.64001 26.1308C4.64001 28.0217 6.17456 29.5562 8.06547 29.5562H19.9418C20.2255 31.7162 21.1855 33.7962 22.8437 35.4544C24.8437 37.4544 27.4691 38.4508 30.0946 38.4508C32.1164 38.4508 34.1309 37.8544 35.8618 36.6762L36.8509 37.6653L36.4218 38.0944C36.1746 38.3417 36.1746 38.7489 36.4218 38.9962L41.7746 44.3489C42.3927 44.9671 43.2 45.2726 44.0073 45.2726C44.8146 45.2726 45.6291 44.9671 46.24 44.3489C46.8364 43.7526 47.1637 42.9599 47.1637 42.1162C47.1637 41.2726 46.8364 40.4799 46.24 39.8835ZM8.06547 28.2908C6.88001 28.2908 5.91274 27.3235 5.91274 26.138C5.91274 24.9526 6.88001 23.9853 8.06547 23.9853H20.7564C20.1382 25.3526 19.8327 26.8217 19.84 28.2908H8.06547ZM23.7382 34.5599C22.0436 32.8653 21.1055 30.6035 21.1055 28.2035C21.1055 25.8035 22.0436 23.549 23.7382 21.8471C25.4327 20.1526 27.6946 19.2144 30.0946 19.2144C32.4946 19.2144 34.7491 20.1526 36.4509 21.8471C38.1455 23.5417 39.0837 25.8035 39.0837 28.2035C39.0837 30.6035 38.1455 32.858 36.4509 34.5599C34.7564 36.2544 32.4946 37.1926 30.0946 37.1926C27.6946 37.1926 25.4327 36.2544 23.7382 34.5599ZM36.8727 35.8908C37.0327 35.7526 37.1927 35.6144 37.3455 35.4617C37.4982 35.3089 37.6364 35.149 37.7746 34.989L38.6546 35.8689L37.7455 36.778L36.8727 35.8908ZM45.3455 43.4544C44.6109 44.1889 43.4109 44.1889 42.6764 43.4544L37.7673 38.5526L38.1964 38.1235L40 36.3199L40.4291 35.8908L45.3309 40.7999C46.08 41.5199 46.08 42.7199 45.3455 43.4544Z" fill="#4D6BFF"/>
<path d="M11.0763 25.498H9.02544C8.67635 25.498 8.38544 25.7817 8.38544 26.138C8.38544 26.4944 8.66907 26.778 9.02544 26.778H11.0763C11.4254 26.778 11.7163 26.4944 11.7163 26.138C11.7163 25.7817 11.4254 25.498 11.0763 25.498Z" fill="#4D6BFF"/>
<path d="M15.5855 25.498H13.5273C13.1782 25.498 12.8873 25.7817 12.8873 26.138C12.8873 26.4944 13.1709 26.778 13.5273 26.778H15.5782C15.9273 26.778 16.2182 26.4944 16.2182 26.138C16.2182 25.7817 15.9345 25.498 15.5855 25.498Z" fill="#4D6BFF"/>
<path d="M5.24364 38.6616C4.89455 38.6616 4.60364 38.9453 4.60364 39.3016C4.60364 39.658 4.88727 39.9416 5.24364 39.9416H11.9345C12.2836 39.9416 12.5745 39.658 12.5745 39.3016C12.5745 38.9453 12.2909 38.6616 11.9345 38.6616H5.24364Z" fill="#4D6BFF"/>
<path d="M17.7891 36.3924C17.7891 36.0434 17.5055 35.7524 17.1491 35.7524H5.24364C4.89455 35.7524 4.60364 36.0361 4.60364 36.3924C4.60364 36.7488 4.88727 37.0324 5.24364 37.0324H17.1491C17.4982 37.0252 17.7891 36.7415 17.7891 36.3924Z" fill="#4D6BFF"/>
<path d="M17.1491 32.8433H5.24364C4.89455 32.8433 4.60364 33.1269 4.60364 33.4833C4.60364 33.8396 4.88727 34.1233 5.24364 34.1233H17.1491C17.4982 34.1233 17.7891 33.8396 17.7891 33.4833C17.7891 33.1269 17.4982 32.8433 17.1491 32.8433Z" fill="#4D6BFF"/>
<path d="M37.1418 42.2979H4.51636C3.18546 42.2979 2.10909 41.2143 2.10909 39.8906V12.0943H43.4618V34.5234C43.4618 34.8725 43.7455 35.1634 44.1018 35.1634C44.4582 35.1634 44.7418 34.8797 44.7418 34.5234V11.4615V6.39973C44.7418 4.37064 43.0909 2.71973 41.0618 2.71973H4.51636C2.48727 2.71973 0.836365 4.37064 0.836365 6.39973V11.4615V39.8906C0.836365 41.9197 2.48727 43.5706 4.51636 43.5706H37.1418C37.4909 43.5706 37.7818 43.287 37.7818 42.9306C37.7818 42.5743 37.4909 42.2979 37.1418 42.2979ZM2.10909 6.39973C2.10909 5.06882 3.19273 3.99245 4.51636 3.99245H41.0545C42.3855 3.99245 43.4618 5.07609 43.4618 6.39973V10.8215H2.10909V6.39973Z" fill="#4D6BFF"/>
</g>
<defs>
<clipPath id="clip0_6568_21894">
<rect y="-0.000488281" width="48" height="48" rx="8" fill="white"/>
</clipPath>
</defs>
</svg>
