<svg width="48" height="48" viewBox="0 0 48 48" fill="none" xmlns="http://www.w3.org/2000/svg">
<g clip-path="url(#clip0_1605_984)">
<g clip-path="url(#clip1_1605_984)">
<path d="M24 9.74951C16.13 9.75045 9.75083 16.1313 9.75177 24.0013C9.7528 31.8713 16.1335 38.2505 24.0036 38.2495C26.9676 38.2491 29.8579 37.3245 32.2717 35.6043C32.6089 35.3636 32.6871 34.8951 32.4465 34.558C32.2058 34.2209 31.7374 34.1426 31.4002 34.3833C29.45 35.7773 27.1435 36.5881 24.75 36.721V11.2878C31.4812 11.687 36.7388 17.2564 36.75 23.9995C36.7599 26.8572 35.7996 29.6337 34.026 31.8745C33.7692 32.2001 33.8249 32.6722 34.1505 32.929C34.4761 33.1858 34.9482 33.1301 35.205 32.8045C37.1879 30.299 38.2615 27.1947 38.25 23.9995C38.2413 16.133 31.8665 9.75823 24 9.74951ZM23.25 36.7113C19.4514 36.4874 15.9524 34.5754 13.7122 31.4995H23.25V36.7113ZM23.25 29.9995H12.756C11.8911 28.3769 11.3902 26.5853 11.2882 24.7495H23.25V29.9995ZM23.25 23.2495H11.2882C11.3902 21.4137 11.8911 19.6221 12.756 17.9995H23.25V23.2495ZM23.25 16.4995H13.7122C15.9524 13.4237 19.4514 11.5116 23.25 11.2878V16.4995Z" fill="#4D6BFF"/>
<path d="M6.75 23.9995C6.75 23.5853 6.41419 23.2495 6 23.2495H0.75C0.335812 23.2495 0 23.5853 0 23.9995C0 24.4137 0.335812 24.7495 0.75 24.7495H6C6.41419 24.7495 6.75 24.4137 6.75 23.9995Z" fill="#4D6BFF"/>
<path d="M47.25 23.2495H42C41.5858 23.2495 41.25 23.5853 41.25 23.9995C41.25 24.4137 41.5858 24.7495 42 24.7495H47.25C47.6642 24.7495 48 24.4137 48 23.9995C48 23.5853 47.6642 23.2495 47.25 23.2495Z" fill="#4D6BFF"/>
<path d="M24 6.74951C24.4142 6.74951 24.75 6.4137 24.75 5.99951V0.749512C24.75 0.335324 24.4142 -0.000488281 24 -0.000488281C23.5858 -0.000488281 23.25 0.335324 23.25 0.749512V5.99951C23.25 6.4137 23.5858 6.74951 24 6.74951Z" fill="#4D6BFF"/>
<path d="M24 41.2495C23.5858 41.2495 23.25 41.5853 23.25 41.9995V47.2495C23.25 47.6637 23.5858 47.9995 24 47.9995C24.4142 47.9995 24.75 47.6637 24.75 47.2495V41.9995C24.75 41.5853 24.4142 41.2495 24 41.2495Z" fill="#4D6BFF"/>
<path d="M10.7415 11.8016C11.0394 12.0893 11.5143 12.081 11.802 11.7831C12.0827 11.4925 12.0827 11.0317 11.802 10.7411L7.55999 6.49908C7.26205 6.21136 6.78721 6.21961 6.49949 6.51754C6.2188 6.80817 6.2188 7.26895 6.49949 7.55957L10.7415 11.8016Z" fill="#4D6BFF"/>
<path d="M37.2585 36.1974C36.9606 35.9096 36.4858 35.9178 36.198 36.2158C35.9172 36.5064 35.9172 36.9673 36.198 37.2579L40.44 41.4999C40.7379 41.7877 41.2127 41.7795 41.5005 41.4815C41.7813 41.1909 41.7813 40.73 41.5005 40.4394L37.2585 36.1974Z" fill="#4D6BFF"/>
<path d="M36.7282 12.0213C36.9272 12.0213 37.1179 11.9422 37.2585 11.8016L41.5005 7.55959C41.7882 7.26165 41.78 6.78681 41.482 6.49909C41.1914 6.2184 40.7306 6.2184 40.44 6.49909L36.198 10.7411C35.9051 11.0341 35.9052 11.5089 36.1982 11.8018C36.3388 11.9423 36.5294 12.0213 36.7282 12.0213Z" fill="#4D6BFF"/>
<path d="M10.7415 36.1973L6.4995 40.4393C6.20156 40.727 6.19331 41.2019 6.48112 41.4998C6.76884 41.7978 7.24368 41.806 7.54162 41.5182C7.5479 41.5122 7.554 41.506 7.56 41.4998L11.802 37.2578C12.0898 36.9599 12.0816 36.4851 11.7836 36.1973C11.4929 35.9166 11.0321 35.9166 10.7415 36.1973Z" fill="#4D6BFF"/>
</g>
</g>
<defs>
<clipPath id="clip0_1605_984">
<rect y="-0.000488281" width="48" height="48" rx="8" fill="white"/>
</clipPath>
<clipPath id="clip1_1605_984">
<rect width="48" height="48" fill="white" transform="translate(0 -0.000488281)"/>
</clipPath>
</defs>
</svg>
