<svg width="56" height="56" viewBox="0 0 56 56" fill="none" xmlns="http://www.w3.org/2000/svg">
<path d="M40.84 41.3197C41.1091 39.8802 41.018 38.3965 40.5749 37.0007C40.1317 35.6049 39.3502 34.3403 38.3 33.3197L37 31.9997L38.3 30.6997C39.3502 29.6791 40.1317 28.4146 40.5749 27.0188C41.018 25.623 41.1091 24.1392 40.84 22.6997C41.8246 22.3911 42.713 21.8337 43.4194 21.0814C44.1257 20.3292 44.6261 19.4075 44.8722 18.4054C45.1183 17.4033 45.1018 16.3546 44.8243 15.3608C44.5467 14.3669 44.0176 13.4614 43.288 12.7318C42.5583 12.0021 41.6528 11.473 40.6589 11.1955C39.6651 10.918 38.6164 10.9015 37.6143 11.1476C36.6122 11.3937 35.6905 11.894 34.9383 12.6004C34.186 13.3067 33.6287 14.1951 33.32 15.1797C31.8805 14.9106 30.3968 15.0017 29.001 15.4448C27.6052 15.888 26.3406 16.6695 25.32 17.7197L24 18.9997L22.7 17.6997C21.6794 16.6495 20.4149 15.868 19.0191 15.4248C17.6233 14.9817 16.1395 14.8906 14.7 15.1597C14.3905 14.1767 13.8331 13.29 13.0814 12.585C12.3297 11.88 11.409 11.3805 10.4082 11.1346C9.40735 10.8888 8.36007 10.9049 7.36727 11.1814C6.37446 11.4578 5.46961 11.9854 4.73991 12.7132C4.01021 13.4409 3.48027 14.3444 3.20115 15.3364C2.92204 16.3285 2.90316 17.3757 3.14634 18.3772C3.38953 19.3787 3.88657 20.3007 4.58956 21.0542C5.29256 21.8078 6.17782 22.3676 7.16001 22.6797C6.89089 24.1192 6.98197 25.603 7.42514 26.9988C7.8683 28.3946 8.6498 29.6591 9.70001 30.6797L11 31.9997L9.70001 33.2997C8.6498 34.3203 7.8683 35.5849 7.42514 36.9807C6.98197 38.3765 6.89089 39.8602 7.16001 41.2997C6.17537 41.6084 5.28698 42.1657 4.58065 42.918C3.87433 43.6702 3.37395 44.5919 3.12785 45.594C2.88175 46.5962 2.89826 47.6448 3.17577 48.6386C3.45328 49.6325 3.98242 50.538 4.71207 51.2677C5.44172 51.9973 6.34722 52.5264 7.34108 52.804C8.33494 53.0815 9.38358 53.098 10.3857 52.8519C11.3878 52.6058 12.3095 52.1054 13.0617 51.3991C13.814 50.6927 14.3714 49.8044 14.68 48.8197C16.1195 49.0888 17.6033 48.9978 18.9991 48.5546C20.3949 48.1114 21.6594 47.3299 22.68 46.2797L24 44.9997L25.3 46.2997C26.3206 47.3499 27.5852 48.1314 28.981 48.5746C30.3768 49.0178 31.8605 49.1088 33.3 48.8397C33.6087 49.8244 34.166 50.7127 34.9183 51.4191C35.6705 52.1254 36.5922 52.6258 37.5943 52.8719C38.5964 53.118 39.6451 53.1015 40.6389 52.824C41.6328 52.5464 42.5383 52.0173 43.268 51.2877C43.9976 50.558 44.5267 49.6525 44.8043 48.6586C45.0818 47.6648 45.0983 46.6162 44.8522 45.614C44.6061 44.6119 44.1057 43.6902 43.3994 42.938C42.693 42.1857 41.8046 41.6284 40.82 41.3197H40.84ZM27.76 22.2397C28.5557 21.4441 29.6348 20.9971 30.76 20.9971C31.8852 20.9971 32.9644 21.4441 33.76 22.2397C34.5557 23.0354 35.0027 24.1145 35.0027 25.2397C35.0027 26.3649 34.5557 27.4441 33.76 28.2397L33.5 28.4997L27.5 22.4997L27.76 22.2397ZM30 31.9997L24 37.9997L18 31.9997L24 25.9997L30 31.9997ZM14.24 28.2397C13.4444 27.4441 12.9974 26.3649 12.9974 25.2397C12.9974 24.1145 13.4444 23.0354 14.24 22.2397C15.0357 21.4441 16.1148 20.9971 17.24 20.9971C18.3652 20.9971 19.4444 21.4441 20.24 22.2397L20.5 22.4997L14.5 28.4997L14.24 28.2397ZM20.24 41.7597C19.846 42.1537 19.3783 42.4662 18.8636 42.6794C18.3489 42.8926 17.7972 43.0024 17.24 43.0024C16.1148 43.0024 15.0357 42.5554 14.24 41.7597C13.846 41.3658 13.5335 40.898 13.3203 40.3833C13.1071 39.8686 12.9974 39.3169 12.9974 38.7597C12.9974 37.6345 13.4444 36.5554 14.24 35.7597L14.5 35.4997L20.5 41.4997L20.24 41.7597ZM30.76 42.9997C30.203 43.0002 29.6514 42.891 29.1366 42.6782C28.6219 42.4654 28.1541 42.1533 27.76 41.7597L27.5 41.4997L33.5 35.4997L33.76 35.7597C34.3537 36.3527 34.7582 37.1085 34.9221 37.9315C35.086 38.7545 35.002 39.6076 34.6808 40.3828C34.3596 41.158 33.8155 41.8205 33.1176 42.2863C32.4196 42.7522 31.5991 43.0005 30.76 42.9997Z" stroke="#4D6BFF" stroke-width="1.5" stroke-linecap="round" stroke-linejoin="round"/>
<path d="M24 18.9995L20.5 22.4995" stroke="#4D6BFF" stroke-width="1.5" stroke-linecap="round" stroke-linejoin="round"/>
<path d="M11 31.9995L14.5 35.4995" stroke="#4D6BFF" stroke-width="1.5" stroke-linecap="round" stroke-linejoin="round"/>
<path d="M24 44.9995L27.5 41.4995" stroke="#4D6BFF" stroke-width="1.5" stroke-linecap="round" stroke-linejoin="round"/>
<path d="M37 31.9995L33.5 28.4995" stroke="#4D6BFF" stroke-width="1.5" stroke-linecap="round" stroke-linejoin="round"/>
<path d="M14.5 28.4995L18 31.9995" stroke="#4D6BFF" stroke-width="1.5" stroke-linecap="round" stroke-linejoin="round"/>
<path d="M20.5 41.4995L24 37.9995" stroke="#4D6BFF" stroke-width="1.5" stroke-linecap="round" stroke-linejoin="round"/>
<path d="M33.5 35.4995L30 31.9995" stroke="#4D6BFF" stroke-width="1.5" stroke-linecap="round" stroke-linejoin="round"/>
<path d="M24 25.9995L27.5 22.4995" stroke="#4D6BFF" stroke-width="1.5" stroke-linecap="round" stroke-linejoin="round"/>
<rect x="36" y="-0.000488281" width="20" height="20" rx="10" fill="#4D6BFF"/>
<path d="M46.272 12.9995V11.6235H43.344V10.9755L46.256 7.03951H47.008V10.9755H47.784V11.6235H47.008V12.9995H46.272ZM43.936 11.2555L43.824 10.9755H46.272V7.69551L46.504 7.75951L43.936 11.2555Z" fill="white"/>
</svg>
