<svg width="56" height="56" viewBox="0 0 56 56" fill="none" xmlns="http://www.w3.org/2000/svg">
<path d="M26.9091 20.9995H16.7273C16.326 20.9995 16 21.3255 16 21.7268V42.0904C16 42.4928 16.326 42.8177 16.7273 42.8177H26.9091C29.7163 42.8177 32 40.5332 32 37.7268V36.2722C32 34.4228 31.0089 32.8003 29.5295 31.9086C31.0089 31.0169 32 29.3944 32 27.545V26.0904C32 23.2832 29.7163 20.9995 26.9091 20.9995ZM30.5455 36.2722V37.7268C30.5455 39.7318 28.9141 41.3631 26.9091 41.3631H17.4545V32.6359H26.9091C28.9141 32.6359 30.5455 34.2673 30.5455 36.2722ZM30.5455 27.545C30.5455 29.5499 28.9141 31.1813 26.9091 31.1813H17.4545V22.4541H26.9091C28.9141 22.4541 30.5455 24.0854 30.5455 26.0904V27.545Z" fill="#4D6BFF"/>
<rect x="2.75" y="10.7495" width="42.5" height="42.5" rx="7.25" stroke="#4D6BFF" stroke-width="1.5"/>
<rect x="36" y="-0.000488281" width="20" height="20" rx="10" fill="#4D6BFF"/>
<path d="M45.9 13.0955C45.5907 13.0955 45.3 13.0422 45.028 12.9355C44.756 12.8235 44.5187 12.6662 44.316 12.4635C44.1187 12.2555 43.9747 12.0128 43.884 11.7355L44.524 11.4635C44.636 11.7568 44.8173 11.9862 45.068 12.1515C45.324 12.3115 45.6013 12.3915 45.9 12.3915C46.1453 12.3915 46.3613 12.3382 46.548 12.2315C46.74 12.1195 46.8893 11.9675 46.996 11.7755C47.1027 11.5782 47.156 11.3595 47.156 11.1195C47.156 10.8688 47.1 10.6475 46.988 10.4555C46.8813 10.2635 46.7347 10.1142 46.548 10.0075C46.3613 9.89551 46.148 9.83951 45.908 9.83951C45.6627 9.83951 45.4387 9.89551 45.236 10.0075C45.0333 10.1195 44.8867 10.2608 44.796 10.4315L44.164 10.2955L44.62 7.03951H47.708V7.71951H44.916L45.22 7.41551L44.868 9.94351L44.596 9.78351C44.772 9.55951 44.9773 9.39951 45.212 9.30351C45.452 9.20218 45.7107 9.15151 45.988 9.15151C46.3773 9.15151 46.7187 9.23951 47.012 9.41551C47.3053 9.59151 47.5347 9.82618 47.7 10.1195C47.8653 10.4128 47.948 10.7462 47.948 11.1195C47.948 11.4928 47.8573 11.8288 47.676 12.1275C47.5 12.4262 47.2573 12.6635 46.948 12.8395C46.644 13.0102 46.2947 13.0955 45.9 13.0955Z" fill="white"/>
</svg>
