<svg width="48" height="48" viewBox="0 0 48 48" fill="none" xmlns="http://www.w3.org/2000/svg">
<g clip-path="url(#clip0_1618_7897)">
<path d="M45.8473 39.643H43.5054V15.083C43.5054 12.8066 41.6509 10.9521 39.3745 10.9521H38.5091C38.1745 10.9521 37.8982 11.2285 37.8982 11.563C37.8982 11.8976 38.1745 12.1739 38.5091 12.1739H39.3745C40.9818 12.1739 42.2909 13.483 42.2909 15.0903V39.6503H5.71635V15.083C5.71635 13.4757 7.02545 12.1666 8.63272 12.1666H9.68726C10.0218 12.1666 10.2982 11.8903 10.2982 11.5557C10.2982 11.2212 10.0218 10.9448 9.68726 10.9448H8.63272C6.35635 10.9448 4.50181 12.7994 4.50181 15.0757V39.6357H2.15272C1.81817 39.6357 1.54181 39.9121 1.54181 40.2466C1.54181 43.4612 4.15999 46.0794 7.37454 46.0794H40.6254C43.84 46.0794 46.4582 43.4612 46.4582 40.2466C46.4582 39.9121 46.1818 39.643 45.8473 39.643ZM40.6254 44.8576H7.37454C5.03999 44.8576 3.10545 43.1121 2.80726 40.8576H5.0909C5.09817 40.8576 5.10545 40.8648 5.11272 40.8648H42.8945C42.9018 40.8648 42.9091 40.8576 42.9164 40.8576H45.2C44.8945 43.1121 42.96 44.8576 40.6254 44.8576Z" fill="#4D6BFF"/>
<path d="M12.8218 31.0538H15.2654C15.6 31.0538 15.8763 30.7775 15.8763 30.4429C15.8763 30.1084 15.6 29.832 15.2654 29.832H12.8218C12.4872 29.832 12.2109 30.1084 12.2109 30.4429C12.2109 30.7775 12.48 31.0538 12.8218 31.0538Z" fill="#4D6BFF"/>
<path d="M28.5236 29.832H17.8691C17.5345 29.832 17.2582 30.1084 17.2582 30.4429C17.2582 30.7775 17.5345 31.0538 17.8691 31.0538H28.5236C28.8582 31.0538 29.1345 30.7775 29.1345 30.4429C29.1345 30.1084 28.8582 29.832 28.5236 29.832Z" fill="#4D6BFF"/>
<path d="M35.1782 29.832H31.5855C31.2509 29.832 30.9745 30.1084 30.9745 30.4429C30.9745 30.7775 31.2509 31.0538 31.5855 31.0538H35.1782C35.5127 31.0538 35.7891 30.7775 35.7891 30.4429C35.7891 30.1084 35.52 29.832 35.1782 29.832Z" fill="#4D6BFF"/>
<path d="M12.8218 33.8468H19.0181C19.3527 33.8468 19.6291 33.5705 19.6291 33.2359C19.6291 32.9014 19.3527 32.625 19.0181 32.625H12.8218C12.4872 32.625 12.2109 32.9014 12.2109 33.2359C12.2109 33.5777 12.48 33.8468 12.8218 33.8468Z" fill="#4D6BFF"/>
<path d="M30.3709 32.625H21.8109C21.4764 32.625 21.2 32.9014 21.2 33.2359C21.2 33.5705 21.4764 33.8468 21.8109 33.8468H30.3709C30.7055 33.8468 30.9818 33.5705 30.9818 33.2359C30.9818 32.9014 30.7055 32.625 30.3709 32.625Z" fill="#4D6BFF"/>
<path d="M35.1782 32.625H32.8073C32.4727 32.625 32.1964 32.9014 32.1964 33.2359C32.1964 33.5705 32.4727 33.8468 32.8073 33.8468H35.1782C35.5127 33.8468 35.7891 33.5705 35.7891 33.2359C35.7891 32.9014 35.52 32.625 35.1782 32.625Z" fill="#4D6BFF"/>
<path d="M23.9927 22.5739H24.08C28.1164 22.523 31.3746 19.1921 31.3309 15.1484C31.28 11.1411 28 7.90479 23.9927 7.90479C23.9636 7.90479 23.9418 7.90479 23.9127 7.90479C21.9564 7.9266 20.1309 8.71206 18.7564 10.1157C17.3818 11.5193 16.64 13.3666 16.6691 15.3157C16.6909 17.2721 17.4764 19.1121 18.88 20.4793C20.2618 21.8321 22.0727 22.5739 23.9927 22.5739ZM19.6291 10.9739C20.7709 9.80297 22.2982 9.15569 23.9273 9.13388H23.9927C27.3309 9.13388 30.0727 11.8248 30.1091 15.1702C30.1455 18.5375 27.4327 21.3157 24.0655 21.3593C22.4436 21.3739 20.8946 20.763 19.7309 19.6211C18.56 18.4793 17.9055 16.9448 17.8909 15.3157C17.8691 13.6793 18.4873 12.1375 19.6291 10.9739Z" fill="#4D6BFF"/>
<path d="M12.2691 18.0213L13.8909 18.4794C14.08 19.0249 14.3054 19.5485 14.5673 20.0503L13.7818 21.534C13.3818 22.2903 13.5273 23.2358 14.1382 23.8322L15.4836 25.1485C16.0945 25.7449 17.04 25.8758 17.7891 25.454L19.2582 24.6322C19.76 24.8867 20.2909 25.0976 20.8363 25.2649L21.3309 26.8722C21.5782 27.6794 22.3418 28.2394 23.1854 28.2394H23.2073L25.0909 28.2176C25.9491 28.2103 26.7054 27.6285 26.9382 26.8067L27.3963 25.1849C27.9345 25.0103 28.4582 24.7849 28.9673 24.5158L30.4582 25.3085C31.2145 25.7085 32.16 25.5631 32.7636 24.9522L34.0872 23.5922C34.6836 22.9813 34.8072 22.0285 34.3854 21.2867L33.5636 19.8176C33.7745 19.3813 33.9563 18.9376 34.1163 18.494C34.1454 18.414 34.1745 18.3267 34.1963 18.2467L35.8109 17.7522C36.6254 17.4976 37.1854 16.7267 37.1782 15.8758L37.1563 13.9922C37.1491 13.134 36.5673 12.3776 35.7454 12.1449L34.1236 11.6867C34.0872 11.5849 34.0509 11.4831 34.0145 11.374C33.8545 10.9449 33.6654 10.5231 33.4545 10.1085L34.24 8.63216C34.64 7.8758 34.4945 6.93034 33.8836 6.33398L32.5382 5.01034C31.9273 4.40671 30.9745 4.28307 30.2254 4.70489L28.7273 5.54852L27.1854 4.93034L26.6836 3.29398C26.4363 2.47216 25.6654 1.92671 24.8073 1.91943L22.9091 1.94125C22.0582 1.94852 21.2945 2.53034 21.0618 3.35216L20.5963 4.97398C20.0509 5.16307 19.5345 5.38125 19.0327 5.65034L17.5563 4.85762C16.8 4.45034 15.8473 4.5958 15.2509 5.21398L13.9345 6.56671C13.3382 7.17762 13.2145 8.13034 13.6363 8.87943L14.4582 10.334C14.1891 10.8649 13.9782 11.3885 13.8109 11.9194L12.1963 12.414C11.3818 12.6685 10.8145 13.4394 10.8291 14.2903L10.8509 16.174C10.8654 17.0249 11.4473 17.7885 12.2691 18.0213ZM12.56 13.5776L14.4873 12.9813C14.6836 12.9231 14.8436 12.7631 14.8945 12.5594C15.0691 11.9122 15.3309 11.2722 15.6873 10.6103C15.7891 10.4285 15.7818 10.2031 15.68 10.0213L14.6909 8.2758C14.5309 7.99943 14.5818 7.64307 14.8 7.41762L16.1163 6.06489C16.3418 5.83943 16.6909 5.78125 16.9745 5.93398L18.7418 6.87943C18.9236 6.98125 19.1491 6.97398 19.3309 6.87216C19.9491 6.52307 20.5818 6.24671 21.2727 6.0358C21.4691 5.97762 21.6218 5.81762 21.68 5.62125L22.24 3.67943C22.3273 3.37398 22.6109 3.16307 22.9236 3.1558L24.8073 3.13398C25.1418 3.13398 25.4109 3.33762 25.5054 3.64307L26.0873 5.56307C26.1382 5.73762 26.2691 5.88307 26.4436 5.94852L28.5309 6.78489C28.7054 6.85034 28.8945 6.84307 29.0545 6.74852L30.8073 5.75943C31.0836 5.59943 31.44 5.65034 31.6654 5.8758L33.0109 7.19943C33.2363 7.42489 33.2945 7.77398 33.1418 8.05034L32.1963 9.82489C32.0945 10.0067 32.1018 10.2322 32.2036 10.414C32.4582 10.8576 32.6691 11.3158 32.8436 11.7813C32.9091 11.9703 32.9745 12.1594 33.0327 12.3558C33.0909 12.5522 33.2509 12.7122 33.4473 12.7631L35.3891 13.3085C35.6945 13.3958 35.9127 13.6794 35.9127 13.9922L35.9345 15.8758C35.9345 16.1885 35.7309 16.4794 35.4254 16.574L33.4545 17.2067C33.28 17.2794 33.1491 17.4322 33.0982 17.614C33.0545 17.7813 33.0036 17.9485 32.9454 18.1085C32.7782 18.6031 32.5672 19.0903 32.32 19.5631C32.2254 19.7449 32.2254 19.9631 32.3273 20.1449L33.3091 21.8903C33.4618 22.1667 33.4182 22.5158 33.2 22.7485L31.8763 24.1085C31.6582 24.334 31.3018 24.3922 31.0254 24.2394L29.2436 23.294C29.0618 23.1994 28.8363 23.1994 28.6545 23.3013C28.0363 23.6503 27.3891 23.9267 26.72 24.1231C26.5163 24.1813 26.3636 24.3413 26.3054 24.5449L25.76 26.4867C25.6727 26.7922 25.3891 27.0103 25.0763 27.0103L23.1927 27.0322H23.1854C22.8727 27.0322 22.5891 26.8213 22.4945 26.5231L21.9054 24.6031C21.8473 24.4067 21.6873 24.254 21.4909 24.1958C20.8 23.9994 20.1454 23.7376 19.5345 23.4103C19.4473 23.3594 19.3454 23.3376 19.2436 23.3376C19.1418 23.3376 19.04 23.3667 18.9454 23.4176L17.1854 24.3994C16.9091 24.5522 16.56 24.5085 16.3273 24.2831L14.9818 22.9667C14.7563 22.7485 14.6982 22.3922 14.8509 22.1158L15.7963 20.3485C15.8909 20.1667 15.8909 19.9413 15.7891 19.7594C15.44 19.1485 15.1636 18.494 14.9527 17.8176C14.8945 17.6213 14.7345 17.4685 14.5382 17.4103L12.6036 16.8576C12.2982 16.7703 12.0873 16.494 12.08 16.174L12.0582 14.2903C12.0509 13.9558 12.2545 13.6722 12.56 13.5776Z" fill="#4D6BFF"/>
<path d="M21.8109 17.3738C21.9709 17.3738 22.1236 17.3157 22.24 17.192C22.48 16.952 22.48 16.5666 22.24 16.3266L20.9891 15.0757L22.24 13.8248C22.48 13.5848 22.48 13.1993 22.24 12.9593C22 12.7193 21.6145 12.7193 21.3745 12.9593L19.6945 14.6393C19.4545 14.8793 19.4545 15.2648 19.6945 15.5048L21.3745 17.1848C21.4982 17.3157 21.6509 17.3738 21.8109 17.3738Z" fill="#4D6BFF"/>
<path d="M25.76 13.8321L27.0109 15.083L25.76 16.3339C25.52 16.5739 25.52 16.9594 25.76 17.1994C25.8764 17.3158 26.0364 17.3812 26.1891 17.3812C26.3418 17.3812 26.5018 17.323 26.6182 17.1994L28.2982 15.5194C28.5382 15.2794 28.5382 14.8939 28.2982 14.6539L26.6182 12.9739C26.3782 12.7339 25.9927 12.7339 25.7527 12.9739C25.52 13.2067 25.52 13.5921 25.76 13.8321Z" fill="#4D6BFF"/>
<path d="M22.4945 19.6284C22.56 19.6502 22.6254 19.6575 22.6836 19.6575C22.9382 19.6575 23.1782 19.4975 23.2654 19.2357L25.8909 11.3011C26 10.9811 25.8254 10.6393 25.5054 10.5302C25.1854 10.4284 24.8436 10.5957 24.7345 10.9157L22.1091 18.8575C22 19.1775 22.1745 19.5266 22.4945 19.6284Z" fill="#4D6BFF"/>
<path d="M9.24361 36.1158V16.4358C9.2727 16.3631 9.28724 16.2831 9.28724 16.1958L9.2727 15.0758C9.26543 14.7413 8.96724 14.4722 8.6327 14.4722C8.29815 14.4722 8.02179 14.7485 8.02179 15.0831V36.7267C8.02179 37.0613 8.29815 37.3376 8.6327 37.3376H39.3672C39.7018 37.3376 39.9782 37.0613 39.9782 36.7267V15.0831C39.9782 14.7485 39.6727 14.4722 39.3382 14.4722C39.1782 14.4722 39.0182 14.5376 38.9018 14.654C38.7854 14.7703 38.7272 14.9304 38.7272 15.0904L38.7345 15.8613C38.7345 15.9122 38.7418 15.9631 38.7563 16.014V36.1158H9.24361Z" fill="#4D6BFF"/>
<path d="M26.1891 42.2466H21.8109C21.4764 42.2466 21.2 42.5229 21.2 42.8575C21.2 43.192 21.4764 43.4684 21.8109 43.4684H26.1891C26.5236 43.4684 26.8 43.192 26.8 42.8575C26.8 42.5229 26.5309 42.2466 26.1891 42.2466Z" fill="#4D6BFF"/>
</g>
<defs>
<clipPath id="clip0_1618_7897">
<rect y="-0.000488281" width="48" height="48" rx="8" fill="white"/>
</clipPath>
</defs>
</svg>
