<svg width="48" height="48" viewBox="0 0 48 48" fill="none" xmlns="http://www.w3.org/2000/svg">
<g clip-path="url(#clip0_6568_21916)">
<g clip-path="url(#clip1_6568_21916)">
<mask id="mask0_6568_21916" style="mask-type:luminance" maskUnits="userSpaceOnUse" x="0" y="-1" width="48" height="49">
<path d="M0 -0.000484467H48V47.9995H0V-0.000484467Z" fill="white"/>
</mask>
<g mask="url(#mask0_6568_21916)">
<path d="M12.4688 34.6865L16.4816 24.1502C16.5637 23.9497 16.8474 23.9494 16.9298 24.1498L20.9062 34.6865" stroke="#4D6BFF" stroke-width="1.5" stroke-miterlimit="10" stroke-linecap="round" stroke-linejoin="round"/>
<path d="M13.7202 32.062H19.6749" stroke="#4D6BFF" stroke-width="1.5" stroke-miterlimit="10" stroke-linecap="round" stroke-linejoin="round"/>
<path d="M25.0312 9.14014H37.5937" stroke="#4D6BFF" stroke-width="1.5" stroke-miterlimit="10" stroke-linecap="round" stroke-linejoin="round"/>
<path d="M33.5744 9.14014V10.0481C33.5744 14.7787 30.0532 18.7697 25.3594 19.3589" stroke="#4D6BFF" stroke-width="1.5" stroke-miterlimit="10" stroke-linecap="round" stroke-linejoin="round"/>
<path d="M29.0506 9.14014V10.0481C29.0506 14.7787 32.5718 18.7697 37.2656 19.3589" stroke="#4D6BFF" stroke-width="1.5" stroke-miterlimit="10" stroke-linecap="round" stroke-linejoin="round"/>
<path d="M31.3125 9.14014V5.76514" stroke="#4D6BFF" stroke-width="1.5" stroke-miterlimit="10" stroke-linecap="round" stroke-linejoin="round"/>
<path d="M27.0938 0.937012H19.5974C17.369 0.937012 15.5626 2.74348 15.5626 4.97192V20.1521C15.5626 22.3805 17.369 24.187 19.5974 24.187H36.0001L43.0277 30.187V24.187C45.2561 24.187 47.0626 22.3805 47.0626 20.1521V4.97192C47.0626 2.74348 45.2561 0.937012 43.0277 0.937012H35.5313" stroke="#4D6BFF" stroke-width="1.5" stroke-miterlimit="10" stroke-linecap="round" stroke-linejoin="round"/>
<path d="M32.4375 24.187V37.0271C32.4375 39.2555 30.631 41.062 28.4026 41.062H12L4.97241 47.062V41.062C2.74397 41.062 0.9375 39.2555 0.9375 37.0271V21.8469C0.9375 19.6185 2.74397 17.812 4.97241 17.812H15.5625" stroke="#4D6BFF" stroke-width="1.5" stroke-miterlimit="10" stroke-linecap="round" stroke-linejoin="round"/>
</g>
</g>
</g>
<defs>
<clipPath id="clip0_6568_21916">
<rect y="-0.000488281" width="48" height="48" rx="8" fill="white"/>
</clipPath>
<clipPath id="clip1_6568_21916">
<rect width="48" height="48" fill="white" transform="translate(0 -0.000488281)"/>
</clipPath>
</defs>
</svg>
