<svg width="48" height="48" viewBox="0 0 48 48" fill="none" xmlns="http://www.w3.org/2000/svg">
<g clip-path="url(#clip0_6568_21784)">
<path d="M24 22.5303C22.4509 22.5303 21.1927 23.7885 21.1927 25.3375C21.1927 26.8866 22.4509 28.1448 24 28.1448C25.5491 28.1448 26.8073 26.8866 26.8073 25.3375C26.8073 23.7885 25.5491 22.5303 24 22.5303ZM24 26.923C23.1273 26.923 22.4146 26.2103 22.4146 25.3375C22.4146 24.4648 23.1273 23.7521 24 23.7521C24.8727 23.7521 25.5855 24.4648 25.5855 25.3375C25.5855 26.2175 24.8727 26.923 24 26.923Z" fill="#4D6BFF"/>
<path d="M29.6655 24.836V24.1233C29.6655 22.9451 29.4764 21.7887 29.1273 20.6833C29.12 20.6687 29.12 20.6469 29.1127 20.6324C28.6255 19.1124 27.8327 17.6869 26.7491 16.4797L25.1491 14.6833C24.5673 14.0287 23.4327 14.0287 22.8436 14.6833L21.2364 16.4797C20.1527 17.6942 19.3673 19.1124 18.88 20.6324C18.8727 20.6469 18.8655 20.6687 18.8655 20.6833C18.5164 21.7887 18.3273 22.9451 18.3273 24.1233V24.836L15.2946 28.2978C15.0836 28.5378 14.9673 28.8433 14.9673 29.1633V31.6215C14.9673 32.0433 15.1709 32.4433 15.5127 32.6906C15.7382 32.8578 16.0146 32.9451 16.2909 32.9451C16.4291 32.9451 16.56 32.9233 16.6909 32.8797L18.4073 32.3269C18.56 32.8942 18.9164 33.3887 19.4327 33.7015C19.76 33.9051 19.9636 34.2615 19.9636 34.6469V34.676V35.9342C19.9636 36.5887 20.4946 37.1269 21.1564 37.1269H21.4909C21.6655 38.5669 22.4 39.8978 23.5927 40.9233C23.7091 41.0251 23.8473 41.0687 23.9927 41.0687C24.1382 41.0687 24.2764 41.0178 24.3927 40.9233C25.5927 39.8978 26.32 38.5669 26.5018 37.1269H26.8291C27.4836 37.1269 28.0218 36.596 28.0218 35.9342V34.676V34.6469C28.0218 34.2542 28.2182 33.9051 28.5527 33.7015C29.0691 33.3815 29.4327 32.8942 29.5855 32.3269L31.3018 32.8797C31.4327 32.9233 31.5709 32.9451 31.7018 32.9451C31.9782 32.9451 32.2546 32.8578 32.48 32.6906C32.8218 32.4433 33.0255 32.0433 33.0255 31.6215V29.1633C33.0255 28.8433 32.9091 28.5378 32.6982 28.2978L29.6655 24.836ZM22.16 17.2869L23.7673 15.4906C23.8473 15.396 23.9491 15.3815 24 15.3815C24.0509 15.3815 24.1527 15.396 24.24 15.4906L25.84 17.2869C26.6327 18.1742 27.2509 19.1851 27.6873 20.2687H20.3127C20.7491 19.1851 21.3673 18.1742 22.16 17.2869ZM16.3273 31.716C16.2982 31.7233 16.2691 31.7233 16.24 31.7015C16.2109 31.6797 16.2036 31.6578 16.2036 31.6287V29.1633L18.3346 26.6906V31.0615L16.3273 31.716ZM24 39.6215C23.3164 38.9015 22.88 38.0433 22.7346 37.1342H25.2727C25.12 38.0433 24.6836 38.9015 24 39.6215ZM21.1927 35.9415V35.2942H26.8146L26.8291 35.9051L21.1927 35.9415ZM28.4436 31.716C28.4436 32.1015 28.2473 32.4578 27.9127 32.6615C27.3964 32.9815 27.0255 33.4906 26.8727 34.0651H21.12C20.9673 33.4906 20.6036 32.9742 20.0873 32.6615C19.76 32.4578 19.5564 32.1015 19.5564 31.716V31.5124V25.0615V24.116C19.5564 23.2215 19.68 22.3415 19.9055 21.4906H28.0946C28.32 22.3415 28.4436 23.2215 28.4436 24.116V25.0615V31.5124V31.716ZM31.7964 31.6287C31.7964 31.6578 31.7818 31.6869 31.76 31.7015C31.7309 31.7233 31.7091 31.7233 31.6727 31.716L29.6655 31.0687V26.6978L31.7746 29.1051C31.7891 29.1197 31.7964 29.1415 31.7964 29.1633V31.6287Z" fill="#4D6BFF"/>
<path d="M41.4473 7.86848C42.4655 7.86848 43.2873 7.04666 43.2873 6.02848C43.2873 5.01029 42.4655 4.18848 41.4473 4.18848C40.4364 4.18848 39.6073 5.01029 39.6073 6.02848C39.6073 7.04666 40.4364 7.86848 41.4473 7.86848ZM41.4473 5.41029C41.7891 5.41029 42.0655 5.68666 42.0655 6.02848C42.0655 6.37029 41.7891 6.64666 41.4473 6.64666C41.1055 6.64666 40.8364 6.37757 40.8364 6.02848C40.8364 5.68666 41.1128 5.41029 41.4473 5.41029Z" fill="#4D6BFF"/>
<path d="M43.5564 1.10498H4.44365C2.9891 1.10498 1.80365 2.29044 1.80365 3.74498V37.5704C1.80365 39.025 2.9891 40.2104 4.44365 40.2104H16.9091C16.8218 40.6104 16.8 41.0104 16.8509 41.4177C14.8073 41.6577 13.0764 43.4904 12.7927 45.6723H10.5527C10.2109 45.6723 9.94183 45.9486 9.94183 46.2832C9.94183 46.625 10.2182 46.8941 10.5527 46.8941H37.44C37.7818 46.8941 38.0509 46.6177 38.0509 46.2832C38.0509 45.9413 37.7746 45.6723 37.44 45.6723H35.2C35.0037 44.3268 34.16 43.1559 32.9527 42.5377C33.0182 42.2541 33.0473 41.9632 33.0546 41.6577C33.0546 41.6432 33.0546 41.6286 33.0546 41.6068C33.0546 41.1123 32.9673 40.6395 32.8073 40.2032H43.5564C45.0109 40.2032 46.1964 39.0177 46.1964 37.5632V3.74498C46.1964 2.29044 45.0109 1.10498 43.5564 1.10498ZM4.44365 2.3268H43.5564C44.3346 2.3268 44.9673 2.95953 44.9673 3.73771V9.72316L19.2946 9.73771L16.2473 6.58134C16.0291 6.35589 15.7236 6.22498 15.4036 6.22498H8.77092C8.12365 6.22498 7.60001 6.74862 7.60001 7.39589V9.73044H3.0182V3.74498C3.03274 2.95953 3.66547 2.3268 4.44365 2.3268ZM43.5564 38.9813H32.1236C31.3527 38.0213 30.1673 37.4032 28.8436 37.4032C28.4509 37.4032 28.0655 37.4541 27.7164 37.5559C27.3891 37.6504 27.2073 37.9923 27.3018 38.3195C27.3964 38.6468 27.7382 38.8286 28.0655 38.7341C28.3055 38.6613 28.5673 38.625 28.8509 38.625C30.4946 38.625 31.84 39.9632 31.84 41.6141C31.84 41.8177 31.8109 42.0213 31.7746 42.2177C31.76 42.2904 31.7382 42.3559 31.7164 42.4286C31.5564 42.9959 31.2364 43.5195 30.7709 43.905C30.5091 44.1232 30.4727 44.5086 30.6909 44.7704C30.8146 44.9159 30.9891 44.9886 31.1636 44.9886C31.3018 44.9886 31.44 44.945 31.5564 44.8432C31.9491 44.5159 32.2691 44.1232 32.5164 43.6868C33.2655 44.1086 33.7964 44.8286 33.9782 45.665H14.0509C14.3346 44.0432 15.7018 42.6832 17.2146 42.6177C17.4618 43.265 17.7309 43.7595 18.0073 44.0868C18.1309 44.225 18.2982 44.2977 18.4727 44.2977C18.6109 44.2977 18.7564 44.2468 18.8727 44.1523C19.1273 43.9341 19.1564 43.5486 18.9382 43.2868C18.72 43.0323 18.48 42.5377 18.2618 41.8977C18.2473 41.8395 18.2327 41.7813 18.2036 41.7304C18.1891 41.6941 18.1818 41.665 18.1673 41.6286C17.9782 41.0323 18.0436 40.3777 18.3491 39.8323C18.6327 39.3159 19.0982 38.9595 19.6946 38.8068C20.0146 38.7195 20.1964 38.385 20.1091 38.065C20.0218 37.7377 19.6727 37.5486 19.3527 37.6286C18.56 37.825 17.8982 38.3195 17.44 39.0032C17.3891 38.9886 17.3455 38.9741 17.2946 38.9741H4.44365C3.66547 38.9741 3.03274 38.3413 3.03274 37.5632V10.945H7.67274C8.32001 10.945 8.84365 10.4213 8.84365 9.77407V7.43953L15.3818 7.42498L18.4291 10.5813C18.6473 10.8068 18.9527 10.9377 19.2727 10.9377H44.9818V37.5559C44.9673 38.3486 44.3346 38.9813 43.5564 38.9813Z" fill="#4D6BFF"/>
<path d="M36.8509 7.86848C37.8691 7.86848 38.6909 7.04666 38.6909 6.02848C38.6909 5.01029 37.8691 4.18848 36.8509 4.18848C35.84 4.18848 35.0109 5.01029 35.0109 6.02848C35.0109 7.04666 35.8327 7.86848 36.8509 7.86848ZM36.8509 5.41029C37.1927 5.41029 37.4691 5.68666 37.4691 6.02848C37.4691 6.37029 37.1927 6.64666 36.8509 6.64666C36.5091 6.64666 36.24 6.37757 36.24 6.02848C36.2327 5.68666 36.5091 5.41029 36.8509 5.41029Z" fill="#4D6BFF"/>
<path d="M32.2545 7.86848C33.2727 7.86848 34.0946 7.04666 34.0946 6.02848C34.0946 5.01029 33.2727 4.18848 32.2545 4.18848C31.2436 4.18848 30.4146 5.01029 30.4146 6.02848C30.4146 7.04666 31.2364 7.86848 32.2545 7.86848ZM32.2545 5.41029C32.5964 5.41029 32.8727 5.68666 32.8727 6.02848C32.8727 6.37029 32.5964 6.64666 32.2545 6.64666C31.9127 6.64666 31.6436 6.37757 31.6436 6.02848C31.6364 5.68666 31.9127 5.41029 32.2545 5.41029Z" fill="#4D6BFF"/>
<path d="M37.6 18.4723C37.4836 18.356 37.3309 18.2905 37.1636 18.2905C37.1127 18.2905 37.0691 18.3051 37.0255 18.3196C36.9964 18.3269 36.96 18.3269 36.9309 18.3414C36.8509 18.3705 36.7855 18.4214 36.7273 18.4796L34.9091 20.2978C34.6691 20.5378 34.6691 20.9233 34.9091 21.1633C35.1491 21.4033 35.5345 21.4033 35.7745 21.1633L36.5527 20.3851V25.0469C36.5527 25.3887 36.8291 25.6578 37.1636 25.6578C37.5055 25.6578 37.7745 25.3814 37.7745 25.0469V20.3851L38.5527 21.1633C38.6691 21.2796 38.8291 21.3451 38.9891 21.3451C39.1491 21.3451 39.3018 21.2869 39.4182 21.1633C39.6582 20.9233 39.6582 20.5378 39.4182 20.2978L37.6 18.4723Z" fill="#4D6BFF"/>
<path d="M10.4873 20.9597C10.3709 20.8433 10.2182 20.7778 10.0509 20.7778C10 20.7778 9.95636 20.7924 9.91273 20.8069C9.88364 20.8142 9.84727 20.8142 9.81818 20.8287C9.73818 20.8578 9.67273 20.9087 9.61455 20.9669L7.79636 22.7851C7.55636 23.0251 7.55636 23.4106 7.79636 23.6506C8.03636 23.8906 8.42182 23.8906 8.66182 23.6506L9.44 22.8724V27.5342C9.44 27.876 9.71636 28.1451 10.0509 28.1451C10.3855 28.1451 10.6618 27.8687 10.6618 27.5342V22.8724L11.44 23.6506C11.5564 23.7669 11.7164 23.8324 11.8764 23.8324C12.0364 23.8324 12.1891 23.7742 12.3127 23.6506C12.5527 23.4106 12.5527 23.0251 12.3127 22.7851L10.4873 20.9597Z" fill="#4D6BFF"/>
</g>
<defs>
<clipPath id="clip0_6568_21784">
<rect y="-0.000488281" width="48" height="48" rx="8" fill="white"/>
</clipPath>
</defs>
</svg>
