<svg xmlns="http://www.w3.org/2000/svg" viewBox="0 0 514.07 210"><defs><style>.cls-1{fill:#4bb449;}.cls-2{fill:#fff;fill-rule:evenodd;}.cls-3{fill:#344150;}</style></defs><title>dth</title><g id="Layer_2" data-name="Layer 2"><g id="Layer_1-2" data-name="Layer 1"><circle class="cls-1" cx="105" cy="105" r="105"/><g id="Classic"><g id="Steem"><path id="Fill-1" class="cls-2" d="M139.57,57.79c-5.29,4.43-10.74,9.89-13,16.54-2.56,7.84,1,15.86,4.43,22.85,3.41,7.16,7.17,14.15,10.41,21.48,2.56,5.8,6.14,12.62,5.29,19.11-.68,4.6-2.22,9-3.07,13.64-.68,3.07,2.22,0,3.24-.85,6-5.12,12.44-10.92,14.83-18.76,1.19-3.92.51-7.51-.85-11.26-1.36-3.57-2.9-7-4.44-10.57-3.24-7.17-6.65-14.32-10.06-21.49-1.36-2.56-2.73-5.29-3.92-8a27.83,27.83,0,0,1-2.05-9.2,37,37,0,0,1,.17-7.51c.17-1.88.68-3.58.85-5.45.18-1-.67-1.37-1.87-.51m-78.09,0c-5.29,4.42-10.74,9.88-13,16.54C46,82.17,49.54,90.19,53,97.18c3.41,7.15,7.16,14.15,10.4,21.48,2.56,5.79,6.14,12.61,5.29,19.1-.68,4.6-2.22,9-3.07,13.64-.68,3.07,2.22,0,3.24-.85,6-5.12,12.44-10.92,14.83-18.76,1.19-3.92.51-7.51-.85-11.26-1.36-3.57-2.9-7-4.44-10.57-3.24-7.17-6.65-14.32-10.06-21.49-1.36-2.56-2.73-5.29-3.92-8a28,28,0,0,1-2.05-9.21,37,37,0,0,1,.17-7.51c.17-1.88.68-3.57.85-5.45.18-1-.67-1.36-1.86-.5"/><path id="Fill-4" class="cls-2" d="M99.33,44.82c-6,5-12.44,10.92-16,17.9A20.55,20.55,0,0,0,81.76,77.9a147.38,147.38,0,0,0,6.65,18.24c4.94,11.42,11.42,22.17,16.2,33.76,1.71,4.09,3.58,8.7,3.92,13.3.34,5.63-1.54,11.6-3.07,16.88-.34,1.54-1.36,3.58-1.19,5.12.17,1.19.85.68,1.54.17a87.22,87.22,0,0,0,8.35-7.33c7-6.65,15-15.53,14.33-25.92-.34-4.27-2.39-8.36-4.09-12.27-1.88-4.6-3.92-9-6-13.47-3.75-8.35-7.68-16.54-11.76-24.73-1.36-2.89-3.07-5.62-4.09-8.52A37.14,37.14,0,0,1,100.19,61a57.63,57.63,0,0,1,.34-9.37c.17-2,.85-3.92.85-6,.51-1.88-.51-2-2-.86"/></g></g><path class="cls-3" d="M317.47,180.47a127.86,127.86,0,0,1-34.4,4.6c-39.2,0-52.8-12.4-52.8-54.2,0-34.6,8.2-56,43.2-56a113.89,113.89,0,0,1,27,3.6l-2.2-12.2V40.67c0-2.8,1-4.4,3.8-4.8l22.6-3.8h1.2a3.06,3.06,0,0,1,3.4,3.4v129.4C329.27,170.27,328.67,177.27,317.47,180.47Zm-19.2-83a96.15,96.15,0,0,0-16.2-1.8c-15.2,0-20.6,3-20.6,33.4,0,32,6.2,35.2,21.8,35.2a63.43,63.43,0,0,0,15-2Z"/><path class="cls-3" d="M409.47,177.07a3.18,3.18,0,0,1-2.6,3.4,86,86,0,0,1-25.2,3.6c-23.8,0-35.8-8.8-35.8-32.6V50.87c0-2.8,1-4.2,3.6-4.8l22.8-4h1a3.06,3.06,0,0,1,3.4,3.4v32h26.6a3,3,0,0,1,3.2,3v16a3,3,0,0,1-3.2,3h-26.6v50.6c0,7.8,2.6,12.2,12.8,12.2a71.5,71.5,0,0,0,14.2-1.6h.8c1.4,0,2,1,2.4,2.2l2.6,13Z"/><path class="cls-3" d="M510.87,182.47h-24.4a2.89,2.89,0,0,1-3.2-3v-70.8c0-8.8-3-13.2-12.6-13.2a119.3,119.3,0,0,0-21.4,2.4v81.6a2.89,2.89,0,0,1-3.2,3h-24.4a2.89,2.89,0,0,1-3.2-3V40.67c0-2.8.8-4.4,3.6-4.8l22.8-3.8h1a3.06,3.06,0,0,1,3.4,3.4v31.2l-2.2,12.4c9.4-2.2,21.2-4.2,31.2-4.2,22.4,0,35.8,6.4,35.8,28.6v76A2.89,2.89,0,0,1,510.87,182.47Z"/><polygon class="cls-3" points="298.27 43.29 298.29 81.58 311.18 79.47 298.27 43.29"/><polygon class="cls-3" points="449.24 41.01 449.32 83.47 440.15 80.93 449.24 41.01"/></g></g></svg>