<svg xmlns="http://www.w3.org/2000/svg" viewBox="0 0 562.2 37.62"><defs><style>.cls-1{fill:#344150;}</style></defs><title>gavick</title><g id="Layer_2" data-name="Layer 2"><g id="Layer_1-2" data-name="Layer 1"><g id="Top"><g id="logo"><g id="Gavickpro_Image" data-name="Gavickpro Image"><path class="cls-1" d="M18.25,37.37A20.12,20.12,0,0,1,11,36a18.9,18.9,0,0,1-5.8-3.83,18,18,0,0,1-3.82-5.92A20.62,20.62,0,0,1,0,18.87a18.71,18.71,0,0,1,1.36-7.4,17.11,17.11,0,0,1,3.7-5.92A16.11,16.11,0,0,1,10.85,1.6,18.33,18.33,0,0,1,18.38.25H57.11a1.31,1.31,0,0,1,1.48,1.48V5.18a1.31,1.31,0,0,1-1.48,1.48H31.33A11,11,0,0,0,28.25,7a4.76,4.76,0,0,0-2.1,1.36A6.36,6.36,0,0,0,25,11a19.27,19.27,0,0,0-.37,4.19v5.92A24.59,24.59,0,0,0,25,25.78a7.16,7.16,0,0,0,1.23,3.08,4.89,4.89,0,0,0,2.1,1.73,7.45,7.45,0,0,0,3,.49H41.2V14.18a1.31,1.31,0,0,1,1.48-1.48H58.59a1.31,1.31,0,0,1,1.48,1.48V35.89a1.31,1.31,0,0,1-1.48,1.48Z"/><path class="cls-1" d="M117.3,37.37a3.73,3.73,0,0,1-2.84-1.11L92.88,14.31,76,30.84h25.29a1.31,1.31,0,0,1,1.48,1.48v3.45a1.31,1.31,0,0,1-1.48,1.48H64.39c-.74,0-1.11-.25-1.11-.86A.45.45,0,0,1,63.4,36a.66.66,0,0,1,.37-.5L98.67,1.11a3.09,3.09,0,0,1,2.35-1h3.7a3.92,3.92,0,0,1,2.47,1L141.6,35.4c.12.12.25.37.37.49s.12.37.12.5c0,.61-.37.86-1.23.86C140.61,37.37,117.3,37.37,117.3,37.37Z"/><path class="cls-1" d="M166.14,36.26a3,3,0,0,1-2.34,1.11h-3.7a3.29,3.29,0,0,1-2.47-1.11L123.34,2a1.1,1.1,0,0,1-.49-1c0-.62.37-.87,1.23-.87H147.4a3.71,3.71,0,0,1,2.83,1.11l21.59,22,22.45-22A7.64,7.64,0,0,1,195.5.37a6.39,6.39,0,0,1,1.6-.25h3.21c.74,0,1.11.25,1.11.87a1.07,1.07,0,0,1-.49.86Z"/><path class="cls-1" d="M206.48,37.37A1.31,1.31,0,0,1,205,35.89V1.48A1.31,1.31,0,0,1,206.48,0H225.6a1.31,1.31,0,0,1,1.48,1.48V35.77a1.31,1.31,0,0,1-1.48,1.48C225.6,37.37,206.48,37.37,206.48,37.37Z"/><path class="cls-1" d="M250.51,37.37A20.18,20.18,0,0,1,243.23,36a18.85,18.85,0,0,1-5.79-3.83,18,18,0,0,1-3.83-5.92,20.83,20.83,0,0,1-1.35-7.4,18.88,18.88,0,0,1,1.35-7.4,17.41,17.41,0,0,1,3.7-5.92,16.24,16.24,0,0,1,5.8-3.95A18.31,18.31,0,0,1,250.63.25H288.5A1.31,1.31,0,0,1,290,1.73V5.18a1.31,1.31,0,0,1-1.48,1.48H263.71a11.08,11.08,0,0,0-3.09.37,4.73,4.73,0,0,0-2.09,1.36A6.1,6.1,0,0,0,257.42,11a19.27,19.27,0,0,0-.37,4.19v5.92a24.59,24.59,0,0,0,.37,4.69,6.92,6.92,0,0,0,1.23,3.08,4.78,4.78,0,0,0,2.1,1.73,7.45,7.45,0,0,0,3,.49h25a1.31,1.31,0,0,1,1.48,1.48V36a1.31,1.31,0,0,1-1.48,1.48H250.51Z"/><path class="cls-1" d="M296,37.37a1.31,1.31,0,0,1-1.48-1.48V1.48A1.31,1.31,0,0,1,296,0h19.12a1.31,1.31,0,0,1,1.48,1.48V35.77a1.31,1.31,0,0,1-1.48,1.48C315.14,37.37,296,37.37,296,37.37Zm47.12,0a4.62,4.62,0,0,1-2-.37,9.1,9.1,0,0,1-1.73-1.11l-19-16.28a3.52,3.52,0,0,1-.87-1.11,4.93,4.93,0,0,1-.24-1.6V15.29c0-.61,0-1.11.24-1.35a3,3,0,0,1,.87-.87l22.2-11.71a13.71,13.71,0,0,1,2.34-1A7.89,7.89,0,0,1,347.46,0h11.22a1.43,1.43,0,0,1,.87.25.94.94,0,0,1,.24.61.94.94,0,0,1-.61.87L337.1,13.32l25.78,21.34a1.71,1.71,0,0,1,.74,1.36,1.11,1.11,0,0,1-.37.74,1.68,1.68,0,0,1-1.24.37C362,37.37,343.14,37.37,343.14,37.37Z"/><path class="cls-1" d="M392.85,24.18a1.31,1.31,0,0,1-1.48-1.48V19.24a1.31,1.31,0,0,1,1.48-1.48H400a14.43,14.43,0,0,0,2.47-.25,5,5,0,0,0,3.33-2.71,5.71,5.71,0,0,0,.49-2.59,5.09,5.09,0,0,0-1.85-4.32A6.83,6.83,0,0,0,400,6.54H388.16V35.89a1.31,1.31,0,0,1-1.48,1.48H367.44A1.31,1.31,0,0,1,366,35.89V1.48A1.31,1.31,0,0,1,367.44,0h47.49A13.29,13.29,0,0,1,420,.86a12.7,12.7,0,0,1,4.2,2.35A9.35,9.35,0,0,1,426.89,7a13.32,13.32,0,0,1,1,5.18,11.45,11.45,0,0,1-1.11,5.18,9.94,9.94,0,0,1-3.08,3.7,14.18,14.18,0,0,1-4.57,2.22,20.77,20.77,0,0,1-5.67.74h-20.6Z"/><path class="cls-1" d="M478.57,37.37a5,5,0,0,1-3.7-1.48L458.1,19c-.25-.24-.5-.61-.74-.86a2.58,2.58,0,0,1-.25-1.23V15.17a1.31,1.31,0,0,1,1.48-1.48h7.65a6.87,6.87,0,0,0,3.95-1A3.26,3.26,0,0,0,471.54,10c0-2.47-1.72-3.7-5.3-3.7H453.9V35.65a1.31,1.31,0,0,1-1.48,1.48H433.31a1.31,1.31,0,0,1-1.48-1.48V1.48A1.31,1.31,0,0,1,433.31,0H481.9a14.46,14.46,0,0,1,4.69.74,10.6,10.6,0,0,1,3.7,2,9.44,9.44,0,0,1,2.47,3,8,8,0,0,1,.86,3.83,9,9,0,0,1-.86,4.07,9.74,9.74,0,0,1-2.35,3.08,10.85,10.85,0,0,1-3.45,2.1,16.61,16.61,0,0,1-4.19,1.11l15.41,15.66a1.13,1.13,0,0,1,.37.87,1.3,1.3,0,0,1-.24.61,1,1,0,0,1-.74.25l-19,.12Z"/><path class="cls-1" d="M516.56,37.37a18,18,0,0,1-7.4-1.48A17.2,17.2,0,0,1,503.37,32,18.5,18.5,0,0,1,499.66,26a20.89,20.89,0,0,1-1.35-7.41,18.11,18.11,0,0,1,1.35-7.4,17.28,17.28,0,0,1,3.71-5.92,16.9,16.9,0,0,1,5.79-3.82A18.54,18.54,0,0,1,516.69.12h27.13a18.74,18.74,0,0,1,7.53,1.48,17.22,17.22,0,0,1,5.79,4,16,16,0,0,1,3.7,5.92,20.81,20.81,0,0,1,0,14.8,16.93,16.93,0,0,1-3.7,5.92,19.16,19.16,0,0,1-5.79,4,18.17,18.17,0,0,1-7.53,1.48H516.56ZM540,15.05a20,20,0,0,0-.37-4.2,6.42,6.42,0,0,0-1.11-2.59,4.2,4.2,0,0,0-2.1-1.35,11,11,0,0,0-3.08-.37h-7.53a9.16,9.16,0,0,0-2.83.37,4,4,0,0,0-1.85,1.35A6.16,6.16,0,0,0,520,10.85a18.9,18.9,0,0,0-.37,4.07v5.93q0,5.55,1.48,7.77a5.12,5.12,0,0,0,4.68,2.22h7.53a7.48,7.48,0,0,0,3-.5,4.64,4.64,0,0,0,2.09-1.72,8,8,0,0,0,1.24-3.09,25.32,25.32,0,0,0,.37-4.68Z"/></g></g></g></g></g></svg>