<svg xmlns="http://www.w3.org/2000/svg" viewBox="0 0 665.27 114.71"><defs><style>.cls-1{fill:#344150;}</style></defs><title>ijoomla</title><g id="Layer_2" data-name="Layer 2"><g id="Layer_1-2" data-name="Layer 1"><path class="cls-1" d="M18.48,88.44a2.1,2.1,0,0,1-2.16,1.8H1.68A1.55,1.55,0,0,1,0,88.68v-.24l7.08-58a2.14,2.14,0,0,1,2.28-1.8H23.88a1.49,1.49,0,0,1,1.68,1.56v.24Zm8.64-71.52C26.88,19.2,25.68,20,23.4,20H11.88c-2,0-3-.72-3-2.4v-.72l1.68-13.8C10.8,1,12,0,14.28,0H25.92c1.92,0,3,.72,3,2.52a5.2,5.2,0,0,0-.12.6Z"/><path class="cls-1" d="M53.4,91.8c-2.28,18.6-13.92,22.91-28,22.91-8.28,0-9.36-.35-11.52-.59-1.08-.12-2.16-.24-2.16-1.92v-.6l.84-7c.24-2,1.08-2.4,2.88-2.4s4-.12,6.48-.24c6.24-.36,10.56-.84,11.64-9.72L44.52,3.72a2.08,2.08,0,0,1,2-1.68L62.88,0h.24a1.32,1.32,0,0,1,1.44,1.44c0,.12,0,.12-.12.24Z"/><path class="cls-1" d="M124.92,73.68C121,84.48,112.79,91.8,93.6,91.8c-10.8,0-17.52-2.28-21.6-6.24-4.2-4.2-5.52-10.08-5.52-17,0-7.68,1.56-19.08,4.44-26,4.2-10.08,12.48-16.8,30.84-16.8,10.92,0,17.75,2.4,21.83,6.48s5.29,9.72,5.29,16.68C128.88,56.4,127.55,66.84,124.92,73.68Zm-16.8-33c-1.56-1.68-4-2.52-7.92-2.52-8.76,0-11.4,4-13,12.48a106.24,106.24,0,0,0-2,18.48c0,3.72.48,6.36,2.28,8,1.56,1.44,4,2.16,7.68,2.16,9,0,11.52-4.2,13.08-13.2a98,98,0,0,0,1.92-17.64C110.16,44.88,109.68,42.36,108.12,40.68Z"/><path class="cls-1" d="M190.43,73.68c-4,10.8-12.12,18.12-31.31,18.12-10.8,0-17.52-2.28-21.6-6.24-4.2-4.2-5.52-10.08-5.52-17,0-7.68,1.56-19.08,4.44-26,4.2-10.08,12.48-16.8,30.84-16.8,10.92,0,17.75,2.4,21.83,6.48s5.28,9.72,5.28,16.68C194.39,56.4,193.07,66.84,190.43,73.68Zm-16.8-33c-1.55-1.68-4-2.52-7.92-2.52-8.75,0-11.39,4-13,12.48a106.24,106.24,0,0,0-2,18.48c0,3.72.48,6.36,2.28,8,1.56,1.44,4,2.16,7.68,2.16,9,0,11.52-4.2,13.07-13.2a98,98,0,0,0,1.92-17.64C175.67,44.88,175.2,42.36,173.63,40.68Z"/><path class="cls-1" d="M299.15,48.6l-4.8,39.84a2.1,2.1,0,0,1-2.16,1.8H277.55a1.59,1.59,0,0,1-1.8-1.56v-.24l4.8-38.52c.12-1.8.36-3.6.36-5.4,0-2.4-.6-3.72-1.68-4.8C277.91,38.52,276,38,273.35,38a70.54,70.54,0,0,0-12.48,1.44l-6,49a2,2,0,0,1-2,1.8H238.2c-1.2,0-1.81-.6-1.81-1.56v-.24l4.8-38.76c.12-1.68.36-3.36.36-5,0-2.4-.48-4-1.55-5-1.33-1.08-3-1.56-5.64-1.56a71.61,71.61,0,0,0-12.84,1.56l-6,48.84a2,2,0,0,1-2.16,1.8H198.72a1.59,1.59,0,0,1-1.8-1.56v-.24l6.48-52.32c.6-4.56,3.72-6,10.92-7.68a119.57,119.57,0,0,1,23.76-2.76c7.43,0,12.47,1.68,15.47,4.08a85.29,85.29,0,0,1,24.12-4.08c7.32,0,13.08.84,16.92,3.36,3.48,2.28,5.4,6,5.4,11.4A60.62,60.62,0,0,1,299.15,48.6Z"/><path class="cls-1" d="M334.43,87.48a2.2,2.2,0,0,1-1.43,2c-1.08.48-4.8,1.8-11.76,1.8-5.52,0-9.6-1.44-12.12-4-2.76-2.52-4-6.12-4-10.44,0-3.6.84-7.8,1.2-10.8L313.92,4.8c.24-1.56.6-2.28,2.28-2.52L330.36,0h.6c1.08,0,1.79.48,1.79,1.68V2l-8,65.16a40.83,40.83,0,0,0-.71,6.72,4,4,0,0,0,1,2.88,3.77,3.77,0,0,0,3.12,1.32,26.64,26.64,0,0,0,4.08-.36c.23,0,.35-.12.47-.12,1,0,1.2.6,1.33,1.44l.47,8.28Z"/><path class="cls-1" d="M398.27,50.76l-3.36,26.88c-1.2,9.12-4.68,10.68-13.2,12.48a75.62,75.62,0,0,1-17.28,1.68c-7.8,0-16.08-.6-21.35-4.44-3.48-2.52-5.64-6.48-5.64-12.72,0-5.16,1.31-10.68,4.44-14.64,4.32-5.28,10.79-6.6,16.79-7.44l21.24-3.36s.6-4.08.6-5.88a3.8,3.8,0,0,0-2.28-3.84c-1.68-.84-4.44-1.2-8.4-1.2-7.8,0-17.28,2.52-20.52,3.24a3,3,0,0,1-.84.24,1.2,1.2,0,0,1-1.31-1.08l-.73-8.28v-.24A2,2,0,0,1,348.12,30a89.54,89.54,0,0,1,27.23-4.32c8.4,0,14,1.2,17.76,3.48,4.56,2.76,6,7,6,12.12A61.87,61.87,0,0,1,398.27,50.76ZM365.63,62.28c-3,.48-5.76,1-7.56,3.12a11.85,11.85,0,0,0-2.16,7.2,6.74,6.74,0,0,0,1.8,5.16c2,2.16,5.76,2.4,8.64,2.4a39.85,39.85,0,0,0,10.08-1.32l2.28-18.6Z"/><path class="cls-1" d="M428,88.2c-.12,1.08-1.44,2-3,2h-15.6c-1.44,0-2.52-.84-2.52-1.92l.12-.12,1.56-13.08a2.72,2.72,0,0,1,2.88-2h15.72c1.44,0,2.52.84,2.4,1.92v.12Z"/><path class="cls-1" d="M495.83,38.88a2,2,0,0,1-2,1.44c-.24,0-.6-.12-.72-.12a52,52,0,0,0-13.44-1.92c-8.88,0-13.56,2.76-16.2,10a59.5,59.5,0,0,0-2.76,17.52q0,6.66,2.88,9.72c2.28,2.28,5.76,3.36,11.16,3.36a57.23,57.23,0,0,0,13.8-1.92c.24,0,.48-.12.84-.12A1.59,1.59,0,0,1,491,78.36l.48,7.32.12.24c0,1.2-.6,1.8-1.8,2.28-3.12,1.56-12.12,3.12-21,3.12-10.2,0-17-1.92-21.24-6S442,75.36,442,67.44c0-8.52,1.68-19.44,5.16-26.76,4.92-10,13.68-15,29.76-15,8.88,0,17.52,1.68,20.28,3.12.84.48,1.2,1,1.2,1.68a2.64,2.64,0,0,1-.12,1Z"/><path class="cls-1" d="M555.71,73.68c-4,10.8-12.12,18.12-31.32,18.12-10.8,0-17.52-2.28-21.6-6.24-4.2-4.2-5.52-10.08-5.52-17,0-7.68,1.56-19.08,4.44-26,4.2-10.08,12.48-16.8,30.84-16.8,10.92,0,17.76,2.4,21.84,6.48s5.28,9.72,5.28,16.68C559.67,56.4,558.35,66.84,555.71,73.68Zm-16.8-33c-1.56-1.68-4-2.52-7.92-2.52-8.76,0-11.4,4-13,12.48a106.24,106.24,0,0,0-2,18.48c0,3.72.48,6.36,2.28,8,1.56,1.44,4,2.16,7.68,2.16,9,0,11.52-4.2,13.08-13.2A98,98,0,0,0,541,48.48C541,44.88,540.47,42.36,538.91,40.68Z"/><path class="cls-1" d="M664.43,48.6l-4.8,39.84a2.1,2.1,0,0,1-2.16,1.8H642.83a1.59,1.59,0,0,1-1.8-1.56v-.24l4.8-38.52c.12-1.8.36-3.6.36-5.4,0-2.4-.6-3.72-1.68-4.8-1.32-1.2-3.24-1.68-5.88-1.68a70.54,70.54,0,0,0-12.48,1.44l-6,49a2,2,0,0,1-2,1.8H603.47c-1.2,0-1.8-.6-1.8-1.56v-.24l4.8-38.76c.12-1.68.36-3.36.36-5,0-2.4-.48-4-1.56-5-1.32-1.08-3-1.56-5.64-1.56a71.61,71.61,0,0,0-12.84,1.56l-6,48.84a2,2,0,0,1-2.16,1.8H564a1.59,1.59,0,0,1-1.8-1.56v-.24l6.48-52.32c.6-4.56,3.72-6,10.92-7.68a119.57,119.57,0,0,1,23.76-2.76c7.44,0,12.48,1.68,15.48,4.08A85.29,85.29,0,0,1,643,25.68c7.32,0,13.08.84,16.92,3.36,3.48,2.28,5.4,6,5.4,11.4A60.62,60.62,0,0,1,664.43,48.6Z"/></g></g></svg>