<svg xmlns="http://www.w3.org/2000/svg" viewBox="0 0 808.03 171.32"><defs><style>.cls-1{fill:#25aae1;}.cls-2{fill:#8cc63f;}.cls-3{fill:#bf1e2d;}.cls-4{fill:#fcb016;}.cls-5{fill:#344150;}</style></defs><title>jomsocial</title><g id="Layer_2" data-name="Layer 2"><g id="Layer_1-2" data-name="Layer 1"><path class="cls-1" d="M101.23,0c4.49.51,6.68,1,10,1.67C127.05,5,141,11.88,152.35,23.57c.39.39.77.84,1.16,1.29.06.06,0,.25.06.64a9,9,0,0,1-2.7-1.74c-9.63-7-19.78-13-31.66-15.22C100.13,5,82.67,8.29,68.09,21.9,58.84,30.57,53.89,41.23,56,54.27a24.21,24.21,0,0,0,6.36,12.65,5.41,5.41,0,0,1,1.47,4.89c-.83,6.1-4.62,8.92-10.6,7.83a18.82,18.82,0,0,1-7.51-3.27,31.74,31.74,0,0,1-11-14c-6.62-16-4.82-31.6,3.27-46.62a62.4,62.4,0,0,1,7.2-10.6A6,6,0,0,1,47.4,3c.58.83.13,1.67.2,2.5.06,2.89,1.15,4.11,4,4.37A14.58,14.58,0,0,0,57.1,9c6.43-2,12.72-4.56,19.21-6.16a88.23,88.23,0,0,1,13-2.32"/><path class="cls-2" d="M102.06,71.68a24.65,24.65,0,0,1,5.65,14.64,36.44,36.44,0,0,1-22.22,35.52c-23.63,10.08-46,7.32-66.54-8.22A81.83,81.83,0,0,1,.2,93.39c1.15-.39,1.54.45,2,1a59.72,59.72,0,0,0,10,8,16,16,0,0,0,5.52,2.44,4,4,0,0,0,5.2-3.79,14.36,14.36,0,0,0-.7-6C20.17,87.8,17.28,80.93,15.8,73.6,14.07,65.06,14,56.39,14.46,47.66c.9,1.6.77,3.4,1,5.13A84.57,84.57,0,0,0,24.28,80c9.64,17.6,24.54,26,44.64,25.05,16.7-.77,28.39-11.3,32.31-28.9C101.48,74.82,101.74,73.54,102.06,71.68Z"/><path class="cls-3" d="M166.22,123.7a24,24,0,0,0-.77-3.34c-.77-2-2.57-2.57-4.36-1.35-2.06,1.42-3.47,3.47-5,5.4-7.65,9-15.16,18.11-24.67,25.3-16,12.21-34.1,19.14-54,21.58-.58.07-1.16,0-2.31,0,4.24-1.09,7.9-1.92,11.49-3,19.4-5.9,36.16-15.92,48.37-32.49a80.38,80.38,0,0,0,15.54-43.16c1.35-20.88-7.13-37.64-22.87-50.81-6.55-5.46-14.58-7.9-22.93-9.18a4.82,4.82,0,0,1-2.31-.52c-.13-.83.58-1.09,1.09-1.41,5.79-4.37,12.27-4.82,19-3.47,12.71,2.44,22.35,9.76,30.63,19.33,11.43,13.24,16.19,28.78,16.57,46.06a133.93,133.93,0,0,1-2.63,29.15c-.13.58-.26,1.16-.39,1.67C166.48,123.51,166.29,123.57,166.22,123.7Z"/><path class="cls-4" d="M13.94,149.91a2.88,2.88,0,0,1,2.44,0c4.37,1,8.8,1.86,13.36,1.6,1.54-.06,3.21-.06,4-1.67s-.06-3.21-1.15-4.56a41.14,41.14,0,0,0-8.09-6.87C15.1,131.86,7,124.09.9,114.39c-.38-.58-1-1.09-.9-2,1,.06,1.42,1,2,1.54,13.61,14,29.54,24,49.07,26.72C71,143.48,90,140.21,106,127c14.45-12,22.8-27.23,22.29-46.5a56.53,56.53,0,0,0-2.19-13.23c1.29.26,1.54,1.09,2,1.73a42.09,42.09,0,0,1,7.07,24.28c-.39,17-6,32.12-18.31,44.25-10.79,10.6-24,17-38.47,20.56-22,5.46-43.09,2.37-63.33-7.58A6.5,6.5,0,0,1,13.94,149.91Z"/><path class="cls-5" d="M236.34,131.58c-2.68,21.9-16.39,27-32.92,27-9.75,0-11-.42-13.56-.71-1.28-.14-2.55-.28-2.55-2.26v-.7l1-8.2c.28-2.4,1.27-2.82,3.39-2.82,2-.15,4.67-.15,7.63-.29,7.35-.42,12.44-1,13.71-11.44L225.89,27.87a2.45,2.45,0,0,1,2.4-2l19.22-2.4h.28a1.55,1.55,0,0,1,1.69,1.69c0,.15,0,.15-.14.29Z"/><path class="cls-5" d="M317,110.25c-4.66,12.71-14.27,21.33-36.88,21.33-12.71,0-20.63-2.68-25.43-7.34-4.94-4.95-6.5-11.87-6.5-20.07,0-9,1.84-22.47,5.23-30.66,4.94-11.87,14.69-19.78,36.31-19.78,12.86,0,20.92,2.82,25.72,7.63S321.69,72.8,321.69,81C321.69,89.9,320.13,102.19,317,110.25ZM297.24,71.39c-1.83-2-4.66-3-9.32-3-10.32,0-13.43,4.66-15.26,14.7a124.21,124.21,0,0,0-2.41,21.76c0,4.38.57,7.49,2.69,9.46,1.84,1.7,4.66,2.55,9,2.55,10.6,0,13.57-5,15.4-15.55a114.48,114.48,0,0,0,2.26-20.77C299.64,76.33,299.08,73.37,297.24,71.39Z"/><path class="cls-5" d="M441.51,80.71l-5.65,46.92a2.48,2.48,0,0,1-2.55,2.12H416.07a1.86,1.86,0,0,1-2.11-1.84v-.28l5.65-45.36c.14-2.12.42-4.24.42-6.36,0-2.83-.71-4.38-2-5.65-1.55-1.41-3.81-2-6.92-2a83,83,0,0,0-14.7,1.7l-7.06,57.65a2.33,2.33,0,0,1-2.4,2.12H369.73c-1.41,0-2.12-.71-2.12-1.84v-.28L373.26,82c.14-2,.42-4,.42-5.94,0-2.82-.56-4.66-1.83-5.93-1.56-1.27-3.53-1.84-6.64-1.84a84.09,84.09,0,0,0-15.12,1.84L343,127.63a2.37,2.37,0,0,1-2.54,2.12H323.24a1.87,1.87,0,0,1-2.12-1.84v-.28L328.75,66c.71-5.37,4.38-7.07,12.86-9a140.46,140.46,0,0,1,28-3.25c8.76,0,14.69,2,18.22,4.8,2.69-1,16-4.8,28.41-4.8,8.62,0,15.4,1,19.92,4,4.1,2.69,6.36,7.07,6.36,13.43A71.75,71.75,0,0,1,441.51,80.71Z"/><path class="cls-5" d="M528.27,42.85A2.9,2.9,0,0,1,525.58,45a.49.49,0,0,1-.42-.15c-8.06-1.69-17.38-4.23-28.83-4.23-6.22,0-12.43.7-16.53,4.09-3.25,2.41-4.66,6.36-4.66,10.32,0,4.8,2.82,7.49,7.2,9.18,4,1.42,8.91,2.12,14.27,3,9.19,1.41,18.94,3,25,8.9,4,3.82,6.22,9.33,6.22,17.81,0,9.89-3.11,19.64-10.6,26.56-8.76,8-21.61,10.88-34.9,10.88a121.77,121.77,0,0,1-36-5.23,2.66,2.66,0,0,1-2-2.68,3.11,3.11,0,0,1,.14-1.13l3.25-10.46a2.57,2.57,0,0,1,2.69-2.26c.42,0,.85.14,1.27.14,3,.71,16.82,4.81,29.82,4.81,6.78,0,12.85-1.13,16.95-4.38A14.33,14.33,0,0,0,503.4,98.8,8.38,8.38,0,0,0,499.3,91c-3.82-2.54-10-3.25-17.1-4.38-8.33-1.41-18.08-3.39-24.44-9.33-4-3.81-6.5-9.18-6.5-16.81,0-9,2.82-18.79,9.18-25.29,8.2-8.62,21.2-11.45,35.61-11.45a119.15,119.15,0,0,1,33.2,4.8c1.56.43,2.55,1.28,2.55,2.69a3.35,3.35,0,0,1-.28,1.13Z"/><path class="cls-5" d="M599.48,110.25c-4.66,12.71-14.27,21.33-36.88,21.33-12.72,0-20.63-2.68-25.43-7.34-4.95-4.95-6.5-11.87-6.5-20.07,0-9,1.83-22.47,5.22-30.66,5-11.87,14.7-19.78,36.32-19.78,12.86,0,20.91,2.82,25.72,7.63S604.14,72.8,604.14,81C604.14,89.9,602.59,102.19,599.48,110.25ZM579.7,71.39c-1.84-2-4.67-3-9.33-3-10.31,0-13.42,4.66-15.26,14.7a125.16,125.16,0,0,0-2.4,21.76c0,4.38.56,7.49,2.68,9.46,1.84,1.7,4.67,2.55,9.05,2.55,10.59,0,13.56-5,15.4-15.55a115.38,115.38,0,0,0,2.26-20.77C582.1,76.33,581.53,73.37,579.7,71.39Z"/><path class="cls-5" d="M667.87,69.27a2.31,2.31,0,0,1-2.4,1.7c-.29,0-.71-.15-.85-.15a61.67,61.67,0,0,0-15.83-2.26c-10.45,0-16,3.25-19.07,11.73-2,5.51-3.25,14.27-3.25,20.63q0,7.85,3.39,11.45c2.68,2.68,6.78,3.95,13.14,3.95a67.3,67.3,0,0,0,16.25-2.26c.28,0,.56-.14,1-.14a1.88,1.88,0,0,1,2,1.84l.56,8.62.14.28c0,1.41-.7,2.12-2.12,2.68-3.67,1.84-14.27,3.68-24.73,3.68-12,0-20.06-2.26-25-7.07-4.8-4.66-6.64-11.73-6.64-21,0-10,2-22.89,6.08-31.51,5.79-11.73,16.11-17.66,35-17.66,10.46,0,20.63,2,23.88,3.67,1,.57,1.41,1.13,1.41,2a3.14,3.14,0,0,1-.14,1.13Z"/><path class="cls-5" d="M689.49,127.63a2.48,2.48,0,0,1-2.55,2.12H669.7a1.82,1.82,0,0,1-2-1.84v-.28l8.34-68.25a2.52,2.52,0,0,1,2.69-2.12h17.09a1.75,1.75,0,0,1,2,1.84v.28Zm10.17-84.22c-.28,2.69-1.7,3.68-4.38,3.68H681.71c-2.4,0-3.53-.85-3.53-2.83v-.85l2-16.25c.28-2.54,1.69-3.67,4.38-3.67h13.71c2.26,0,3.53.85,3.53,3a6.06,6.06,0,0,0-.14.7Z"/><path class="cls-5" d="M769.88,83.26l-4,31.65c-1.42,10.74-5.51,12.58-15.55,14.69a88.54,88.54,0,0,1-20.34,2c-9.19,0-18.94-.7-25.15-5.23-4.1-3-6.65-7.63-6.65-15,0-6.08,1.56-12.58,5.23-17.24,5.09-6.22,12.72-7.77,19.78-8.76l25-4s.71-4.8.71-6.92A4.48,4.48,0,0,0,746.29,70c-2-1-5.23-1.42-9.89-1.42-9.19,0-20.35,3-24.17,3.82a3.52,3.52,0,0,1-1,.28,1.42,1.42,0,0,1-1.55-1.27l-.85-9.75v-.28a2.38,2.38,0,0,1,2-2.55c3.25-1.27,17-5.08,32.08-5.08,9.89,0,16.53,1.41,20.91,4.09,5.37,3.25,7.06,8.2,7.06,14.28A72.23,72.23,0,0,1,769.88,83.26ZM731.45,96.82c-3.53.57-6.78,1.13-8.9,3.68-1.84,2.26-2.54,5.65-2.54,8.47s.7,4.67,2.11,6.08c2.41,2.54,6.79,2.83,10.18,2.83a46.65,46.65,0,0,0,11.87-1.56l2.68-21.9Z"/><path class="cls-5" d="M808,126.5a2.6,2.6,0,0,1-1.69,2.4c-1.27.56-5.65,2.12-13.85,2.12-6.5,0-11.3-1.7-14.27-4.67-3.25-3-4.66-7.2-4.66-12.29,0-4.24,1-9.18,1.41-12.72l8.9-72.2c.28-1.84.71-2.68,2.69-3l16.67-2.68h.71c1.27,0,2.11.56,2.11,2v.42l-9.46,76.73a46.07,46.07,0,0,0-.85,7.91,4.65,4.65,0,0,0,1.13,3.39,4.44,4.44,0,0,0,3.67,1.55,31.62,31.62,0,0,0,4.81-.42c.28,0,.42-.14.56-.14,1.13,0,1.42.71,1.56,1.7l.56,9.74Z"/></g></g></svg>