<svg xmlns="http://www.w3.org/2000/svg" viewBox="0 0 581.54 89.95"><defs><style>.cls-1,.cls-4,.cls-8{fill:#8ba729;}.cls-2,.cls-3{fill:#688c4f;}.cls-2,.cls-4{stroke:#fff;}.cls-2{stroke-width:3.87px;}.cls-4{stroke-width:3.37px;}.cls-5{fill:#4d4d4d;}.cls-6,.cls-7{fill:#344150;}.cls-6,.cls-8{isolation:isolate;}.cls-9{fill:#717a85;}</style></defs><title>joomlabamboo</title><g id="Layer_2" data-name="Layer 2"><g id="Layer_1-2" data-name="Layer 1"><path class="cls-1" d="M532.93,2s14,34.63,14,41.92S539.49,77.67,535.65,83s-7-31.53-6.92-40.81S532.93,2,532.93,2Z"/><path class="cls-2" d="M538.74,83s21.77-31.78,23.13-39.08-.62-35.24-3.47-41.3-13.84,30.17-15.7,39.45S538.74,83,538.74,83Z"/><path class="cls-3" d="M538.74,83s21.77-31.78,23.13-39.08-.62-35.24-3.47-41.3-13.84,30.17-15.7,39.45S538.74,83,538.74,83Z"/><path class="cls-4" d="M578.19,33.53S570,62.21,566.44,66.66s-20.52,17-25.35,18.31S552,61.84,556.43,56.15,578.19,33.53,578.19,33.53Z"/><path class="cls-1" d="M578.19,33.53S570,62.21,566.44,66.66s-20.52,17-25.35,18.31S552,61.84,556.43,56.15,578.19,33.53,578.19,33.53Z"/><path class="cls-5" d="M11.61,69.63c0,5.57-3.71,9.77-8.41,12.49a1.23,1.23,0,0,1-1.85-.25L.23,80.39A1.2,1.2,0,0,1,.6,78.66C4.93,76.19,7,72.48,7,69.51V22a1.46,1.46,0,0,1,1.36-1.36h2A1.35,1.35,0,0,1,11.61,22Z"/><path class="cls-5" d="M11.73,13.12a.84.84,0,0,1-.86.87h-4a.78.78,0,0,1-.86-.87V9.29a.85.85,0,0,1,.86-.87h4c.62,0,.86.87.86.87Z"/><path class="cls-5" d="M36.71,64.81c-13.85,0-18.92-5.94-18.92-22.26s4.58-22.26,18.92-22.26c14.59,0,19,5.32,19,22.26C55.75,60.11,50.56,64.81,36.71,64.81Zm0-40.06c-11.25,0-14.47,4.32-14.47,17.8s3.34,17.93,14.47,17.93c11.5,0,14.59-4.45,14.59-17.93S48.21,24.75,36.71,24.75Z"/><path class="cls-5" d="M80.48,64.81c-13.84,0-18.91-5.94-18.91-22.26s4.57-22.26,18.91-22.26c14.6,0,19,5.32,19,22.26C99.53,60.11,94.21,64.81,80.48,64.81Zm0-40.06C69.23,24.75,66,29.07,66,42.55s3.34,17.93,14.46,17.93c11.5,0,14.6-4.45,14.6-17.93S92,24.75,80.48,24.75Z"/><path class="cls-5" d="M166.05,63a1.49,1.49,0,0,1-1.48,1.36h-1.73A1.26,1.26,0,0,1,161.72,63V40.82c0-8.9-1.48-16.07-11.87-16.07-11.12,0-11.74,6.8-11.74,16.19V63.08a1.49,1.49,0,0,1-1.49,1.36h-1.73a1.27,1.27,0,0,1-1.23-1.36V40.82c0-8.9-1.24-16.07-11.88-16.07S110,32.41,110,41.07v22a1.46,1.46,0,0,1-1.36,1.36H107a1.27,1.27,0,0,1-1.24-1.36V41.19c0-12.12,2.47-20.77,16.07-20.77,6.68,0,11.75,1.85,13.85,8.53,2.6-6.68,7.55-8.53,14.22-8.53,13.73,0,16.2,8.65,16.2,20.4V63Z"/><path class="cls-5" d="M188.68,62.58a1.49,1.49,0,0,1-1.36,1.49c-11.5,0-14.34-5.44-14.34-15.71V6.82a1.46,1.46,0,0,1,1.36-1.36h1.85a1.27,1.27,0,0,1,1.24,1.36V48.24c0,7.67,1.73,11.38,8.65,11.38h1.24A1.45,1.45,0,0,1,188.68,61v1.6Z"/><path class="cls-5" d="M229.12,47.87c0,12.24-4.83,16.94-18.92,16.94-15.21,0-19-3.83-19-14.22,0-9.52,4.21-14.1,19-14.1,7.66,0,11.74,1.73,14.46,4.7v-7c0-5.93-5.56-9.52-14.09-9.52-7.3,0-12.12.87-12.12,7.3A1.4,1.4,0,0,1,197,33.28h-1.74a1.59,1.59,0,0,1-1.48-1.36c0-7.67,4.58-11.75,16.82-11.75S229.12,26.11,229.12,34V47.87Zm-18.92-6.8c-10.64,0-14.59,3.71-14.59,9.64,0,6.43,3.58,9.77,14.59,9.77,10.75,0,14.46-3,14.46-10.76C224.66,44,220.21,41.07,210.2,41.07Z"/><path class="cls-1" d="M257.06,64.81c-14,0-19-5.19-19-21.89V6.57a1.46,1.46,0,0,1,1.36-1.36h1.73a1.48,1.48,0,0,1,1.48,1.36V25.86s3-5.81,14.47-5.81c13.11,0,18.92,5.07,18.92,22.75C276,60.23,271.53,64.81,257.06,64.81Zm0-40.31c-10.88,0-14.47,5.19-14.59,18.42s4.2,17.56,14.59,17.56c11.62,0,14.35-4.2,14.35-17.56C271.41,29.82,267.94,24.5,257.06,24.5Z"/><path class="cls-1" d="M318.89,47.87c0,12.24-4.82,16.94-18.92,16.94-15.21,0-19-3.83-19-14.22,0-9.52,4.2-14.1,19-14.1,7.67,0,11.75,1.73,14.47,4.7v-7c0-5.93-5.57-9.52-14.1-9.52-7.3,0-12.12.87-12.12,7.3a1.4,1.4,0,0,1-1.48,1.36H285a1.59,1.59,0,0,1-1.49-1.36c0-7.67,4.58-11.75,16.82-11.75S318.89,26.11,318.89,34V47.87ZM300,41.07c-10.64,0-14.59,3.71-14.59,9.64,0,6.43,3.58,9.77,14.59,9.77,10.76,0,14.47-3,14.47-10.76C314.44,44,310,41.07,300,41.07Z"/><path class="cls-1" d="M385.54,63a1.5,1.5,0,0,1-1.49,1.36h-1.73A1.26,1.26,0,0,1,381.21,63V40.82c0-8.9-1.48-16.07-11.87-16.07-11.13,0-11.75,6.8-11.75,16.19V63.08a1.49,1.49,0,0,1-1.48,1.36h-1.73a1.27,1.27,0,0,1-1.24-1.36V40.82c0-8.9-1.24-16.07-11.87-16.07s-11.75,7.66-11.75,16.32v22a1.46,1.46,0,0,1-1.36,1.36h-1.73a1.28,1.28,0,0,1-1.24-1.36V41.19c0-12.12,2.48-20.77,16.08-20.77,6.68,0,11.75,1.85,13.85,8.53,2.6-6.68,7.54-8.53,14.22-8.53,13.72,0,16.2,8.65,16.2,20.4V63Z"/><path class="cls-1" d="M411,64.81c-14,0-19-5.19-19-21.89V6.57a1.46,1.46,0,0,1,1.36-1.36h1.73a1.48,1.48,0,0,1,1.48,1.36V25.86s3-5.81,14.47-5.81c13.11,0,18.92,5.07,18.92,22.75C429.93,60.23,425.48,64.81,411,64.81Zm0-40.31c-10.88,0-14.47,5.19-14.59,18.42s4.2,17.56,14.59,17.56c11.62,0,14.34-4.2,14.34-17.56C425.35,29.82,421.89,24.5,411,24.5Z"/><path class="cls-1" d="M453.92,64.81c-13.85,0-18.92-5.94-18.92-22.26s4.57-22.26,18.92-22.26c14.59,0,19,5.32,19,22.26C472.84,60.11,467.64,64.81,453.92,64.81Zm0-40.06c-11.26,0-14.47,4.32-14.47,17.8s3.34,17.93,14.47,17.93c11.5,0,14.59-4.45,14.59-17.93S465.42,24.75,453.92,24.75Z"/><path class="cls-1" d="M497.07,64.81c-13.85,0-18.92-5.94-18.92-22.26s4.58-22.26,18.92-22.26c14.59,0,19,5.32,19,22.26C516.11,60.11,510.8,64.81,497.07,64.81Zm0-40.06c-11.25,0-14.47,4.32-14.47,17.8s3.34,17.93,14.47,17.93c11.5,0,14.59-4.45,14.59-17.93S508.57,24.75,497.07,24.75Z"/><path class="cls-6" d="M11.61,69.63c0,5.57-3.71,9.77-8.41,12.49a1.23,1.23,0,0,1-1.85-.25L.23,80.39A1.2,1.2,0,0,1,.6,78.66C4.93,76.19,7,72.48,7,69.51V22a1.46,1.46,0,0,1,1.36-1.36h2A1.35,1.35,0,0,1,11.61,22Z"/><path class="cls-7" d="M11.73,13.12a.84.84,0,0,1-.86.87h-4a.78.78,0,0,1-.86-.87V9.29a.85.85,0,0,1,.86-.87h4c.62,0,.86.87.86.87Z"/><path class="cls-6" d="M36.71,64.81c-13.85,0-18.92-5.94-18.92-22.26s4.58-22.26,18.92-22.26c14.59,0,19,5.32,19,22.26C55.75,60.11,50.56,64.81,36.71,64.81Zm0-40.06c-11.25,0-14.47,4.32-14.47,17.8s3.34,17.93,14.47,17.93c11.5,0,14.59-4.45,14.59-17.93S48.21,24.75,36.71,24.75Z"/><path class="cls-6" d="M80.48,64.81c-13.84,0-18.91-5.94-18.91-22.26s4.57-22.26,18.91-22.26c14.6,0,19,5.32,19,22.26C99.53,60.11,94.21,64.81,80.48,64.81Zm0-40.06C69.23,24.75,66,29.07,66,42.55s3.34,17.93,14.46,17.93c11.5,0,14.6-4.45,14.6-17.93S92,24.75,80.48,24.75Z"/><path class="cls-6" d="M166.05,63a1.49,1.49,0,0,1-1.48,1.36h-1.73A1.26,1.26,0,0,1,161.72,63V40.82c0-8.9-1.48-16.07-11.87-16.07-11.12,0-11.74,6.8-11.74,16.19V63.08a1.49,1.49,0,0,1-1.49,1.36h-1.73a1.27,1.27,0,0,1-1.23-1.36V40.82c0-8.9-1.24-16.07-11.88-16.07S110,32.41,110,41.07v22a1.46,1.46,0,0,1-1.36,1.36H107a1.27,1.27,0,0,1-1.24-1.36V41.19c0-12.12,2.47-20.77,16.07-20.77,6.68,0,11.75,1.85,13.85,8.53,2.6-6.68,7.55-8.53,14.22-8.53,13.73,0,16.2,8.65,16.2,20.4V63Z"/><path class="cls-6" d="M188.68,62.58a1.49,1.49,0,0,1-1.36,1.49c-11.5,0-14.34-5.44-14.34-15.71V6.82a1.46,1.46,0,0,1,1.36-1.36h1.85a1.27,1.27,0,0,1,1.24,1.36V48.24c0,7.67,1.73,11.38,8.65,11.38h1.24A1.45,1.45,0,0,1,188.68,61v1.6Z"/><path class="cls-6" d="M229.12,47.87c0,12.24-4.83,16.94-18.92,16.94-15.21,0-19-3.83-19-14.22,0-9.52,4.21-14.1,19-14.1,7.66,0,11.74,1.73,14.46,4.7v-7c0-5.93-5.56-9.52-14.09-9.52-7.3,0-12.12.87-12.12,7.3A1.4,1.4,0,0,1,197,33.28h-1.74a1.59,1.59,0,0,1-1.48-1.36c0-7.67,4.58-11.75,16.82-11.75S229.12,26.11,229.12,34V47.87Zm-18.92-6.8c-10.64,0-14.59,3.71-14.59,9.64,0,6.43,3.58,9.77,14.59,9.77,10.75,0,14.46-3,14.46-10.76C224.66,44,220.21,41.07,210.2,41.07Z"/><path class="cls-8" d="M257.06,64.81c-14,0-19-5.19-19-21.89V6.57a1.46,1.46,0,0,1,1.36-1.36h1.73a1.48,1.48,0,0,1,1.48,1.36V25.86s3-5.81,14.47-5.81c13.11,0,18.92,5.07,18.92,22.75C276,60.23,271.53,64.81,257.06,64.81Zm0-40.31c-10.88,0-14.47,5.19-14.59,18.42s4.2,17.56,14.59,17.56c11.62,0,14.35-4.2,14.35-17.56C271.41,29.82,267.94,24.5,257.06,24.5Z"/><path class="cls-8" d="M318.89,47.87c0,12.24-4.82,16.94-18.92,16.94-15.21,0-19-3.83-19-14.22,0-9.52,4.2-14.1,19-14.1,7.67,0,11.75,1.73,14.47,4.7v-7c0-5.93-5.57-9.52-14.1-9.52-7.3,0-12.12.87-12.12,7.3a1.4,1.4,0,0,1-1.48,1.36H285a1.59,1.59,0,0,1-1.49-1.36c0-7.67,4.58-11.75,16.82-11.75S318.89,26.11,318.89,34V47.87ZM300,41.07c-10.64,0-14.59,3.71-14.59,9.64,0,6.43,3.58,9.77,14.59,9.77,10.76,0,14.47-3,14.47-10.76C314.44,44,310,41.07,300,41.07Z"/><path class="cls-8" d="M385.54,63a1.5,1.5,0,0,1-1.49,1.36h-1.73A1.26,1.26,0,0,1,381.21,63V40.82c0-8.9-1.48-16.07-11.87-16.07-11.13,0-11.75,6.8-11.75,16.19V63.08a1.49,1.49,0,0,1-1.48,1.36h-1.73a1.27,1.27,0,0,1-1.24-1.36V40.82c0-8.9-1.24-16.07-11.87-16.07s-11.75,7.66-11.75,16.32v22a1.46,1.46,0,0,1-1.36,1.36h-1.73a1.28,1.28,0,0,1-1.24-1.36V41.19c0-12.12,2.48-20.77,16.08-20.77,6.68,0,11.75,1.85,13.85,8.53,2.6-6.68,7.54-8.53,14.22-8.53,13.72,0,16.2,8.65,16.2,20.4V63Z"/><path class="cls-8" d="M411,64.81c-14,0-19-5.19-19-21.89V6.57a1.46,1.46,0,0,1,1.36-1.36h1.73a1.48,1.48,0,0,1,1.48,1.36V25.86s3-5.81,14.47-5.81c13.11,0,18.92,5.07,18.92,22.75C429.93,60.23,425.48,64.81,411,64.81Zm0-40.31c-10.88,0-14.47,5.19-14.59,18.42s4.2,17.56,14.59,17.56c11.62,0,14.34-4.2,14.34-17.56C425.35,29.82,421.89,24.5,411,24.5Z"/><path class="cls-8" d="M453.92,64.81c-13.85,0-18.92-5.94-18.92-22.26s4.57-22.26,18.92-22.26c14.59,0,19,5.32,19,22.26C472.84,60.11,467.64,64.81,453.92,64.81Zm0-40.06c-11.26,0-14.47,4.32-14.47,17.8s3.34,17.93,14.47,17.93c11.5,0,14.59-4.45,14.59-17.93S465.42,24.75,453.92,24.75Z"/><path class="cls-8" d="M497.07,64.81c-13.85,0-18.92-5.94-18.92-22.26s4.58-22.26,18.92-22.26c14.59,0,19,5.32,19,22.26C516.11,60.11,510.8,64.81,497.07,64.81Zm0-40.06c-11.25,0-14.47,4.32-14.47,17.8s3.34,17.93,14.47,17.93c11.5,0,14.59-4.45,14.59-17.93S508.57,24.75,497.07,24.75Z"/><path class="cls-9" d="M25.34,73.59c1.11,0,3.46.49,3.46,2v1.11H27.31v-.49c0-.62-1.11-1-2-1a2.89,2.89,0,0,0-3,3.09,3.19,3.19,0,0,0,3,3.34,4.12,4.12,0,0,0,2.84-1.24L29,81.63a5.3,5.3,0,0,1-3.7,1.48,4.76,4.76,0,0,1,0-9.52Z"/><path class="cls-9" d="M34.61,75.2h-.87V73.71H38a2.73,2.73,0,0,1,2.84,2.85A2.59,2.59,0,0,1,39.31,79h0a1.39,1.39,0,0,1,.49.49l.87,1.74c.12.24.37.24.62.24h.24V83h-.86c-.62,0-1-.13-1.24-.62L38.32,80c-.25-.37-.37-.37-.87-.37h-1v3.46H34.73V75.2ZM37.7,78a1.49,1.49,0,0,0,0-3H36.34v2.85H37.7Z"/><path class="cls-9" d="M46.73,75.2h-.87V73.71h5.57c.61,0,.86.25.86.87v1.48H50.81v-.62c0-.24-.13-.24-.25-.24h-2.1v2.47h3v1.48h-3v2.23c0,.25.12.25.25.25h2.1c.25,0,.25-.13.25-.25v-.62h1.48v1.49c0,.61-.25.86-.87.86h-4.2c-.62,0-.87-.25-.87-.86l.13-7Z"/><path class="cls-9" d="M57,81.5h.25c.25,0,.25-.12.37-.24l2.72-7.55h1.73l2.72,7.55a.35.35,0,0,0,.37.24h.25V83h-1a1.07,1.07,0,0,1-1.11-.74l-.62-1.61H59.59L59,82.25c-.25.61-.37.74-1.11.74H56.74L57,81.5Zm5.44-2.35-.74-2.35a5.42,5.42,0,0,1-.37-1.36h0s-.25.87-.37,1.36l-.74,2.35Z"/><path class="cls-9" d="M71.71,75.2H70.22c-.25,0-.25.12-.25.24v.62H68.49V74.58c0-.62.25-.87.87-.87h6.43c.61,0,.86.25.86.87v1.48H75.17v-.62c0-.24-.13-.24-.25-.24H73.44V83H71.71V75.2Z"/><path class="cls-9" d="M81.23,81.5h1V75.07h-1V73.59h3.46v1.48h-1V81.5h1V83H81.23Z"/><path class="cls-9" d="M89.76,75.44c-.13-.24-.25-.24-.37-.24h-.25V73.71h1.11a1.09,1.09,0,0,1,1.12.74l1.73,5.07a6.07,6.07,0,0,1,.37,1.36h0s.25-.86.37-1.36l1.73-5.07c.25-.61.37-.74,1.11-.74H97.8V75.2h-.25c-.25,0-.25.12-.37.24L94.33,83H92.48Z"/><path class="cls-9" d="M103.11,75.2h-.86V73.71h5.56c.62,0,.87.25.87.87v1.48h-1.49v-.62c0-.24-.12-.24-.24-.24h-2.11v2.47h3v1.48h-3v2.23c0,.25.13.25.25.25h2.1c.25,0,.25-.13.25-.25v-.62h1.48v1.49c0,.61-.24.86-.86.86h-4.2c-.62,0-.87-.25-.87-.86l.12-7Z"/><path class="cls-9" d="M120.8,81.5h.37c.24,0,.24-.12.24-.24l.62-7.55h1.73l2,4.33.5,1.24h0l.49-1.24,2-4.33h1.73l.62,7.55c0,.24.12.24.25.24h.37V83h-1.49c-.62,0-.74-.25-.86-.87L129.08,78a5.51,5.51,0,0,1,0-1.48h0s-.25.86-.49,1.48l-1.49,3.34h-1.36L124.26,78a9.49,9.49,0,0,1-.5-1.48h0V78l-.24,4.08c-.13.62-.25.87-.87.87h-1.48V81.5Z"/><path class="cls-9" d="M136.25,81.5h1V75.07h-1V73.59h3.46v1.48h-.86V81.5h1V83h-3.46V81.5Z"/><path class="cls-9" d="M144.54,81.5h.62c.24,0,.24-.12.24-.24V73.71h1.49l3.46,5.07.74,1.24h0a9.79,9.79,0,0,1-.12-1.24v-4.2c0-.62.24-.87.86-.87h1.61V75.2h-.62c-.25,0-.25.12-.25.24V83h-1.36l-3.46-5.07a10.15,10.15,0,0,1-.74-1.24h0a9.79,9.79,0,0,1,.12,1.24v4.2c0,.62-.24.87-.86.87h-1.61V81.5Z"/><path class="cls-9" d="M158.51,81.5h1V75.07h-1V73.59H162v1.48h-1V81.5h1V83h-3.46Z"/><path class="cls-9" d="M166.55,81.5h.37c.25,0,.25-.12.25-.24l.61-7.55h1.73l2,4.33.5,1.24h0l.49-1.24,2-4.33h1.73l.62,7.55c0,.24.12.24.25.24h.37V83h-1.49c-.61,0-.74-.25-.86-.87L174.83,78a5.51,5.51,0,0,1,0-1.48h0s-.25.86-.49,1.48l-1.49,3.34h-1.36L170,78a9.49,9.49,0,0,1-.5-1.48h0V78l-.24,4.08c-.13.62-.25.87-.87.87h-1.48V81.5Z"/><path class="cls-9" d="M181.63,81.5h.25c.25,0,.25-.12.37-.24L185,73.71h1.73l2.72,7.55c.13.24.25.24.37.24H190V83h-1a1.08,1.08,0,0,1-1.11-.74l-.62-1.61h-3.09l-.62,1.61c-.25.61-.37.74-1.11.74h-1.11l.24-1.49Zm5.44-2.35-.74-2.35a5.42,5.42,0,0,1-.37-1.36h0s-.25.87-.37,1.36l-.74,2.35Z"/><path class="cls-9" d="M195.48,75.44c0-.24-.12-.24-.25-.24h-.61V73.71h1.6c.62,0,.87.25.87.87v6.55c0,.25.12.25.25.25h2c.24,0,.24-.12.24-.25v-.62h1.49V82c0,.62-.25.86-.87.86H196.1c-.62,0-.87-.24-.87-.86V75.44Z"/><path class="cls-9" d="M215.76,75.2h-1.48c-.25,0-.25.12-.25.24v.62h-1.48V74.58c0-.62.24-.87.86-.87h6.43c.62,0,.87.25.87.87v1.48h-1.49v-.62c0-.24-.12-.24-.24-.24h-1.49V83h-1.73V75.2Z"/><path class="cls-9" d="M226.15,75.2h-.87V73.71h5.57c.62,0,.86.25.86.87v1.48h-1.48v-.62c0-.24-.13-.24-.25-.24h-2.1v2.47h3v1.48h-3v2.23c0,.25.12.25.25.25h2.1c.25,0,.25-.13.25-.25v-.62H232v1.49c0,.61-.25.86-.87.86h-4.2c-.62,0-.87-.25-.87-.86v-7Z"/><path class="cls-9" d="M236.41,81.5h.37c.25,0,.25-.12.25-.24l.62-7.55h1.73l2,4.33.49,1.24h0l.5-1.24,2-4.33h1.73l.61,7.55c0,.24.13.24.25.24h.37V83h-1.48c-.62,0-.74-.25-.87-.87L244.7,78a5.09,5.09,0,0,1,0-1.48h0s-.25.86-.5,1.48l-1.48,3.34h-1.36L239.87,78a10.25,10.25,0,0,1-.49-1.48h0V78l-.25,4.08c-.12.62-.25.87-.86.87h-1.49V81.5Z"/><path class="cls-9" d="M252.61,75.2h-.87V73.71H256a3,3,0,0,1,0,5.94h-1.61v3.21h-1.73Zm3.09,3.09a1.49,1.49,0,1,0,0-3h-1.36v3.22l1.36-.25Z"/><path class="cls-9" d="M264.48,75.44c0-.24-.12-.24-.25-.24h-.61V73.71h1.6c.62,0,.87.25.87.87v6.55c0,.25.12.25.25.25h2c.25,0,.25-.12.25-.25v-.62H270V82c0,.62-.24.86-.86.86H265.1c-.62,0-.87-.24-.87-.86V75.44Z"/><path class="cls-9" d="M274.5,81.5h.24c.25,0,.25-.12.37-.24l2.73-7.55h1.73l2.72,7.55c.12.24.24.24.37.24h.24V83h-1a1.09,1.09,0,0,1-1.12-.74l-.62-1.61h-3.09l-.62,1.61c-.24.61-.37.74-1.11.74h-1.11l.25-1.49Zm5.44-2.35-.74-2.35a5.63,5.63,0,0,1-.38-1.36h0s-.24.87-.37,1.36l-.74,2.35Z"/><path class="cls-9" d="M289.33,75.2h-1.48c-.25,0-.25.12-.25.24v.62h-1.48V74.58c0-.62.25-.87.87-.87h6.43c.61,0,.86.25.86.87v1.48H292.8v-.62c0-.24-.13-.24-.25-.24h-1.48V83h-1.74V75.2Z"/><path class="cls-9" d="M299.6,75.2h-.87V73.71h5.57c.62,0,.86.25.86.87v1.48h-1.48v-.62c0-.24-.12-.24-.25-.24h-2.1v2.47h3v1.48h-3v2.23c0,.25.12.25.25.25h2.1c.25,0,.25-.13.25-.25v-.62h1.48v1.49c0,.61-.25.86-.87.86h-4.2c-.62,0-.87-.25-.87-.86v-7Z"/><path class="cls-9" d="M318.39,75.2h-.86V73.71h3.71c2.84,0,4.7,1.61,4.7,4.58s-1.86,4.57-4.7,4.57h-2c-.62,0-.87-.24-.87-.86V75.2Zm1.86,6.3h.86c1.86,0,3-1.11,3-3.21a2.93,2.93,0,0,0-3-3.22H320v6.06C320,81.38,320.12,81.5,320.25,81.5Z"/><path class="cls-9" d="M331.5,75.2h-.86V73.71h5.56c.62,0,.87.25.87.87v1.48h-1.49v-.62c0-.24-.12-.24-.25-.24h-2.1v2.47h3v1.48h-3v2.23c0,.25.13.25.25.25h2.1c.25,0,.25-.13.25-.25v-.62h1.48v1.49c0,.61-.24.86-.86.86h-4.21c-.62,0-.86-.25-.86-.86v-7Z"/><path class="cls-9" d="M343,80.51a3.45,3.45,0,0,0,2.23,1.12,1.25,1.25,0,0,0,1.36-1.12c0-1.48-4.33-1.48-4.33-4.32,0-1.49,1.24-2.6,3.09-2.6,1.11,0,2.72.49,2.72,1.85v.87h-1.48v-.37c0-.37-.62-.62-1.24-.62s-1.36.37-1.36,1c0,1.48,4.33,1.24,4.33,4.2a2.78,2.78,0,0,1-3.09,2.72A4.53,4.53,0,0,1,342,81.75Z"/><path class="cls-9" d="M353.14,81.5h1V75.07h-1V73.59h3.46v1.48h-1V81.5h1V83h-3.46Z"/><path class="cls-9" d="M366.12,73.59a4.87,4.87,0,0,1,3.34,1.11l-1,1.24a4.29,4.29,0,0,0-2.35-.74,3,3,0,0,0-3,3.09,3.11,3.11,0,0,0,3,3.34,3.28,3.28,0,0,0,2.35-1V80c0-.25-.12-.25-.24-.25h-.62V78.29h1.48c.62,0,.87.25.87.86v4H368.6v-1h0a4,4,0,0,1-2.72,1c-2.48,0-4.46-1.85-4.46-4.82A4.62,4.62,0,0,1,366.12,73.59Z"/><path class="cls-9" d="M374.9,81.5h.62c.25,0,.25-.12.25-.24V73.71h1.48l3.46,5.07.75,1.24h0a9.06,9.06,0,0,1-.13-1.24v-4.2c0-.62.25-.87.87-.87h1.61V75.2h-.62c-.25,0-.25.12-.25.24V83h-1.48L378,77.92a10.15,10.15,0,0,1-.74-1.24h0a9.06,9.06,0,0,1,.13,1.24v4.2c0,.62-.25.87-.87.87H374.9V81.5Z"/><path class="cls-9" d="M397,75.2h-.87V73.71h5.19c.62,0,.87.25.87.87v1.48h-1.48v-.62c0-.24-.13-.24-.25-.24h-1.73v2.59h3v1.49h-3V83H397V75.2Z"/><path class="cls-9" d="M411.5,73.59a4.55,4.55,0,0,1,4.7,4.7,4.7,4.7,0,1,1-9.39,0A4.54,4.54,0,0,1,411.5,73.59Zm0,7.91a3.18,3.18,0,0,0,3-3.34,3,3,0,1,0-3,3.34Z"/><path class="cls-9" d="M421.77,75.2h-.87V73.71h4.21A2.73,2.73,0,0,1,428,76.56,2.59,2.59,0,0,1,426.47,79h0a1.49,1.49,0,0,1,.49.49l.87,1.74c.12.24.37.24.61.24h.25V83h-.86c-.62,0-1-.13-1.24-.62L425.48,80c-.25-.37-.37-.37-.87-.37h-.86v3.46H422l-.24-7.91ZM424.86,78a1.49,1.49,0,0,0,0-3H423.5v2.85h1.36Z"/><path class="cls-9" d="M440.19,79.65h1.73V80c0,1.11.62,1.48,1.24,1.48s1.11-.37,1.11-1.36v-4.7c0-.24-.12-.24-.24-.24H441.8V73.71h3.34c.62,0,.86.25.86.87v5.56a2.84,2.84,0,1,1-5.68,0l-.13-.49Z"/><path class="cls-9" d="M456.14,73.59a4.55,4.55,0,0,1,4.7,4.7,4.7,4.7,0,1,1-9.4,0A4.48,4.48,0,0,1,456.14,73.59Zm0,7.91a3.18,3.18,0,0,0,3-3.34,3,3,0,1,0-5.93,0A3,3,0,0,0,456.14,81.5Z"/><path class="cls-9" d="M470.24,73.59a4.55,4.55,0,0,1,4.7,4.7,4.7,4.7,0,1,1-9.4,0A4.55,4.55,0,0,1,470.24,73.59Zm0,7.91a3.18,3.18,0,0,0,3-3.34,3,3,0,1,0-5.94,0A3.18,3.18,0,0,0,470.24,81.5Z"/><path class="cls-9" d="M479.51,81.5h.37c.25,0,.25-.12.25-.24l.62-7.55h1.73l2,4.33c.25.62.49,1.24.49,1.24h0l.5-1.24,2-4.33h1.73l.62,7.55c0,.24.12.24.24.24h.38V83h-1.49c-.62,0-.74-.25-.86-.87L487.8,78a5.09,5.09,0,0,1,0-1.48h0s-.25.86-.5,1.48l-1.48,3.34h-1.36L483,78a9.49,9.49,0,0,1-.5-1.48h0V78l-.25,4.08c-.12.62-.24.87-.86.87h-1.49V81.5Z"/><path class="cls-9" d="M495.84,75.44c0-.24-.13-.24-.25-.24H495V73.71h1.61c.62,0,.86.25.86.87v6.55c0,.25.13.25.25.25h2c.25,0,.25-.12.25-.25v-.62h1.48V82c0,.62-.25.86-.87.86h-4.08c-.61,0-.86-.24-.86-.86l.25-6.56Z"/><path class="cls-9" d="M506,81.5h.24c.25,0,.25-.12.37-.24l2.72-7.55h1.74l2.72,7.55c.12.24.24.24.37.24h.24V83h-1a1.09,1.09,0,0,1-1.11-.74l-.62-1.61h-3.09L508,82.25c-.24.61-.37.74-1.11.74h-1.11L506,81.5Zm5.31-2.35-.74-2.35a5.42,5.42,0,0,1-.37-1.36h0s-.25.87-.37,1.36l-.74,2.35Z"/></g></g></svg>