<svg xmlns="http://www.w3.org/2000/svg" viewBox="0 0 672.33 52.8"><defs><style>.cls-1{fill:#344150;}</style></defs><title>joomlart</title><g id="Layer_2" data-name="Layer 2"><g id="Layer_1-2" data-name="Layer 1"><path class="cls-1" d="M130.89,0H86.28A16.6,16.6,0,0,0,69.74,16.54V36.26A16.6,16.6,0,0,0,86.28,52.8h44.61a16.6,16.6,0,0,0,16.54-16.54V16.54A16.63,16.63,0,0,0,130.89,0Zm-7.16,33.2a8.72,8.72,0,0,1-8.67,8.67H101.19a8.72,8.72,0,0,1-8.67-8.67V19.6a8.72,8.72,0,0,1,8.67-8.67H115a8.72,8.72,0,0,1,8.67,8.67Z"/><path class="cls-1" d="M220.34,0H175.73A16.59,16.59,0,0,0,159.2,16.54V36.26A16.6,16.6,0,0,0,175.73,52.8h44.61a16.6,16.6,0,0,0,16.54-16.54V16.54A16.62,16.62,0,0,0,220.34,0Zm-7.15,33.2a8.72,8.72,0,0,1-8.67,8.67H190.64A8.71,8.71,0,0,1,182,33.2V19.6a8.71,8.71,0,0,1,8.66-8.67h13.84a8.72,8.72,0,0,1,8.67,8.67Z"/><path class="cls-1" d="M31.89,0H57.77V44.81a9.92,9.92,0,0,1-6,7.95H0l6-7.95H24.09a6.63,6.63,0,0,0,2-.32c2-.6,5.53-2.31,5.77-6.68Z"/><polygon class="cls-1" points="249.01 0 249.01 52.8 259.98 52.8 259.98 29.9 284.87 52.8 292.82 52.8 314.73 30.89 314.73 52.8 339.66 52.8 339.66 0 328.69 0 293.86 32.88 259.94 0 249.01 0"/><path class="cls-1" d="M352.58,0V46.64a6.29,6.29,0,0,0,1,3.38,5.67,5.67,0,0,0,5,2.74h53.79l8.95-10.93H383.48s-6-.08-6-6V0Z"/><polygon class="cls-1" points="466.13 41.83 457.19 52.8 423.31 52.8 464.15 0 467.13 0 507.96 52.8 485.06 52.8 463.15 23.89 449.2 41.83 466.13 41.83"/><path class="cls-1" d="M516,52.8V0h62.86a10.42,10.42,0,0,1,6.32,2.11c2.35,1.83,4.7,5.21,4.54,11.33-.32,12-10.06,13.4-13.88,14.43l24.85,24.89H571.73l-24.88-22.9v-7h11a5.75,5.75,0,0,0,2-.36c1.75-.63,4.65-1.87,4.89-5.48.24-4.06-2-6.13-6.05-6.09H540.88V52.8Z"/><polygon class="cls-1" points="603.58 0 672.33 0 672.33 10.93 650.42 10.97 650.42 52.8 624.53 52.8 624.53 10.97 603.58 10.97 603.58 0"/></g></g></svg>