<svg xmlns="http://www.w3.org/2000/svg" viewBox="0 0 546.35 163.54"><defs><style>.cls-1,.cls-2{fill:#344150;}.cls-2{fill-rule:evenodd;}</style></defs><title>shape5</title><g id="Layer_2" data-name="Layer 2"><g id="Layer_1-2" data-name="Layer 1"><path class="cls-1" d="M73.78,54.57a2.42,2.42,0,0,1-2.55,1.7c-.17,0-.34-.17-.68-.17-1.7-.17-11.39-2.38-20.4-2.38-4.25,0-9.35.51-12.58,3.06a9.2,9.2,0,0,0-3.23,7.31v.17c.17,7.14,7.82,7.48,15.64,9,6.8,1,13.6,2.72,18,7.14,3.4,3.23,5.44,8.16,5.44,15.64,0,8.33-2.55,16.83-8.5,23.12C57.46,127,45.56,129.88,32.3,129.88c-14.62,0-27.88-3.57-30.77-4.93-.51-.34-1.53-.51-1.53-2a5.24,5.24,0,0,1,.17-1.53l3.4-10.88c.51-1.53,1.19-2,2.21-2a1.53,1.53,0,0,1,.85.17c2.21.51,13.94,3.91,24.48,3.91,4.76,0,9.18-.85,12.07-3.4a9.71,9.71,0,0,0,3.57-7.82c0-3.57-1.19-5.44-3.57-6.63s-5.61-1.7-9.52-2.38c-6.29-1.19-15-2.38-20.57-7.82-3.23-3.4-5.27-8-5.27-15.13,0-7.48,2-15.47,6.8-21.25,8.5-10.2,23-11.73,33.83-11.73a94.1,94.1,0,0,1,27.2,3.91,2,2,0,0,1,1.53,2.21v.85Z"/><path class="cls-1" d="M167.28,71.91l-6.46,53.38a2.86,2.86,0,0,1-3.06,2.55H137c-1.53,0-2.55-.85-2.55-2.21a.53.53,0,0,1,.17-.34l6.8-55.42c.17-2.38.68-5.27.68-8,0-2.55-.51-4.25-1.7-5.61-1.53-1.7-3.91-2.38-7.65-2.38a105,105,0,0,0-18.53,2l-8.5,69.36a2.86,2.86,0,0,1-3.06,2.55H81.94c-1.53,0-2.55-.85-2.55-2.21v-.34L94,7.31c.17-2.38,1.19-3.74,3.57-4.08L117.3,0h.85c1.53,0,2.55.68,2.55,2.38v.51l-3.23,26.52L114.24,40c8.33-1.87,18.53-3.57,27-3.57,9.69,0,17.17,1.36,21.93,5.27C166.94,44.71,169,49.3,169,56.1,169,61.2,168,67.15,167.28,71.91Z"/><path class="cls-1" d="M258.39,71.91,253.63,110c-1.7,12.92-6.63,15.13-18.7,17.68a107,107,0,0,1-24.47,2.38c-11.05,0-22.78-.85-30.26-6.29-4.93-3.57-8-9.18-8-18,0-7.31,1.87-15.13,6.29-20.74,6.12-7.48,15.29-9.35,23.79-10.54l30.09-4.76s.86-5.78.86-8.33A5.39,5.39,0,0,0,230,55.93c-2.37-1.19-6.29-1.7-11.89-1.7-11.05,0-24.48,3.57-29.07,4.59a4.32,4.32,0,0,1-1.19.34A1.71,1.71,0,0,1,186,57.63L185,45.9v-.34a2.86,2.86,0,0,1,2.37-3.06c3.92-1.53,20.41-6.12,38.59-6.12,11.91,0,19.89,1.7,25.16,4.93,6.46,3.91,8.5,9.86,8.5,17.17A87.65,87.65,0,0,1,258.39,71.91ZM212.16,88.23c-4.25.68-8.16,1.36-10.71,4.42-2.21,2.72-3.06,6.8-3.06,10.2s.85,5.61,2.55,7.31c2.89,3.06,8.15,3.4,12.23,3.4a56.56,56.56,0,0,0,14.29-1.87l3.22-26.35Z"/><path class="cls-1" d="M349.17,102.51c-5.1,15.81-15.29,27.54-38.59,27.54A79.45,79.45,0,0,1,287.8,127l.69,10.71-2.38,18.53c-.17,2.38-1.19,3.74-3.57,4.08l-19.72,3.23H262c-1.53,0-2.55-.68-2.55-2.38v-.68L272.33,55.93c1-9.69,5.45-11.9,12.92-14.28a130.19,130.19,0,0,1,36-5.27c12.41,0,20.57,2.89,25.5,7.82,5.61,5.27,7.48,13.26,7.48,22.78C354.27,77.86,352.4,92.14,349.17,102.51ZM325.38,58.14c-2.21-3.4-6-3.91-11.57-3.91-6.8,0-15.3,2.21-15.3,2.21l-6.8,54.4a56.91,56.91,0,0,0,13.09,1.53c11.74,0,16.83-3.23,20.06-19.55a122.61,122.61,0,0,0,2.56-23.63C327.42,63.24,326.9,60.35,325.38,58.14Z"/><path class="cls-1" d="M386.57,95h-2v2.72c0,5.78,2.21,9.69,7,12.07,4.08,1.87,9.52,2.72,16.32,2.72,9.86,0,19.55-2.89,24-4.08h.68c1.19,0,2,.85,2.38,2.55l1.19,9.52v.68a3.39,3.39,0,0,1-2.21,3.23c-11.05,4.08-22.78,5.61-34.34,5.61-29.24,0-40.29-12.92-40.29-36.72,0-18.7,6.12-35.7,12.58-43.69,8-9.86,21.59-13.26,35.87-13.26,22.27,0,37.91,5.78,37.91,28.9C445.56,93.33,421.93,94.52,386.57,95ZM406,53.55c-15.64,0-19.21,13.6-19.89,27,19.55-1,34.68.51,34.68-13.77C420.74,57.46,415,53.55,406,53.55Z"/><path class="cls-1" d="M488,71.42H467.18s11.52-35.67,52.3-25.88l.5.14c3.34,1.07,35.59,12.79,16.24,59.43a14.2,14.2,0,0,1-1.08,2.13,50.68,50.68,0,0,1-39.33,23.19s-37.54,2.13-36.54-37.5h23.57s-2,17.41,13.93,17.41a8.45,8.45,0,0,0,1.42-.15c4-.78,20.74-5.43,20.62-28.34,0,0,.61-9.37-5.64-15.47a7.34,7.34,0,0,0-1.45-1.09C508.78,63.53,499.58,59.8,488,71.42Z"/><polygon class="cls-1" points="542.24 30.48 478.74 30.48 485.23 8.01 546.35 8.01 542.24 30.48"/><polygon class="cls-2" points="119.03 16.7 119.01 16.82 116.16 40.04 111.69 41.65 119.03 16.7"/><polygon class="cls-2" points="286.6 152.43 290.3 123.34 282.8 123.38 286.6 152.43"/></g></g></svg>