<svg width="48" height="48" viewBox="0 0 48 48" fill="none" xmlns="http://www.w3.org/2000/svg">
<g clip-path="url(#clip0_1626_3453)">
<g clip-path="url(#clip1_1626_3453)">
<path d="M42.1746 26.2365V24.0141C42.1746 23.6249 41.8591 23.3095 41.47 23.3095C41.081 23.3095 40.7655 23.6249 40.7655 24.0141V25.656C39.7339 25.3167 38.6326 25.1324 37.4889 25.1324C37.4069 25.1324 37.3242 25.1342 37.2415 25.1362V15.2595C37.2415 14.8703 36.9261 14.555 36.537 14.555H36.2582L39.0035 11.6363L41.7487 14.555H41.4699C41.0809 14.555 40.7654 14.8703 40.7654 15.2595V21.2647C40.7654 21.6538 41.0808 21.9692 41.4699 21.9692C41.8591 21.9692 42.1745 21.6538 42.1745 21.2647V15.964H43.3786C43.9774 15.9839 44.3164 15.1993 43.8918 14.7769L39.5167 10.1256C39.2524 9.8324 38.7546 9.8324 38.4904 10.1256L34.1152 14.7769C33.6906 15.1994 34.0298 15.9839 34.6284 15.964H35.8326V21.2496C34.9253 19.721 33.6325 18.451 32.0927 17.57V9.01059H33.2968C33.8956 9.03046 34.2346 8.24578 33.81 7.82343L29.4349 3.17221C29.1706 2.87906 28.6728 2.87906 28.4086 3.17221L24.0335 7.82343C23.6087 8.24587 23.948 9.03056 24.5467 9.01059H25.7508V16.3008C24.4104 16.466 23.1457 16.8902 22.011 17.5252V13.975H23.2151C23.8139 13.9949 24.1529 13.2102 23.7283 12.7878L19.3532 8.13656C19.0889 7.8434 18.5911 7.8434 18.3269 8.13656L13.9518 12.7878C13.5271 13.2103 13.8663 13.9948 14.465 13.975H15.6691V23.6356C15.3345 23.5984 14.9971 23.5787 14.6574 23.5787C13.7073 23.5787 12.7909 23.7258 11.9292 23.9973V7.9034H13.1333C13.7321 7.92328 14.0711 7.13868 13.6465 6.71624L9.27122 2.06484C9.00703 1.77168 8.50912 1.77168 8.24494 2.06484L3.86972 6.71615C3.44494 7.13868 3.78422 7.92318 4.38291 7.90331H5.58703V13.682C5.58703 14.0711 5.9025 14.3865 6.29156 14.3865C6.68062 14.3865 6.99609 14.0711 6.99609 13.682V7.19887C6.99609 6.80971 6.68072 6.49434 6.29156 6.49434H6.01275L8.75803 3.57571L11.5033 6.49434H11.2245C10.8354 6.49434 10.52 6.80971 10.52 7.19887V24.5758C9.08147 25.3138 7.86431 26.424 6.99591 27.7785V16.5001C6.99591 16.1109 6.68053 15.7956 6.29138 15.7956C5.90231 15.7956 5.58684 16.1109 5.58684 16.5001V32.0188C5.58459 32.0508 5.58178 32.0827 5.57981 32.1148C2.3595 32.819 0 35.7007 0 39.0517C0 42.9682 3.18628 46.1544 7.10269 46.1544H28.7674C29.1564 46.1544 29.4719 45.8391 29.4719 45.4499C29.4719 45.0607 29.1565 44.7454 28.7674 44.7454H7.10269C3.96319 44.7454 1.40897 42.1912 1.40897 39.0517C1.40897 36.202 3.53728 33.7757 6.35953 33.4079C6.71147 33.3621 6.97434 33.0615 6.97303 32.7066C6.97294 32.694 6.97266 32.6814 6.97209 32.6662C6.97547 28.4315 10.4217 24.9875 14.6572 24.9875C15.5912 24.9875 16.5065 25.1547 17.3773 25.4844C17.7755 25.6465 18.2579 25.3708 18.321 24.9457C19.0549 20.7075 22.7134 17.6313 27.0202 17.6313C31.6833 17.6313 35.5547 21.2744 35.834 25.9252C35.905 26.8015 36.8918 26.5371 37.4891 26.5415C42.508 26.5415 46.5911 30.6247 46.5911 35.6435C46.5911 40.6623 42.508 44.7455 37.4891 44.7455H31.5853C31.1963 44.7455 30.8808 45.0608 30.8808 45.45C30.8808 45.8392 31.1963 46.1545 31.5853 46.1545H37.4889C43.2847 46.1545 48 41.4393 48 35.6435C48 31.5304 45.6249 27.9622 42.1746 26.2365ZM28.9217 4.68309L31.667 7.60162H31.3883C30.9992 7.60162 30.6837 7.91699 30.6837 8.30615V16.9004C29.5852 16.4782 28.3973 16.2408 27.1598 16.2241V8.30606C27.1598 7.9169 26.8443 7.60153 26.4552 7.60153H26.1764L28.9217 4.68309ZM17.102 23.9125C17.094 23.9103 17.0858 23.9084 17.0779 23.9062V13.2704C17.0779 12.8812 16.7624 12.5659 16.3733 12.5659H16.0946L18.8399 9.64734L21.5852 12.5659H21.3065C20.9174 12.5659 20.6019 12.8812 20.6019 13.2704V18.476C18.9166 19.8297 17.6625 21.7138 17.102 23.9125Z" fill="#4D6BFF"/>
<path d="M26.5479 31.9677C26.937 31.9677 27.2525 31.6523 27.2525 31.2631C27.2525 30.874 26.937 30.5586 26.5479 30.5586H23.249C22.8599 30.5586 22.5444 30.874 22.5444 31.2631V39.0927C22.5444 39.4818 22.8599 39.7972 23.249 39.7972H26.5479C26.937 39.7972 27.2525 39.4818 27.2525 39.0927C27.2525 38.7035 26.937 38.3881 26.5479 38.3881H23.9534V35.8824H26.3047C26.6937 35.8824 27.0092 35.567 27.0092 35.1778C27.0092 34.7887 26.6938 34.4733 26.3047 34.4733H23.9534V31.9676H26.5479V31.9677Z" fill="#4D6BFF"/>
<path d="M18.1969 38.4242C17.3329 38.4242 16.4987 38.0728 15.9655 37.4843C15.7042 37.196 15.2587 37.1742 14.9703 37.4353C14.682 37.6966 14.6601 38.1421 14.9213 38.4304C15.7172 39.3088 16.9417 39.8332 18.1968 39.8332C19.7 39.8332 21.0096 38.8473 21.243 37.54C21.5123 36.0319 20.3264 35.0217 19.1268 34.5793C18.11 34.2042 17.1668 33.7947 16.9287 33.6902C16.6762 33.5051 16.5537 33.2096 16.5996 32.8899C16.6573 32.4874 16.9665 32.1645 17.4268 32.0259C18.6944 31.6438 19.84 32.5624 19.8626 32.5809C20.1604 32.8291 20.603 32.7899 20.8527 32.4929C21.103 32.195 21.0645 31.7506 20.7667 31.5003C20.6968 31.4416 19.034 30.0704 17.0203 30.6768C16.0362 30.9733 15.3405 31.7446 15.2048 32.6898C15.0785 33.5699 15.4596 34.4161 16.1994 34.8984C16.2305 34.9188 16.2632 34.9366 16.2972 34.9517C16.3425 34.9718 17.4223 35.4525 18.639 35.9013C19.5126 36.2235 19.9561 36.7306 19.8558 37.2925C19.758 37.8409 19.1433 38.4242 18.1969 38.4242Z" fill="#4D6BFF"/>
<path d="M37.2566 35.1778C37.2566 32.6109 35.1683 30.5226 32.6014 30.5226C30.0344 30.5226 27.946 32.611 27.946 35.1778C27.946 37.7448 30.0344 39.8331 32.6014 39.8331C35.1683 39.8332 37.2566 37.7448 37.2566 35.1778ZM29.355 35.1778C29.355 33.3878 30.8113 31.9316 32.6013 31.9316C34.3913 31.9316 35.8476 33.3878 35.8476 35.1778C35.8476 36.9679 34.3913 38.4241 32.6013 38.4241C30.8113 38.4242 29.355 36.9679 29.355 35.1778Z" fill="#4D6BFF"/>
</g>
</g>
<defs>
<clipPath id="clip0_1626_3453">
<rect width="48" height="48" fill="white" transform="translate(0 -0.000244141)"/>
</clipPath>
<clipPath id="clip1_1626_3453">
<rect width="48" height="48" fill="white" transform="translate(0 -0.000244141)"/>
</clipPath>
</defs>
</svg>
