<svg width="48" height="48" viewBox="0 0 48 48" fill="none" xmlns="http://www.w3.org/2000/svg">
<g clip-path="url(#clip0_1626_3442)">
<g clip-path="url(#clip1_1626_3442)">
<path d="M21.375 17.9998H0.75C0.3 17.9998 0 17.6248 0 17.2498V12.4498C0 10.3498 1.725 8.5498 3.9 8.5498H23.925C24.375 8.5498 24.675 8.9248 24.675 9.2998C24.675 9.6748 24.3 10.0498 23.925 10.0498H3.825C2.55 10.0498 1.5 11.0998 1.5 12.3748V16.4248H21.375C21.825 16.4248 22.125 16.7998 22.125 17.1748C22.125 17.5498 21.825 17.9998 21.375 17.9998Z" fill="#4D6BFF"/>
<path d="M3.825 45.7498C2.775 45.7498 1.8 45.3748 1.125 44.6248C0.375 43.8748 0 42.8998 0 41.8498V17.1748C0 16.7248 0.375 16.4248 0.75 16.4248H21.375C21.825 16.4248 22.125 16.7998 22.125 17.1748C22.125 17.5498 21.75 17.9248 21.375 17.9248H1.5V41.7748C1.5 42.3748 1.725 42.9748 2.175 43.4248C2.625 43.8748 3.225 44.0998 3.825 44.0998H39C40.275 44.0998 41.325 43.0498 41.325 41.7748V26.7748C41.325 26.3248 41.7 26.0248 42.075 26.0248C42.45 26.0248 42.825 26.3998 42.825 26.7748V41.7748C42.825 43.8748 41.1 45.6748 38.925 45.6748H3.825V45.7498Z" fill="#4D6BFF"/>
<path d="M6.75001 14.0248H5.10001C4.65001 14.0248 4.35001 13.6498 4.35001 13.2748C4.35001 12.8998 4.72501 12.5248 5.10001 12.5248H6.75001C7.20001 12.5248 7.50001 12.8998 7.50001 13.2748C7.50001 13.6498 7.20001 14.0248 6.75001 14.0248Z" fill="#4D6BFF"/>
<path d="M10.425 14.0248H8.77499C8.32499 14.0248 8.02499 13.6498 8.02499 13.2748C8.02499 12.8998 8.39999 12.5248 8.77499 12.5248H10.425C10.875 12.5248 11.175 12.8998 11.175 13.2748C11.175 13.6498 10.875 14.0248 10.425 14.0248Z" fill="#4D6BFF"/>
<path d="M14.1 14.0248H12.45C12 14.0248 11.7 13.6498 11.7 13.2748C11.7 12.8998 12.075 12.5248 12.45 12.5248H14.1C14.55 12.5248 14.85 12.8998 14.85 13.2748C14.85 13.6498 14.55 14.0248 14.1 14.0248Z" fill="#4D6BFF"/>
<path d="M18.45 31.5748H7.49999C6.22499 31.5748 5.17499 30.5248 5.17499 29.2498V22.7248C5.17499 21.4498 6.22499 20.3998 7.49999 20.3998H18.45C19.725 20.3998 20.775 21.4498 20.775 22.7248V29.2498C20.775 30.5248 19.725 31.5748 18.45 31.5748ZM18.45 21.8998H7.49999C7.04999 21.8998 6.74999 22.2748 6.74999 22.6498V29.2498C6.74999 29.6998 7.12499 29.9998 7.49999 29.9998H18.45C18.9 29.9998 19.2 29.6248 19.2 29.2498V22.7248C19.2 22.2748 18.825 21.8998 18.45 21.8998Z" fill="#4D6BFF"/>
<path d="M26.325 26.9248H25.5C25.05 26.9248 24.75 26.5498 24.75 26.1748C24.75 25.7998 25.125 25.4248 25.5 25.4248H26.325C26.775 25.4248 27.075 25.7998 27.075 26.1748C27.075 26.5498 26.7 26.9248 26.325 26.9248Z" fill="#4D6BFF"/>
<path d="M37.35 31.8748H25.5C25.05 31.8748 24.75 31.4998 24.75 31.1248C24.75 30.7498 25.125 30.3748 25.5 30.3748H37.35C37.8 30.3748 38.1 30.7498 38.1 31.1248C38.1 31.4998 37.725 31.8748 37.35 31.8748Z" fill="#4D6BFF"/>
<path d="M37.35 36.8247H5.54999C5.09999 36.8247 4.79999 36.4497 4.79999 36.0747C4.79999 35.6997 5.17499 35.3247 5.54999 35.3247H37.35C37.8 35.3247 38.1 35.6997 38.1 36.0747C38.1 36.4497 37.725 36.8247 37.35 36.8247Z" fill="#4D6BFF"/>
<path d="M37.35 41.7748H5.54999C5.09999 41.7748 4.79999 41.3998 4.79999 41.0248C4.79999 40.6498 5.17499 40.2748 5.54999 40.2748H37.35C37.8 40.2748 38.1 40.6498 38.1 41.0248C38.1 41.3998 37.725 41.7748 37.35 41.7748Z" fill="#4D6BFF"/>
<path d="M36.3 27.2248H35.1C34.125 27.2248 33.3 26.4748 33.15 25.5748L32.85 23.6998C32.85 23.5498 32.7 23.4748 32.625 23.3998C32.325 23.3248 32.1 23.1748 31.8 23.0998C31.65 23.0248 31.575 23.0248 31.425 23.0998L29.925 24.2248C29.175 24.7498 28.05 24.6748 27.375 23.9998L26.475 23.0998C25.8 22.4248 25.725 21.3748 26.25 20.5498L27.375 19.0498C27.45 18.8998 27.45 18.7498 27.375 18.6748C27.225 18.4498 27.15 18.1498 27 17.8498C26.925 17.6998 26.85 17.6248 26.7 17.6248L24.9 17.3248C23.925 17.1748 23.25 16.3498 23.25 15.3748V14.0998C23.25 13.1248 23.925 12.2998 24.9 12.1498L26.7 11.8498C26.85 11.8498 26.925 11.6998 27 11.6248C27.075 11.3248 27.225 11.0998 27.375 10.7998C27.45 10.6498 27.45 10.4998 27.375 10.4248L26.25 8.92476C25.65 8.17476 25.8 7.12476 26.4 6.37476L27.3 5.47476C27.975 4.79976 29.1 4.72476 29.85 5.32476L31.275 6.44976C31.425 6.59976 31.575 6.52476 31.65 6.44976C31.95 6.29976 32.175 6.22476 32.475 6.07476C32.625 5.99976 32.7 5.92476 32.775 5.77476L33.075 3.89976C33.3 2.99976 34.125 2.24976 35.1 2.24976H36.3C37.275 2.24976 38.1 2.99976 38.25 3.89976L38.55 5.77476C38.55 5.92476 38.7 5.99976 38.775 6.07476C39.075 6.14976 39.3 6.29976 39.6 6.37476C39.75 6.44976 39.825 6.44976 39.975 6.37476L41.475 5.24976C42.225 4.64976 43.35 4.79976 44.025 5.47476L44.925 6.37476C45.6 7.04976 45.675 8.09976 45.15 8.92476L44.025 10.4248C43.95 10.5748 43.95 10.7248 44.025 10.7998C44.175 11.0248 44.25 11.3248 44.4 11.6248C44.475 11.7748 44.55 11.8498 44.7 11.8498L46.5 12.1498C47.475 12.2998 48.15 13.1248 48.15 14.0998V15.3748C48.15 16.3498 47.475 17.1748 46.5 17.3248L44.7 17.6248C44.55 17.6248 44.475 17.7748 44.4 17.8498C44.325 18.1498 44.175 18.3748 44.1 18.6748C44.025 18.8248 44.025 18.9748 44.1 19.1248L45.225 20.6248C45.75 21.3748 45.675 22.4248 45.075 23.1748L43.95 23.9998C43.275 24.6748 42.15 24.7498 41.4 24.1498L39.975 23.0248C39.825 22.8748 39.675 22.9498 39.6 23.0248C39.3 23.1748 39.075 23.2498 38.775 23.3998C38.625 23.4748 38.55 23.5498 38.55 23.6998L38.25 25.5748C38.1 26.4748 37.275 27.2248 36.3 27.2248ZM31.575 21.4498C31.875 21.4498 32.175 21.5248 32.4 21.6748C32.625 21.7498 32.85 21.8998 33.075 21.9748C33.75 22.1998 34.2 22.7998 34.35 23.4748L34.65 25.3498C34.65 25.5748 34.875 25.7248 35.025 25.7248H36.225C36.45 25.7248 36.6 25.5748 36.6 25.4248L36.9 23.5498C36.975 22.8748 37.5 22.2748 38.175 22.0498C38.4 21.9748 38.625 21.8998 38.85 21.7498C39.45 21.4498 40.275 21.5248 40.875 21.9748L42.375 23.0998C42.6 23.2498 42.75 23.1748 42.9 23.0248L43.8 22.1248C43.95 21.9748 43.95 21.7498 43.8 21.5998L42.675 20.0998C42.225 19.4998 42.15 18.7498 42.45 18.1498C42.525 17.9248 42.675 17.6998 42.75 17.4748C42.975 16.7998 43.575 16.2748 44.25 16.1998L46.05 15.8998C46.275 15.8998 46.35 15.6748 46.35 15.5248V14.2498C46.35 14.0248 46.2 13.8748 46.05 13.8748L44.25 13.5748C43.575 13.4998 42.975 12.9748 42.75 12.2998C42.675 12.0748 42.6 11.8498 42.45 11.6248C42.15 10.9498 42.225 10.1998 42.6 9.59976L43.725 8.09976C43.875 7.94976 43.8 7.72476 43.725 7.57476L42.825 6.67476C42.75 6.59976 42.6 6.52476 42.525 6.52476C42.45 6.52476 42.375 6.52476 42.3 6.59976L40.875 7.72476C40.35 8.17476 39.525 8.24976 38.85 7.94976C38.625 7.87476 38.4 7.72476 38.175 7.64976C37.5 7.42476 37.05 6.82476 36.9 6.14976L36.6 4.27476C36.6 4.04976 36.375 3.89976 36.225 3.89976H35.025C34.8 3.89976 34.65 4.04976 34.65 4.19976L34.425 5.99976C34.35 6.67476 33.825 7.27476 33.15 7.49976C32.925 7.57476 32.7 7.64976 32.475 7.79976C31.875 8.09976 31.05 8.02476 30.45 7.57476L28.95 6.44976C28.725 6.22476 28.575 6.37476 28.425 6.52476L27.525 7.42476C27.375 7.57476 27.375 7.79976 27.525 7.94976L28.65 9.44976C29.025 10.0498 29.1 10.7998 28.8 11.3998C28.725 11.6248 28.575 11.8498 28.5 12.0748C28.275 12.7498 27.675 13.2748 27 13.3498L25.2 13.6498C24.975 13.6498 24.9 13.8748 24.9 14.0248V15.2998C24.9 15.5248 25.05 15.6748 25.2 15.6748L27 15.9748C27.675 16.0498 28.275 16.5748 28.5 17.2498C28.575 17.4748 28.65 17.6998 28.8 17.9248C29.1 18.5998 29.025 19.3498 28.575 19.9498L27.45 21.4498C27.3 21.5998 27.375 21.8248 27.45 21.9748L28.35 22.8748C28.5 23.0248 28.65 23.0998 28.875 22.9498L30.375 21.8248C30.75 21.5998 31.2 21.4498 31.575 21.4498Z" fill="#4D6BFF"/>
<path d="M35.7 19.7248C32.925 19.7248 30.675 17.4748 30.675 14.6998C30.675 11.9248 32.925 9.6748 35.7 9.6748C38.475 9.6748 40.725 11.9248 40.725 14.6998C40.725 17.4748 38.475 19.7248 35.7 19.7248ZM35.7 11.2498C33.75 11.2498 32.25 12.8248 32.25 14.6998C32.25 16.6498 33.825 18.1498 35.7 18.1498C37.575 18.1498 39.15 16.5748 39.15 14.6998C39.15 12.8248 37.575 11.2498 35.7 11.2498Z" fill="#4D6BFF"/>
</g>
</g>
<defs>
<clipPath id="clip0_1626_3442">
<rect width="48" height="48" fill="white" transform="translate(0 -0.000244141)"/>
</clipPath>
<clipPath id="clip1_1626_3442">
<rect width="48" height="48" fill="white" transform="translate(0 -0.000244141)"/>
</clipPath>
</defs>
</svg>
