<svg width="48" height="49" viewBox="0 0 48 49" fill="none" xmlns="http://www.w3.org/2000/svg">
<g clip-path="url(#clip0_1626_3431)">
<path d="M24 13.7747C22.0919 13.7737 20.2181 14.2821 18.572 15.2473C16.926 16.2125 15.5675 17.5995 14.6366 19.2652C13.7058 20.9309 13.2364 22.8148 13.277 24.7225C13.3175 26.6302 13.8665 28.4925 14.8672 30.1172C14.8866 30.1553 14.9097 30.1915 14.9362 30.2252C15.7897 31.5702 16.9301 32.7099 18.2756 33.5627C18.3084 33.5889 18.3439 33.6116 18.3814 33.6305C19.7932 34.5005 21.3876 35.0311 23.0392 35.1809C24.6908 35.3306 26.3546 35.0953 27.8998 34.4934C29.4451 33.8915 30.8298 32.9395 31.945 31.7122C33.0603 30.4848 33.8757 29.0156 34.3272 27.4199C34.7788 25.8242 34.8541 24.1455 34.5473 22.5157C34.2406 20.886 33.5601 19.3496 32.5593 18.0273C31.5585 16.7049 30.2647 15.6327 28.7795 14.8948C27.2944 14.1569 25.6583 13.7735 24 13.7747ZM16.2971 29.9015L18.3221 27.8765C18.4178 27.7808 18.4816 27.6578 18.5047 27.5244C18.5278 27.391 18.5091 27.2537 18.4511 27.1314C17.9414 26.0604 17.7528 24.8647 17.9083 23.6888C18.0638 22.5129 18.5566 21.4072 19.3271 20.5055C20.0977 19.6038 21.113 18.9446 22.2503 18.6078C23.3876 18.2709 24.5981 18.2707 25.7355 18.6073L21.9214 22.4214C21.8604 22.4823 21.8121 22.5546 21.7792 22.6342C21.7462 22.7138 21.7293 22.7991 21.7294 22.8853V26.114C21.7294 26.2881 21.7985 26.455 21.9216 26.5781C22.0446 26.7011 22.2116 26.7703 22.3856 26.7703H25.6147C25.7009 26.7703 25.7862 26.7533 25.8658 26.7203C25.9454 26.6873 26.0177 26.6389 26.0786 26.5779L29.8924 22.7645C30.2293 23.9021 30.2294 25.1129 29.8925 26.2505C29.5557 27.3881 28.8965 28.4037 27.9945 29.1744C27.0926 29.9452 25.9866 30.438 24.8104 30.5934C23.6342 30.7487 22.4382 30.5598 21.3671 30.0497C21.2448 29.9914 21.1075 29.9725 20.974 29.9956C20.8406 30.0187 20.7176 30.0827 20.622 30.1787L18.597 32.2037C17.7036 31.5743 16.9256 30.7955 16.2971 29.9015ZM24 33.9122C22.5258 33.9137 21.0722 33.5667 19.7576 32.8997L21.234 31.4229C22.6255 31.9808 24.153 32.106 25.6168 31.7822C27.0807 31.4583 28.4128 30.7004 29.439 29.6075C30.4653 28.5146 31.1381 27.1376 31.3694 25.6563C31.6008 24.175 31.3799 22.6584 30.7357 21.3047C30.6908 21.2096 30.6236 21.1268 30.5399 21.0632C30.4562 20.9995 30.3584 20.957 30.2548 20.939C30.1512 20.9211 30.0448 20.9283 29.9446 20.9601C29.8444 20.9919 29.7533 21.0473 29.679 21.1217L25.3429 25.4578H23.0419V23.1572L27.378 18.8207C27.4524 18.7463 27.5078 18.6552 27.5396 18.555C27.5713 18.4548 27.5786 18.3484 27.5606 18.2448C27.5427 18.1412 27.5001 18.0434 27.4365 17.9598C27.3728 17.8761 27.29 17.8089 27.195 17.7639C25.8412 17.1197 24.3246 16.8989 22.8433 17.1302C21.3621 17.3615 19.985 18.0343 18.8921 19.0606C17.7992 20.0869 17.0413 21.419 16.7175 22.8828C16.3936 24.3466 16.5188 25.8741 17.0767 27.2657L15.6 28.7424C14.6761 26.9129 14.3747 24.8318 14.7414 22.8153C15.1082 20.7989 16.1231 18.9572 17.632 17.5702C19.1409 16.1831 21.0613 15.3264 23.1014 15.1303C25.1416 14.9342 27.19 15.4094 28.9354 16.4836C30.6809 17.5579 32.0281 19.1725 32.7722 21.0822C33.5163 22.9919 33.6168 25.0923 33.0584 27.0643C32.5 29.0363 31.3131 30.7721 29.6782 32.0081C28.0432 33.2441 26.0495 33.9126 24 33.9122Z" fill="#4D6BFF"/>
<path d="M45.6349 20.2497H41.4034C40.9703 18.4682 40.2636 16.7645 39.3082 15.1996L42.3034 12.2049C42.4264 12.0817 42.4955 11.9148 42.4955 11.7408C42.4955 11.5668 42.4264 11.3999 42.3034 11.2767L37.2214 6.19625C37.096 6.07756 36.9299 6.01142 36.7573 6.01142C36.5847 6.01142 36.4186 6.07756 36.2932 6.19625L33.3 9.191C31.735 8.23581 30.0314 7.52904 28.2499 7.09587V2.86475C28.2499 2.77855 28.233 2.69319 28.2 2.61355C28.1671 2.53391 28.1187 2.46155 28.0578 2.4006C27.9968 2.33965 27.9245 2.29131 27.8448 2.25835C27.7652 2.22539 27.6798 2.20845 27.5936 2.2085H20.4064C20.2323 2.2085 20.0654 2.27764 19.9423 2.40071C19.8193 2.52378 19.7501 2.6907 19.7501 2.86475V7.09587C17.9686 7.52904 16.265 8.23581 14.7 9.191L11.7052 6.19625C11.6443 6.13526 11.572 6.08687 11.4924 6.05386C11.4127 6.02085 11.3274 6.00386 11.2412 6.00386C11.155 6.00386 11.0696 6.02085 10.99 6.05386C10.9104 6.08687 10.838 6.13526 10.7771 6.19625L5.69662 11.2782C5.63563 11.3392 5.58725 11.4115 5.55423 11.4911C5.52122 11.5708 5.50423 11.6561 5.50423 11.7423C5.50423 11.8285 5.52122 11.9139 5.55423 11.9935C5.58725 12.0731 5.63563 12.1455 5.69662 12.2064L8.69137 15.1996C7.73619 16.7646 7.02942 18.4682 6.59625 20.2497H2.36475C2.19073 20.2498 2.02387 20.319 1.90082 20.4421C1.77777 20.5651 1.7086 20.732 1.7085 20.906V28.0932C1.7086 28.2673 1.77777 28.4341 1.90082 28.5572C2.02387 28.6802 2.19073 28.7494 2.36475 28.7495H6.59625C7.02942 30.531 7.73619 32.2346 8.69137 33.7996L5.69662 36.7944C5.63563 36.8553 5.58725 36.9276 5.55423 37.0073C5.52122 37.0869 5.50423 37.1722 5.50423 37.2584C5.50423 37.3446 5.52122 37.43 5.55423 37.5096C5.58725 37.5892 5.63563 37.6616 5.69662 37.7225L10.7786 42.8045C10.8395 42.8655 10.9119 42.9139 10.9915 42.9469C11.0711 42.9799 11.1565 42.9969 11.2427 42.9969C11.3289 42.9969 11.4142 42.9799 11.4939 42.9469C11.5735 42.9139 11.6458 42.8655 11.7067 42.8045L14.7015 39.8097C16.2659 40.7648 17.9691 41.4715 19.7501 41.9045V46.136C19.7501 46.31 19.8193 46.477 19.9423 46.6C20.0654 46.7231 20.2323 46.7922 20.4064 46.7922H27.5936C27.6798 46.7923 27.7652 46.7754 27.8448 46.7424C27.9245 46.7094 27.9968 46.6611 28.0578 46.6001C28.1187 46.5392 28.1671 46.4668 28.2 46.3872C28.233 46.3075 28.2499 46.2222 28.2499 46.136V41.903C30.0314 41.4701 31.7351 40.7634 33.3 39.8082L36.2947 42.803C36.4201 42.9217 36.5862 42.9878 36.7588 42.9878C36.9314 42.9878 37.0975 42.9217 37.2229 42.803L42.3049 37.721C42.4279 37.5979 42.4969 37.431 42.4969 37.2569C42.4969 37.0829 42.4279 36.916 42.3049 36.7929L39.3082 33.7996C40.2634 32.2352 40.9702 30.5321 41.4034 28.751H45.6349C45.8089 28.751 45.9758 28.6819 46.0989 28.5588C46.222 28.4357 46.2911 28.2688 46.2911 28.0947V20.906C46.2911 20.7319 46.222 20.565 46.0989 20.442C45.9758 20.3189 45.8089 20.2497 45.6349 20.2497ZM44.9786 27.437H40.8799C40.7294 27.4368 40.5834 27.4884 40.4664 27.5831C40.3495 27.6778 40.2686 27.8099 40.2375 27.9571C39.817 29.943 39.0325 31.8338 37.9237 33.5341C37.8416 33.6601 37.8053 33.8106 37.821 33.9602C37.8366 34.1098 37.9032 34.2494 38.0096 34.3557L40.9125 37.2571L36.7571 41.4121L33.8561 38.5111C33.7499 38.4047 33.6102 38.338 33.4606 38.3223C33.311 38.3066 33.1606 38.3428 33.0345 38.4249C31.3343 39.5336 29.4436 40.3181 27.4579 40.7386C27.3106 40.7697 27.1785 40.8504 27.0838 40.9673C26.989 41.0842 26.9373 41.2301 26.9374 41.3806V45.4794H21.0626V41.3806C21.063 41.2299 21.0115 41.0837 20.9168 40.9666C20.822 40.8494 20.6899 40.7684 20.5425 40.7371C18.5566 40.3167 16.6657 39.5323 14.9655 38.4234C14.8394 38.3414 14.689 38.3053 14.5394 38.321C14.3898 38.3367 14.2502 38.4033 14.1439 38.5096L11.2425 41.4121L7.0875 37.2571L9.9885 34.3557C10.095 34.2495 10.1616 34.1098 10.1773 33.9602C10.1931 33.8106 10.1568 33.6602 10.0747 33.5341C8.96638 31.8338 8.18242 29.9429 7.7625 27.9571C7.73117 27.81 7.65033 27.6782 7.53349 27.5835C7.41665 27.4888 7.27087 27.4371 7.1205 27.437H3.021V21.5622H7.12012C7.27056 21.5622 7.41643 21.5105 7.53335 21.4159C7.65027 21.3212 7.73115 21.1893 7.7625 21.0421C8.18288 19.0562 8.96735 17.1654 10.0762 15.4651C10.1583 15.3391 10.1946 15.1886 10.1788 15.039C10.1631 14.8894 10.0965 14.7498 9.99 14.6435L7.0875 11.7421L11.2425 7.58712L14.1439 10.4881C14.2501 10.5946 14.3898 10.6613 14.5394 10.677C14.689 10.6927 14.8394 10.6564 14.9655 10.5744C16.6659 9.46616 18.5568 8.68221 20.5425 8.26212C20.6896 8.23086 20.8215 8.15004 20.9162 8.03318C21.0109 7.91633 21.0626 7.77051 21.0626 7.62012V3.521H26.9374V7.61975C26.9373 7.77027 26.989 7.91625 27.0837 8.03321C27.1785 8.15016 27.3106 8.23098 27.4579 8.26212C29.4436 8.68275 31.3343 9.4672 33.0345 10.5759C33.1606 10.6578 33.311 10.694 33.4606 10.6783C33.6101 10.6626 33.7498 10.596 33.8561 10.4896L36.7571 7.58712L40.9125 11.7421L38.0111 14.6435C37.9047 14.7498 37.8381 14.8895 37.8225 15.0391C37.8068 15.1887 37.8431 15.3391 37.9252 15.4651C39.0335 17.1655 39.8174 19.0564 40.2375 21.0421C40.2686 21.1893 40.3494 21.3213 40.4663 21.416C40.5832 21.5107 40.7291 21.5623 40.8795 21.5622H44.9782L44.9786 27.437Z" fill="#4D6BFF"/>
</g>
<defs>
<clipPath id="clip0_1626_3431">
<rect width="48" height="48" fill="white" transform="translate(0 0.499634)"/>
</clipPath>
</defs>
</svg>
