<svg width="89" height="33" viewBox="0 0 89 33" fill="none" xmlns="http://www.w3.org/2000/svg">
<g clip-path="url(#clip0_3160_15335)">
<path d="M2.28 24.3359V9.04794H7.404C9.108 9.04794 10.42 9.47194 11.34 10.3199C12.26 11.1679 12.72 12.3399 12.72 13.8359C12.72 15.3159 12.26 16.4799 11.34 17.3279C10.42 18.1679 9.108 18.5879 7.404 18.5879H4.584V24.3359H2.28ZM4.584 16.5959H7.404C8.38 16.5959 9.12 16.3439 9.624 15.8399C10.128 15.3359 10.38 14.6679 10.38 13.8359C10.38 12.9959 10.128 12.3159 9.624 11.7959C9.12 11.2759 8.38 11.0159 7.404 11.0159H4.584V16.5959ZM23.4463 12.7559H25.7383V24.3359H23.4463V12.7559ZM15.3823 12.7559H17.6623V19.9079C17.6623 20.7799 17.8743 21.4399 18.2983 21.8879C18.7303 22.3359 19.3343 22.5599 20.1103 22.5599C20.7663 22.5599 21.3423 22.3879 21.8383 22.0439C22.3423 21.6999 22.7343 21.2119 23.0143 20.5799C23.3023 19.9479 23.4463 19.1999 23.4463 18.3359H24.1783C24.1783 19.6879 23.9943 20.8239 23.6263 21.7439C23.2583 22.6639 22.7423 23.3639 22.0783 23.8439C21.4143 24.3159 20.6383 24.5519 19.7503 24.5519C18.9023 24.5519 18.1463 24.3959 17.4823 24.0839C16.8263 23.7719 16.3103 23.2919 15.9343 22.6439C15.5663 21.9879 15.3823 21.1439 15.3823 20.1119V12.7559ZM30.1725 24.3359V12.7559H32.4525V24.3359H30.1725ZM31.8285 19.1759C31.8285 17.6959 31.9805 16.4679 32.2845 15.4919C32.5965 14.5079 33.0285 13.7759 33.5805 13.2959C34.1405 12.8159 34.7965 12.5759 35.5485 12.5759C35.7725 12.5759 35.9805 12.5919 36.1725 12.6239C36.3725 12.6559 36.5685 12.6999 36.7605 12.7559L36.6765 15.0239C36.4605 14.9679 36.2245 14.9199 35.9685 14.8799C35.7205 14.8319 35.4925 14.8079 35.2845 14.8079C34.6285 14.8079 34.0925 14.9839 33.6765 15.3359C33.2605 15.6799 32.9525 16.1799 32.7525 16.8359C32.5525 17.4839 32.4525 18.2639 32.4525 19.1759H31.8285ZM40.2291 10.3319C39.7731 10.3319 39.4131 10.2079 39.1491 9.95994C38.8931 9.70394 38.7651 9.35994 38.7651 8.92794C38.7651 8.51194 38.8931 8.18394 39.1491 7.94394C39.4131 7.69594 39.7731 7.57194 40.2291 7.57194C40.6771 7.57194 41.0291 7.69594 41.2851 7.94394C41.5491 8.18394 41.6811 8.51194 41.6811 8.92794C41.6811 9.35994 41.5491 9.70394 41.2851 9.95994C41.0291 10.2079 40.6771 10.3319 40.2291 10.3319ZM39.0891 24.3359V12.7559H41.3691V24.3359H39.0891ZM49.8302 24.6479C49.1742 24.6479 48.5822 24.5239 48.0542 24.2759C47.5262 24.0279 47.1062 23.6559 46.7942 23.1599C46.4902 22.6559 46.3382 22.0239 46.3382 21.2639V9.64794H48.6062V21.1919C48.6062 22.2799 49.1142 22.8239 50.1302 22.8239C50.4422 22.8239 50.7462 22.7919 51.0422 22.7279C51.3382 22.6559 51.6742 22.5519 52.0502 22.4159L52.3742 24.0359C51.9502 24.2119 51.5302 24.3559 51.1142 24.4679C50.7062 24.5879 50.2782 24.6479 49.8302 24.6479ZM44.5742 14.3399V12.7919H52.0262V14.3399H44.5742ZM53.2571 12.7919H55.8131L59.2931 22.3439H58.8251L61.6211 12.7919H63.9491L59.5691 26.5559C59.1691 27.8039 58.6531 28.7359 58.0211 29.3519C57.3971 29.9759 56.6131 30.2879 55.6691 30.2879C55.1411 30.2879 54.6331 30.2199 54.1451 30.0839C53.6651 29.9479 53.1731 29.7479 52.6691 29.4839V27.4319C53.1011 27.7359 53.5171 27.9559 53.9171 28.0919C54.3171 28.2279 54.7331 28.2959 55.1651 28.2959C55.5971 28.2959 55.9651 28.1639 56.2691 27.8999C56.5811 27.6439 56.8411 27.2999 57.0491 26.8679C57.2651 26.4439 57.4491 25.9799 57.6011 25.4759L57.9491 24.3359L53.2571 12.7919Z" fill="#ced4da"/>
<rect x="69" y="0.835938" width="20" height="20" rx="10" fill="#4D6BFF"/>
<path d="M75.664 13.8359V7.87594H76.448V13.8359H75.664ZM79.3494 13.8359L77.1974 7.87594H78.0374L79.8614 13.1159H79.6934L81.5174 7.87594H82.3574L80.2134 13.8359H79.3494Z" fill="white"/>
</g>
<defs>
<clipPath id="clip0_3160_15335">
<rect y="0.835938" width="89" height="32" rx="8" fill="white"/>
</clipPath>
</defs>
</svg>

